<svg width="305" height="288" viewBox="0 0 305 288" fill="none" xmlns="http://www.w3.org/2000/svg">
<path d="M180.084 232.661L174.802 231.915V206.022L180.084 206.583V232.661Z" fill="#999999" stroke="#263238" stroke-linecap="round" stroke-linejoin="round"/>
<path d="M298.817 219.18L56.0556 193.431V46.2033L298.817 14.8101V219.18Z" fill="white" stroke="#263238" stroke-linecap="round" stroke-linejoin="round"/>
<path d="M300.89 14.546L53.9692 46.4872C52.2659 46.7117 50.8794 45.827 50.8794 44.4471V42.1958C50.8794 40.8754 52.2659 39.5549 53.9692 39.3172L300.89 4.53051C302.593 4.28623 303.979 5.63307 303.979 7.53449V10.7035C303.996 11.6044 303.695 12.4823 303.131 13.1844C302.566 13.8866 301.773 14.3684 300.89 14.546Z" fill="#999999" stroke="#263238" stroke-linecap="round" stroke-linejoin="round"/>
<path d="M294.307 8.14849L298.625 7.52789" stroke="white" stroke-linecap="round" stroke-linejoin="round"/>
<path d="M282.707 9.81227L289.31 8.86816" stroke="white" stroke-linecap="round" stroke-linejoin="round"/>
<path d="M76.4892 39.2116L278.812 10.3536" stroke="white" stroke-linecap="round" stroke-linejoin="round"/>
<path d="M56.247 42.1033L71.2669 39.9576" stroke="white" stroke-linecap="round" stroke-linejoin="round"/>
<path d="M201.263 197.353L159.973 193.636V135.319L201.296 135.227L201.263 197.353Z" fill="#7E8AF5"/>
<path opacity="0.8" d="M201.263 197.353L159.973 193.636V135.319L201.296 135.227L201.263 197.353Z" fill="white"/>
<path d="M242.586 201.07L201.263 197.353V135.253L242.586 135.167V201.07Z" fill="#7E8AF5"/>
<path opacity="0.6" d="M242.586 201.07L201.263 197.353V135.253L242.586 135.167V201.07Z" fill="white"/>
<path d="M283.902 204.787L242.586 201.07V135.141L283.902 135.048V204.787Z" fill="#7E8AF5"/>
<path opacity="0.4" d="M283.902 204.787L242.586 201.07V135.141L283.902 135.048V204.787Z" fill="white"/>
<path d="M283.902 135.048L159.973 135.319" stroke="#7F7F7F" stroke-linecap="round" stroke-linejoin="round"/>
<path d="M159.973 143.651L283.935 145.011" stroke="#7F7F7F" stroke-linecap="round" stroke-linejoin="round"/>
<path d="M283.902 154.974L159.973 151.983" stroke="#7F7F7F" stroke-linecap="round" stroke-linejoin="round"/>
<path d="M159.973 160.341L283.935 164.963" stroke="#7F7F7F" stroke-linecap="round" stroke-linejoin="round"/>
<path d="M283.902 174.899L159.973 168.64" stroke="#7F7F7F" stroke-linecap="round" stroke-linejoin="round"/>
<path d="M159.973 176.972L283.935 184.862" stroke="#7F7F7F" stroke-linecap="round" stroke-linejoin="round"/>
<path d="M283.902 194.824L159.973 185.304" stroke="#7F7F7F" stroke-linecap="round" stroke-linejoin="round"/>
<path d="M159.973 193.636L283.935 204.787" stroke="#7F7F7F" stroke-linecap="round" stroke-linejoin="round"/>
<path d="M170.273 194.567V135.293" stroke="#7F7F7F" stroke-linecap="round" stroke-linejoin="round"/>
<path d="M159.973 135.319V193.636" stroke="#7F7F7F" stroke-linecap="round" stroke-linejoin="round"/>
<path d="M190.931 196.422V135.253" stroke="#7F7F7F" stroke-linecap="round" stroke-linejoin="round"/>
<path d="M180.605 135.253V195.471" stroke="#7F7F7F" stroke-linecap="round" stroke-linejoin="round"/>
<path d="M211.596 198.284V135.207" stroke="#7F7F7F" stroke-linecap="round" stroke-linejoin="round"/>
<path d="M201.263 135.253V197.379" stroke="#7F7F7F" stroke-linecap="round" stroke-linejoin="round"/>
<path d="M232.254 200.139V135.161" stroke="#7F7F7F" stroke-linecap="round" stroke-linejoin="round"/>
<path d="M221.921 135.181V199.221" stroke="#7F7F7F" stroke-linecap="round" stroke-linejoin="round"/>
<path d="M252.912 202.001V135.115" stroke="#7F7F7F" stroke-linecap="round" stroke-linejoin="round"/>
<path d="M242.586 135.141V201.07" stroke="#7F7F7F" stroke-linecap="round" stroke-linejoin="round"/>
<path d="M273.577 203.856V135.068" stroke="#7F7F7F" stroke-linecap="round" stroke-linejoin="round"/>
<path d="M263.244 135.095V202.932" stroke="#7F7F7F" stroke-linecap="round" stroke-linejoin="round"/>
<path d="M283.902 135.048V204.787" stroke="#7F7F7F" stroke-linecap="round" stroke-linejoin="round"/>
<path d="M159.973 135.319V193.636L283.935 204.787V135.048L159.973 135.319Z" stroke="#263238" stroke-linecap="round" stroke-linejoin="round"/>
<path d="M165.11 193.847L162.007 193.57V176.847L165.11 177.045V193.847Z" fill="#263238"/>
<path d="M168.206 194.131L165.11 193.847V168.653L168.206 168.812V194.131Z" fill="#7E8AF5"/>
<path d="M175.436 194.778L172.339 194.501V164.791L175.436 164.923V194.778Z" fill="#263238"/>
<path d="M178.539 195.055L175.436 194.778V160.638L178.539 160.751V195.055Z" fill="#7E8AF5"/>
<path d="M185.768 195.702L182.672 195.425V169.531L185.768 169.69V195.702Z" fill="#263238"/>
<path d="M188.864 195.993L185.768 195.716V165.346L188.864 165.478V195.993Z" fill="#7E8AF5"/>
<path d="M196.1 196.653L192.997 196.376V178.827L196.1 179.025V196.653Z" fill="#263238" stroke="#263238" stroke-linecap="round" stroke-linejoin="round"/>
<path d="M199.197 196.904L196.1 196.627V175.5L199.197 175.678V196.904Z" fill="#7E8AF5" stroke="#7E8AF5" stroke-linecap="round" stroke-linejoin="round"/>
<path d="M206.426 197.551L203.33 197.274V167.214L206.426 167.353V197.551Z" fill="#263238"/>
<path d="M209.529 197.828L206.426 197.551V173.044L209.529 173.209V197.828Z" fill="#7E8AF5"/>
<path d="M216.752 198.475L213.655 198.198V172.133L216.752 172.291V198.475Z" fill="#263238"/>
<path d="M219.855 198.753L216.758 198.475V167.815L219.855 167.954V198.753Z" fill="#7E8AF5"/>
<path d="M227.091 199.4L223.988 199.122V166.534L227.091 166.666V199.4Z" fill="#263238"/>
<path d="M230.187 199.677L227.091 199.4V169.102L230.187 169.248V199.677Z" fill="#7E8AF5"/>
<path d="M237.417 200.324L234.32 200.047V159.906L237.417 160.011V200.324Z" fill="#263238"/>
<path d="M240.52 200.614L237.417 200.331V155.238L240.52 155.324V200.614Z" fill="#7E8AF5"/>
<path d="M247.782 201.275L244.686 200.997V163.193L247.782 163.306V201.275Z" fill="#263238"/>
<path d="M250.845 161.101V201.532L247.782 201.275V161.002L250.845 161.101Z" fill="#7E8AF5"/>
<path d="M258.081 202.179L254.978 201.902V158.46L258.081 158.552V202.179Z" fill="#263238"/>
<path d="M261.178 202.456L258.081 202.179V159.45L261.178 159.542V202.456Z" fill="#7E8AF5"/>
<path d="M268.407 203.103L265.311 202.826V152.419L268.407 152.485V203.103Z" fill="#263238"/>
<path d="M271.51 203.381L268.407 203.103V149.705L271.51 149.758V203.381Z" fill="#7E8AF5"/>
<path d="M278.739 204.028L275.636 203.75V144.628L278.739 144.661V204.028Z" fill="#263238"/>
<path d="M281.836 204.305L278.74 204.028V142.159H281.836V204.305Z" fill="#7E8AF5"/>
<path d="M202.141 166.514L193.156 166.118C192.664 166.121 192.189 165.94 191.823 165.612C191.457 165.284 191.226 164.831 191.175 164.342V158.612C191.196 158.374 191.264 158.142 191.375 157.931C191.486 157.72 191.639 157.533 191.823 157.382C192.008 157.231 192.221 157.118 192.45 157.05C192.678 156.982 192.919 156.961 193.156 156.987L202.141 157.258C202.636 157.246 203.116 157.423 203.484 157.753C203.852 158.083 204.08 158.542 204.122 159.034V164.884C204.104 165.123 204.038 165.356 203.928 165.568C203.817 165.781 203.665 165.969 203.48 166.122C203.295 166.274 203.081 166.388 202.851 166.455C202.621 166.522 202.379 166.543 202.141 166.514Z" fill="white" stroke="#263238" stroke-linecap="round" stroke-linejoin="round"/>
<path d="M193.763 163.926C193.459 163.884 193.181 163.729 192.986 163.491C192.79 163.254 192.691 162.952 192.707 162.645V162.322H193.631V162.718C193.631 163.042 193.823 163.187 194.133 163.2C194.443 163.213 194.635 163.081 194.635 162.745C194.635 162.408 194.456 162.084 193.803 161.629C193.011 161.068 192.733 160.638 192.733 160.064C192.722 159.919 192.741 159.773 192.787 159.634C192.833 159.496 192.906 159.368 193.002 159.258C193.097 159.148 193.214 159.058 193.345 158.994C193.475 158.929 193.618 158.891 193.763 158.882V158.427H194.555V158.882C194.858 158.923 195.134 159.078 195.328 159.314C195.521 159.551 195.618 159.852 195.599 160.156V160.341H194.681V160.137C194.688 160.071 194.681 160.004 194.659 159.942C194.637 159.88 194.601 159.823 194.554 159.777C194.507 159.73 194.45 159.695 194.387 159.674C194.325 159.653 194.258 159.646 194.192 159.655C193.882 159.655 193.71 159.78 193.71 160.084C193.71 160.388 193.889 160.698 194.542 161.167C195.334 161.741 195.612 162.164 195.612 162.771C195.624 162.92 195.607 163.071 195.56 163.214C195.514 163.356 195.439 163.488 195.34 163.602C195.242 163.715 195.122 163.807 194.987 163.873C194.852 163.939 194.705 163.977 194.555 163.986V164.514H193.763V163.926Z" fill="#263238"/>
<path d="M201.059 162.144V158.678L198.906 158.605V162.058L197.368 162.005C198.418 163.187 198.939 163.781 200.009 164.969L202.617 162.197L201.059 162.144Z" fill="#999999" stroke="#263238" stroke-linecap="round" stroke-linejoin="round"/>
<path d="M259.474 153.079L250.482 152.874C249.975 152.875 249.486 152.681 249.118 152.332C248.749 151.983 248.529 151.506 248.502 150.999V144.76C248.524 144.257 248.745 143.783 249.116 143.443C249.488 143.102 249.979 142.923 250.482 142.945L259.474 143.024C259.983 143.023 260.472 143.218 260.841 143.569C261.21 143.919 261.43 144.398 261.455 144.906V151.244C261.448 151.495 261.391 151.743 261.288 151.972C261.184 152.201 261.035 152.407 260.851 152.578C260.666 152.749 260.45 152.881 260.213 152.967C259.977 153.053 259.726 153.091 259.474 153.079Z" fill="white" stroke="#263238" stroke-linecap="round" stroke-linejoin="round"/>
<path d="M251.083 150.471C250.769 150.416 250.487 150.245 250.292 149.992C250.098 149.739 250.005 149.422 250.033 149.104V148.728H250.951V149.164C250.944 149.232 250.952 149.302 250.975 149.367C250.998 149.432 251.035 149.491 251.084 149.539C251.133 149.588 251.192 149.625 251.257 149.648C251.322 149.671 251.391 149.68 251.459 149.672C251.528 149.682 251.599 149.676 251.665 149.654C251.731 149.632 251.79 149.595 251.839 149.545C251.888 149.496 251.925 149.436 251.946 149.369C251.967 149.303 251.972 149.233 251.961 149.164C251.961 148.755 251.783 148.457 251.129 147.975C250.337 147.381 250.06 146.919 250.06 146.299C250.027 145.989 250.116 145.679 250.306 145.433C250.497 145.187 250.775 145.024 251.083 144.978V144.496H251.882V144.998C252.195 145.048 252.478 145.217 252.672 145.468C252.865 145.72 252.956 146.035 252.925 146.351V146.51H252.007V146.285C252.018 146.218 252.013 146.148 251.992 146.083C251.972 146.018 251.937 145.958 251.889 145.908C251.842 145.858 251.784 145.82 251.72 145.796C251.656 145.772 251.587 145.764 251.519 145.77C251.453 145.762 251.385 145.768 251.322 145.79C251.259 145.811 251.201 145.847 251.154 145.894C251.107 145.942 251.071 145.999 251.05 146.062C251.028 146.125 251.022 146.193 251.03 146.259C251.03 146.635 251.209 146.919 251.862 147.414C252.661 148.008 252.938 148.471 252.938 149.124C252.965 149.438 252.87 149.75 252.674 149.995C252.477 150.241 252.194 150.402 251.882 150.445V151.012H251.083V150.471Z" fill="#263238"/>
<path d="M256.233 147.672V151.422L258.385 151.468V147.705H259.923L257.282 144.549L254.675 147.626L256.233 147.672Z" fill="#999999" stroke="#263238" stroke-linecap="round" stroke-linejoin="round"/>
<path d="M220.561 101.536C223.32 102.128 226.139 102.387 228.959 102.308C244.837 101.879 259.257 89.9558 259.329 74.3813C259.375 59.4538 244.355 48.0585 228.959 50.2636V76.2893C226.178 84.7137 223.378 93.1292 220.561 101.536Z" fill="#7E8AF5" stroke="#263238" stroke-linecap="round" stroke-linejoin="round"/>
<path d="M228.959 76.2893V50.2636C214.137 51.7821 198.371 63.4085 198.589 78.1907C198.774 89.3417 208.704 99.4562 220.535 101.536C223.374 93.1248 226.182 84.7092 228.959 76.2893Z" fill="#999999" stroke="#263238" stroke-linecap="round" stroke-linejoin="round"/>
<path d="M217.947 65.6665C217.928 65.4323 217.86 65.2048 217.747 64.9986C217.634 64.7925 217.48 64.6123 217.293 64.4698C217.106 64.3272 216.892 64.2255 216.663 64.1712C216.434 64.1169 216.197 64.1112 215.966 64.1546C215.47 64.1633 214.995 64.3537 214.63 64.6895C214.265 65.0253 214.036 65.4833 213.986 65.9768V67.0199C214.006 67.2538 214.074 67.481 214.187 67.6869C214.3 67.8928 214.455 68.0729 214.641 68.2158C214.827 68.3587 215.042 68.4611 215.27 68.5167C215.498 68.5722 215.735 68.5796 215.966 68.5384C216.462 68.5296 216.938 68.3393 217.303 68.0035C217.668 67.6677 217.897 67.2097 217.947 66.7162" stroke="#263238" stroke-linecap="round" stroke-linejoin="round"/>
<path d="M212.434 85.737V89.1107C212.449 89.2674 212.495 89.4195 212.57 89.5578C212.645 89.6961 212.747 89.8177 212.871 89.9152C212.994 90.0128 213.136 90.0842 213.288 90.1252C213.44 90.1662 213.599 90.176 213.754 90.1539V90.1539C214.08 90.156 214.395 90.0379 214.638 89.8223C214.882 89.6066 215.037 89.3085 215.075 88.9853V80.4883C215.09 80.2682 215.185 80.0612 215.342 79.9058C215.499 79.7504 215.706 79.6571 215.927 79.6432C216.035 79.6204 216.148 79.6209 216.256 79.6446C216.365 79.6684 216.467 79.7148 216.556 79.781C216.645 79.8471 216.719 79.9314 216.774 80.0283C216.828 80.1252 216.861 80.2325 216.871 80.3431V88.9259C216.884 89.0831 216.93 89.2359 217.005 89.375C217.079 89.5141 217.182 89.6364 217.305 89.7347C217.429 89.8329 217.571 89.9049 217.723 89.9463C217.876 89.9878 218.035 89.9977 218.191 89.9756C218.518 89.9776 218.833 89.8586 219.077 89.6416C219.321 89.4245 219.476 89.1249 219.512 88.8004V80.5609" stroke="#263238" stroke-linecap="round" stroke-linejoin="round"/>
<path d="M212.434 83.5253V84.5156" stroke="#263238" stroke-linecap="round" stroke-linejoin="round"/>
<path d="M219.498 79.3593V72.6647C219.51 72.5591 219.56 72.4615 219.639 72.3907C219.719 72.32 219.821 72.2812 219.928 72.2818V72.2818C219.977 72.2734 220.028 72.2755 220.077 72.2878C220.126 72.3002 220.172 72.3226 220.212 72.3537C220.251 72.3848 220.284 72.4238 220.308 72.4682C220.332 72.5127 220.346 72.5616 220.35 72.6119V76.5732C220.362 76.8143 220.469 77.041 220.646 77.2041C220.824 77.3672 221.06 77.4537 221.301 77.4447C221.581 77.4651 221.858 77.376 222.073 77.1962C222.289 77.0164 222.426 76.7599 222.456 76.4808V71.7074C222.456 70.453 221.261 69.5221 219.782 69.6277L212.15 70.1823C210.671 70.2946 209.509 71.3773 209.509 72.6119V77.2334C209.523 77.4728 209.63 77.6971 209.808 77.8578C209.986 78.0185 210.22 78.1025 210.46 78.0917C210.738 78.114 211.014 78.0274 211.23 77.85C211.446 77.6726 211.584 77.4184 211.615 77.141V73.1797C211.627 73.0734 211.677 72.9751 211.756 72.9032C211.835 72.8314 211.938 72.7912 212.045 72.7902V72.7902C212.094 72.7828 212.145 72.7855 212.193 72.7983C212.242 72.8111 212.287 72.8336 212.327 72.8645C212.366 72.8954 212.399 72.934 212.423 72.9779C212.447 73.0219 212.462 73.0703 212.467 73.1203V82.5217" stroke="#263238" stroke-linecap="round" stroke-linejoin="round"/>
<path d="M243.774 64.4054C243.913 65.2373 244.118 66.4389 244.118 66.4389L239.404 66.7888C239.404 66.7888 239.84 64.1479 239.873 63.9499C239.951 63.4789 240.176 63.0444 240.514 62.708C240.853 62.3715 241.289 62.15 241.761 62.0749C242.214 62.0617 242.656 62.215 243.004 62.5057C243.352 62.7964 243.581 63.2045 243.649 63.6528" stroke="#263238" stroke-linecap="round" stroke-linejoin="round"/>
<path d="M247.848 74.8765V69.9447C247.848 68.6242 246.646 67.6801 245.174 67.7858" stroke="#263238" stroke-linecap="round" stroke-linejoin="round"/>
<path d="M244.89 82.766V81.1155L246.396 81.0297C245.795 76.9957 245.491 74.9755 244.89 70.9548C244.898 70.8473 244.946 70.7466 245.024 70.6722C245.102 70.5978 245.205 70.555 245.313 70.552C245.363 70.5446 245.415 70.5478 245.464 70.5614C245.514 70.575 245.56 70.5987 245.599 70.6309C245.639 70.6632 245.672 70.7034 245.695 70.7489C245.719 70.7944 245.732 70.8443 245.735 70.8954V74.9953C245.742 75.241 245.846 75.4741 246.024 75.6435C246.202 75.813 246.44 75.9051 246.686 75.8998" stroke="#263238" stroke-linecap="round" stroke-linejoin="round"/>
<path d="M244.89 84.8985V83.7563" stroke="#263238" stroke-linecap="round" stroke-linejoin="round"/>
<path d="M237.304 80.2968C237.232 80.7854 237.199 81.0297 237.126 81.5182L238.631 81.4324V87.8893C238.643 88.049 238.686 88.2047 238.76 88.3469C238.833 88.4892 238.935 88.6151 239.058 88.717C239.182 88.8188 239.325 88.8946 239.478 88.9396C239.632 88.9845 239.793 88.9978 239.952 88.9786C240.283 88.9798 240.603 88.8562 240.848 88.6324C241.093 88.4085 241.244 88.1009 241.272 87.7705V81.2871L242.249 81.2343V87.7176C242.261 87.8773 242.304 88.033 242.378 88.1753C242.451 88.3176 242.553 88.4435 242.676 88.5453C242.8 88.6472 242.943 88.7229 243.096 88.7679C243.25 88.8129 243.411 88.8262 243.57 88.807C243.902 88.8081 244.223 88.6835 244.468 88.4583C244.713 88.2331 244.864 87.9238 244.89 87.5922V86.0473" stroke="#263238" stroke-linecap="round" stroke-linejoin="round"/>
<path d="M242.89 67.9508L238.347 68.2809C237.677 68.3042 237.038 68.5723 236.551 69.0345C236.065 69.4968 235.764 70.1211 235.707 70.7897V75.6027C235.715 75.8409 235.815 76.0667 235.986 76.2328C236.157 76.3988 236.386 76.4924 236.624 76.494C236.909 76.516 237.19 76.425 237.407 76.2408C237.625 76.0567 237.761 75.7942 237.786 75.5103V71.4169C237.796 71.3099 237.844 71.2101 237.922 71.136C237.999 71.0619 238.102 71.0186 238.209 71.0142V71.0142C238.259 71.0068 238.311 71.01 238.36 71.0236C238.41 71.0371 238.456 71.0608 238.496 71.0931C238.535 71.1254 238.568 71.1655 238.591 71.211C238.615 71.2566 238.628 71.3064 238.631 71.3575L237.608 78.2898" stroke="#263238" stroke-linecap="round" stroke-linejoin="round"/>
<path d="M270.401 72.0045L267.047 72.2224C266.758 72.2621 266.464 72.2413 266.183 72.1612C265.902 72.0812 265.641 71.9437 265.417 71.7575C265.192 71.5712 265.008 71.3403 264.878 71.0794C264.747 70.8185 264.672 70.5332 264.657 70.2417V67.251C264.699 66.6371 264.966 66.0603 265.407 65.6314C265.848 65.2025 266.432 64.9516 267.047 64.927L270.401 64.6761C270.69 64.6353 270.984 64.6554 271.265 64.7351C271.546 64.8148 271.807 64.9523 272.031 65.1388C272.256 65.3254 272.438 65.5567 272.568 65.8182C272.698 66.0796 272.772 66.3652 272.784 66.6568V69.7004C272.744 70.3117 272.477 70.886 272.037 71.3119C271.596 71.7377 271.013 71.9846 270.401 72.0045Z" fill="#999999" stroke="#263238" stroke-linecap="round" stroke-linejoin="round"/>
<path d="M278.502 69.7466L276.455 69.8852V68.994C277.241 67.2576 277.63 66.3927 278.436 64.6497L279.604 64.5639V68.7827H280.106V69.674H279.604V70.8095L278.528 70.8822L278.502 69.7466ZM278.502 68.8553V66.4257C278.086 67.4292 277.875 67.931 277.452 68.9279L278.502 68.8553Z" fill="#263238"/>
<path d="M280.581 69.2316V68.7365L281.592 68.6704V69.2316C281.592 69.6806 281.809 69.8258 282.153 69.7994C282.496 69.773 282.707 69.6013 282.707 69.1392V67.7329C282.707 67.284 282.489 67.1255 282.153 67.1519C281.816 67.1783 281.592 67.3566 281.592 67.8122V67.865L280.581 67.9376C280.661 66.5313 280.7 65.8315 280.773 64.4318L283.599 64.2206V65.1185L281.73 65.2505C281.697 65.8513 281.677 66.155 281.644 66.7558C281.744 66.5998 281.88 66.4706 282.041 66.3796C282.203 66.2887 282.384 66.2388 282.569 66.2342C283.354 66.1814 283.757 66.6634 283.757 67.5877V69.0071C283.777 69.2259 283.75 69.4464 283.678 69.6538C283.606 69.8613 283.49 70.0511 283.339 70.2104C283.188 70.3697 283.004 70.495 282.801 70.5778C282.598 70.6606 282.379 70.6991 282.159 70.6907C281.954 70.7334 281.74 70.7263 281.538 70.67C281.335 70.6137 281.149 70.5099 280.995 70.3672C280.841 70.2245 280.723 70.047 280.651 69.8495C280.579 69.652 280.555 69.4401 280.581 69.2316Z" fill="#263238"/>
<path d="M284.45 66.6898V65.1185C284.439 64.9774 284.458 64.8355 284.505 64.7021C284.553 64.5687 284.628 64.4469 284.726 64.3447C284.824 64.2424 284.942 64.162 285.073 64.1088C285.204 64.0555 285.345 64.0306 285.487 64.0357C285.62 64.0064 285.757 64.0092 285.889 64.0439C286.02 64.0787 286.141 64.1443 286.242 64.2355C286.343 64.3266 286.42 64.4405 286.468 64.5677C286.516 64.6949 286.533 64.8317 286.517 64.9666V66.5446C286.529 66.6853 286.511 66.8271 286.465 66.9605C286.418 67.0939 286.343 67.2158 286.246 67.3182C286.149 67.4205 286.031 67.5011 285.9 67.5544C285.769 67.6077 285.628 67.6325 285.487 67.6273C285.353 67.6566 285.215 67.6536 285.083 67.6185C284.95 67.5834 284.829 67.5173 284.727 67.4255C284.626 67.3338 284.548 67.2192 284.5 67.0912C284.451 66.9633 284.435 66.8256 284.45 66.6898ZM285.837 66.637V64.9732C285.837 64.696 285.698 64.5903 285.487 64.6035C285.276 64.6167 285.13 64.7488 285.13 65.0261V66.6898C285.13 66.9671 285.262 67.0727 285.487 67.0595C285.711 67.0463 285.837 66.9143 285.837 66.637ZM287.956 63.9433L288.616 63.8971C287.56 66.4983 287.032 67.799 285.975 70.387L285.315 70.4332C286.372 67.8452 286.9 66.5512 287.956 63.9499V63.9433ZM287.441 69.3703V67.7924C287.429 67.6519 287.447 67.5104 287.493 67.3773C287.54 67.2443 287.615 67.1227 287.712 67.0209C287.81 66.919 287.928 66.8391 288.059 66.7865C288.19 66.734 288.33 66.71 288.471 66.7162C288.605 66.6853 288.744 66.6872 288.877 66.7217C289.01 66.7562 289.132 66.8223 289.234 66.9144C289.336 67.0065 289.414 67.1218 289.462 67.2505C289.509 67.3792 289.525 67.5176 289.508 67.6537V69.2316C289.519 69.3725 289.5 69.5141 289.453 69.6471C289.405 69.7802 289.33 69.9016 289.232 70.0034C289.134 70.1051 289.015 70.1849 288.884 70.2374C288.753 70.2899 288.612 70.3139 288.471 70.3078C288.338 70.3374 288.199 70.3346 288.067 70.2995C287.935 70.2644 287.814 70.1982 287.713 70.1062C287.612 70.0143 287.535 69.8995 287.487 69.7714C287.44 69.6433 287.424 69.5058 287.441 69.3703ZM288.828 69.3241V67.6537C288.828 67.3764 288.689 67.2708 288.471 67.284C288.253 67.2972 288.121 67.4226 288.121 67.7065V69.3703C288.121 69.6542 288.253 69.7598 288.471 69.7466C288.689 69.7334 288.828 69.608 288.828 69.3241Z" fill="#263238"/>
<path d="M270.401 82.733L267.047 82.9047C266.755 82.9385 266.46 82.9119 266.178 82.8268C265.897 82.7417 265.636 82.5997 265.412 82.4096C265.188 82.2196 265.006 81.9856 264.876 81.7221C264.746 81.4586 264.671 81.1712 264.657 80.8778V77.8606C264.698 77.2501 264.966 76.6771 265.409 76.2544C265.851 75.8316 266.435 75.5897 267.047 75.5763L270.401 75.3716C270.692 75.3358 270.988 75.3607 271.269 75.4447C271.55 75.5288 271.811 75.6701 272.035 75.8599C272.259 76.0497 272.441 76.2838 272.57 76.5475C272.699 76.8111 272.772 77.0986 272.784 77.3919V80.4553C272.745 81.0645 272.478 81.6367 272.036 82.0585C271.595 82.4803 271.011 82.721 270.401 82.733Z" fill="#7E8AF5" stroke="#263238" stroke-linecap="round" stroke-linejoin="round"/>
<path d="M276.68 80.2902V79.7951L277.696 79.7422V80.2968C277.696 80.7458 277.908 80.891 278.251 80.8778C278.594 80.8646 278.806 80.6864 278.806 80.2176V78.818C278.806 78.3756 278.594 78.2172 278.251 78.237C277.908 78.2568 277.696 78.435 277.696 78.8972V78.95L276.68 79.0028L276.878 75.5169L279.703 75.3452V76.2431L277.835 76.3487C277.795 76.9495 277.782 77.2466 277.743 77.8408C277.842 77.686 277.979 77.5585 278.14 77.4697C278.302 77.381 278.483 77.3338 278.667 77.3325C279.459 77.2863 279.855 77.7748 279.855 78.6925V80.1054C279.877 80.3229 279.851 80.5426 279.779 80.749C279.707 80.9555 279.591 81.1438 279.439 81.3009C279.287 81.458 279.102 81.58 278.898 81.6586C278.694 81.7372 278.476 81.7704 278.258 81.7559C278.051 81.7988 277.837 81.7917 277.634 81.7351C277.431 81.6785 277.245 81.5741 277.09 81.4306C276.936 81.2871 276.818 81.1087 276.746 80.9103C276.675 80.7119 276.652 80.4993 276.68 80.2902Z" fill="#263238"/>
<path d="M280.581 80.0789V79.5904L281.592 79.531V80.0988C281.592 80.5411 281.809 80.693 282.153 80.6731C282.496 80.6533 282.707 80.4883 282.707 80.0129V78.6067C282.707 78.1577 282.49 77.9993 282.153 78.0191C281.816 78.0389 281.592 78.2171 281.592 78.6793V78.7321L280.581 78.7915C280.661 77.3853 280.7 76.6854 280.773 75.2858L283.599 75.1141V76.012L281.73 76.1177C281.697 76.7185 281.677 77.0222 281.644 77.623C281.744 77.4677 281.88 77.3399 282.042 77.2511C282.203 77.1623 282.384 77.1153 282.569 77.1146C283.354 77.0684 283.757 77.5569 283.757 78.4812V79.9007C283.778 80.1188 283.752 80.339 283.68 80.546C283.609 80.7531 283.493 80.9421 283.341 81.1002C283.189 81.2583 283.005 81.3816 282.801 81.4617C282.597 81.5419 282.378 81.5769 282.159 81.5644C281.951 81.6082 281.735 81.601 281.53 81.5434C281.326 81.4858 281.138 81.3796 280.983 81.2337C280.828 81.0878 280.71 80.9066 280.64 80.7055C280.571 80.5045 280.55 80.2895 280.581 80.0789Z" fill="#263238"/>
<path d="M284.45 77.6097V76.0384C284.438 75.8976 284.456 75.7558 284.503 75.6226C284.55 75.4893 284.625 75.3678 284.724 75.2663C284.822 75.1648 284.941 75.0857 285.073 75.0344C285.205 74.9831 285.346 74.9607 285.487 74.9689C285.621 74.9405 285.759 74.9445 285.891 74.9805C286.023 75.0165 286.144 75.0834 286.245 75.1758C286.346 75.2681 286.423 75.3832 286.47 75.5114C286.517 75.6397 286.533 75.7773 286.517 75.913V77.4909C286.529 77.6308 286.512 77.7718 286.465 77.9042C286.418 78.0366 286.343 78.1574 286.245 78.2583C286.148 78.3592 286.029 78.4378 285.898 78.4888C285.767 78.5398 285.627 78.562 285.487 78.5538C285.353 78.5819 285.214 78.5777 285.082 78.5417C284.95 78.5057 284.829 78.4389 284.727 78.3467C284.626 78.2545 284.548 78.1397 284.5 78.0115C284.452 77.8834 284.435 77.7457 284.45 77.6097ZM285.837 77.5767V75.913C285.837 75.6291 285.698 75.5234 285.487 75.5366C285.276 75.5499 285.13 75.6753 285.13 75.9526V77.6163C285.13 77.8936 285.262 78.0059 285.487 77.9927C285.711 77.9794 285.837 77.854 285.837 77.5767ZM287.956 74.9359L288.616 74.8962C287.56 77.4843 287.032 78.7783 285.975 81.3531L285.315 81.3862C286.372 78.7915 286.9 77.4975 287.956 74.9094V74.9359ZM287.441 80.3562V78.7783C287.429 78.6384 287.446 78.4974 287.493 78.365C287.54 78.2325 287.615 78.1118 287.713 78.0109C287.81 77.91 287.929 77.8314 288.06 77.7804C288.19 77.7294 288.331 77.7072 288.471 77.7154C288.606 77.6871 288.745 77.6913 288.878 77.7276C289.01 77.7639 289.132 77.8314 289.234 77.9243C289.335 78.0173 289.413 78.1331 289.46 78.2621C289.508 78.3911 289.524 78.5296 289.508 78.6661V80.2506C289.52 80.3911 289.502 80.5327 289.455 80.6656C289.408 80.7985 289.333 80.9196 289.234 81.0206C289.136 81.1216 289.016 81.2001 288.885 81.2507C288.753 81.3012 288.612 81.3227 288.471 81.3135C288.334 81.342 288.192 81.3368 288.057 81.2982C287.922 81.2597 287.799 81.189 287.698 81.0922C287.596 80.9954 287.52 80.8754 287.475 80.7426C287.431 80.6098 287.419 80.4682 287.441 80.3298V80.3562ZM288.828 80.3562V78.6859C288.828 78.4086 288.689 78.2963 288.471 78.3096C288.253 78.3228 288.121 78.4482 288.121 78.7255V80.3958C288.121 80.6731 288.253 80.7854 288.471 80.7722C288.689 80.7589 288.828 80.5807 288.828 80.3034V80.3562Z" fill="#263238"/>
<path d="M108.477 116.926L67.1604 117.883V50.0458L108.477 45.2856V116.926Z" fill="#7E8AF5"/>
<path opacity="0.8" d="M108.477 116.926L67.1604 117.883V50.0458L108.477 45.2856V116.926Z" fill="white"/>
<path d="M149.826 115.975L108.477 116.926V45.2857L149.799 40.5255L149.826 115.975Z" fill="#7E8AF5"/>
<path opacity="0.6" d="M149.826 115.975L108.477 116.926V45.2857L149.799 40.5255L149.826 115.975Z" fill="white"/>
<path d="M191.149 115.024L149.826 115.975V40.5255L191.149 35.7653V115.024Z" fill="#7E8AF5"/>
<path opacity="0.4" d="M191.149 115.024L149.826 115.975V40.5255L191.149 35.7653V115.024Z" fill="white"/>
<path d="M191.149 35.7653L67.1868 50.0458" stroke="#7F7F7F" stroke-linecap="round" stroke-linejoin="round"/>
<path d="M67.1868 59.7377L191.149 47.088" stroke="#7F7F7F" stroke-linecap="round" stroke-linejoin="round"/>
<path d="M191.149 58.4107L67.1868 69.4297" stroke="#7F7F7F" stroke-linecap="round" stroke-linejoin="round"/>
<path d="M67.1868 79.1348L191.149 69.7532" stroke="#7F7F7F" stroke-linecap="round" stroke-linejoin="round"/>
<path d="M191.149 81.0561L67.1868 88.807" stroke="#7F7F7F" stroke-linecap="round" stroke-linejoin="round"/>
<path d="M67.1868 98.499L191.149 92.3788" stroke="#7F7F7F" stroke-linecap="round" stroke-linejoin="round"/>
<path d="M191.149 103.701L67.1868 108.184" stroke="#7F7F7F" stroke-linecap="round" stroke-linejoin="round"/>
<path d="M67.1868 117.883L191.149 115.024" stroke="#7F7F7F" stroke-linecap="round" stroke-linejoin="round"/>
<path d="M77.5126 117.645V48.8574" stroke="#7F7F7F" stroke-linecap="round" stroke-linejoin="round"/>
<path d="M67.1868 50.0458V117.883" stroke="#7F7F7F" stroke-linecap="round" stroke-linejoin="round"/>
<path d="M98.1772 117.163V46.474" stroke="#7F7F7F" stroke-linecap="round" stroke-linejoin="round"/>
<path d="M87.8449 47.6624V117.427" stroke="#7F7F7F" stroke-linecap="round" stroke-linejoin="round"/>
<path d="M118.835 116.688V44.0972" stroke="#7F7F7F" stroke-linecap="round" stroke-linejoin="round"/>
<path d="M108.477 45.2856V116.926" stroke="#7F7F7F" stroke-linecap="round" stroke-linejoin="round"/>
<path d="M139.507 116.213V41.7139" stroke="#7F7F7F" stroke-linecap="round" stroke-linejoin="round"/>
<path d="M129.168 42.9089V116.45" stroke="#7F7F7F" stroke-linecap="round" stroke-linejoin="round"/>
<path d="M160.158 115.737V39.3371" stroke="#7F7F7F" stroke-linecap="round" stroke-linejoin="round"/>
<path d="M149.826 40.5255V115.975" stroke="#7F7F7F" stroke-linecap="round" stroke-linejoin="round"/>
<path d="M180.816 115.262V36.9603" stroke="#7F7F7F" stroke-linecap="round" stroke-linejoin="round"/>
<path d="M170.484 38.1487V115.499" stroke="#7F7F7F" stroke-linecap="round" stroke-linejoin="round"/>
<path d="M191.149 35.7653V115.024" stroke="#7F7F7F" stroke-linecap="round" stroke-linejoin="round"/>
<path d="M67.1868 50.0458V117.883L191.149 115.024V35.7983L67.1868 50.0458Z" stroke="#263238" stroke-linecap="round" stroke-linejoin="round"/>
<path d="M67.1868 108.184H67.9263" stroke="#263238" stroke-linecap="round" stroke-linejoin="round"/>
<path d="M69.1873 108.118L76.146 107.867" stroke="#263238" stroke-linecap="round" stroke-linejoin="round" stroke-dasharray="1.71 1.71"/>
<path d="M76.7863 107.841H77.5192L78.0407 107.326" stroke="#263238" stroke-linecap="round" stroke-linejoin="round"/>
<path d="M79.0707 106.276C82.1671 103.206 83.6922 101.655 86.8084 98.532" stroke="#263238" stroke-linecap="round" stroke-linejoin="round" stroke-dasharray="1.98 1.98"/>
<path d="M87.3498 98.0104L87.8713 97.4822C88.0826 97.6671 88.1882 97.7661 88.3929 97.9576" stroke="#263238" stroke-linecap="round" stroke-linejoin="round"/>
<path d="M89.1918 98.7102L92.0769 101.351" stroke="#263238" stroke-linecap="round" stroke-linejoin="round" stroke-dasharray="1.58 1.58"/>
<path d="M92.4863 101.754L93.0079 102.242C93.1069 101.965 93.1531 101.826 93.2456 101.549" stroke="#263238" stroke-linecap="round" stroke-linejoin="round"/>
<path d="M93.6681 100.262C95.2922 95.4554 96.1043 93.039 97.7284 88.1798" stroke="#263238" stroke-linecap="round" stroke-linejoin="round" stroke-dasharray="1.83 1.83"/>
<path d="M97.9132 87.5724C98.0123 87.2885 98.0585 87.1499 98.1509 86.8726L98.8838 86.8264" stroke="#263238" stroke-linecap="round" stroke-linejoin="round"/>
<path d="M100.145 86.7471L101.987 86.6349" stroke="#263238" stroke-linecap="round" stroke-linejoin="round" stroke-dasharray="1.67 1.67"/>
<path d="M102.601 86.5953L103.34 86.5491L103.67 85.8889" stroke="#263238" stroke-linecap="round" stroke-linejoin="round"/>
<path d="M104.317 84.5684L107.856 77.306" stroke="#263238" stroke-linecap="round" stroke-linejoin="round" stroke-dasharray="1.95 1.95"/>
<path d="M108.173 76.6657L108.503 76.0055L109.242 75.946" stroke="#263238" stroke-linecap="round" stroke-linejoin="round"/>
<path d="M110.51 75.8338L117.462 75.3056" stroke="#263238" stroke-linecap="round" stroke-linejoin="round" stroke-dasharray="1.71 1.71"/>
<path d="M118.096 75.266L118.835 75.2066L119.357 74.6454" stroke="#263238" stroke-linecap="round" stroke-linejoin="round"/>
<path d="M120.182 73.7541L123.067 70.6181" stroke="#263238" stroke-linecap="round" stroke-linejoin="round" stroke-dasharray="1.58 1.58"/>
<path d="M123.477 70.1691L123.998 69.5948L124.738 69.5353" stroke="#263238" stroke-linecap="round" stroke-linejoin="round"/>
<path d="M126.21 69.4165L134.331 68.7563C135.981 66.9275 136.807 66.0164 138.457 64.1744" stroke="#263238" stroke-linecap="round" stroke-linejoin="round" stroke-dasharray="1.99 1.99"/>
<path d="M138.972 63.5868C139.183 63.3491 139.289 63.2369 139.494 62.9992L140.015 63.4944" stroke="#263238" stroke-linecap="round" stroke-linejoin="round"/>
<path d="M141.052 64.4649C144.142 67.3963 145.673 68.8751 148.789 71.8593" stroke="#263238" stroke-linecap="round" stroke-linejoin="round" stroke-dasharray="1.98 1.98"/>
<path d="M149.304 72.361L149.826 72.8628C150.037 72.6317 150.136 72.5129 150.347 72.2752" stroke="#263238" stroke-linecap="round" stroke-linejoin="round"/>
<path d="M151.173 71.3509C152.328 70.0305 152.903 69.4099 154.058 68.1027" stroke="#263238" stroke-linecap="round" stroke-linejoin="round" stroke-dasharray="1.58 1.58"/>
<path d="M154.467 67.6405L154.989 67.0463L155.728 66.9869" stroke="#263238" stroke-linecap="round" stroke-linejoin="round"/>
<path d="M157.148 66.868L165.321 66.2078C167.388 63.8377 168.418 62.6493 170.484 60.2659L174.201 59.9358" stroke="#263238" stroke-linecap="round" stroke-linejoin="round" stroke-dasharray="1.93 1.93"/>
<path d="M174.914 59.8566L175.654 59.7906L175.984 59.0511" stroke="#263238" stroke-linecap="round" stroke-linejoin="round"/>
<path d="M176.624 57.6052C178.037 54.423 178.75 52.8253 180.163 49.6232" stroke="#263238" stroke-linecap="round" stroke-linejoin="round" stroke-dasharray="1.95 1.95"/>
<path d="M180.486 48.8904L180.816 48.1443" stroke="#263238" stroke-linecap="round" stroke-linejoin="round"/>
<path d="M67.1868 98.499L77.5126 97.9906C81.6455 95.8185 83.712 94.7225 87.845 92.4976L93.0079 92.2071C95.0743 88.0808 96.1109 86.0011 98.1773 81.8219C100.244 79.6564 101.274 78.5737 103.34 76.3818C105.407 72.1564 106.437 70.0305 108.503 65.7523C112.636 67.4358 114.703 68.2875 118.835 70.0239C120.902 71.9253 121.932 72.8826 123.998 74.817C128.131 70.3276 130.198 68.0564 134.331 63.4613C136.397 59.0445 137.427 56.8592 139.494 52.3565C143.627 56.1924 145.693 58.14 149.826 62.0815C151.892 66.2144 152.922 68.2875 154.989 72.4733L165.321 71.6876C167.388 69.3373 168.418 68.1555 170.484 65.7457C172.551 58.9455 173.587 55.5256 175.654 48.6461C177.713 43.985 178.75 41.6412 180.816 36.9339" stroke="#263238" stroke-linecap="round" stroke-linejoin="round"/>
<path d="M86.9932 125.911C86.781 125.984 86.5576 126.02 86.333 126.017C86.1332 126.042 85.9303 126.02 85.7399 125.955C85.5495 125.889 85.3767 125.781 85.2346 125.638C85.0925 125.495 84.985 125.322 84.9202 125.131C84.8554 124.941 84.835 124.738 84.8607 124.538V121.389C84.8377 121.187 84.8595 120.983 84.9246 120.792C84.9896 120.6 85.0964 120.425 85.2371 120.279C85.3778 120.133 85.5491 120.02 85.7385 119.948C85.928 119.877 86.131 119.848 86.333 119.864C86.5328 119.838 86.7357 119.858 86.9264 119.923C87.1171 119.988 87.2904 120.095 87.4331 120.237C87.5758 120.379 87.6842 120.552 87.7498 120.743C87.8155 120.933 87.8367 121.136 87.8119 121.336V124.478C87.8243 124.826 87.7298 125.17 87.5412 125.462C87.6072 125.581 87.7261 125.601 87.9043 125.594H88.0496V126.446H87.7987C87.6228 126.467 87.4452 126.425 87.2976 126.327C87.15 126.229 87.0422 126.081 86.9932 125.911ZM86.8546 124.591V121.336C86.8546 120.907 86.6565 120.748 86.3462 120.755C86.0359 120.761 85.8445 120.926 85.8445 121.356V124.604C85.8445 125.033 86.0425 125.191 86.3462 125.185C86.6499 125.178 86.8546 125 86.8546 124.571V124.591Z" fill="#263238"/>
<path d="M89.8453 121.323H88.8286V120.662C89.6539 120.662 89.9444 120.471 90.149 119.883H90.8093V125.878H89.8321L89.8453 121.323Z" fill="#263238"/>
<path d="M128.039 125.423C127.827 125.501 127.604 125.541 127.379 125.541C127.173 125.558 126.966 125.529 126.773 125.455C126.58 125.381 126.407 125.264 126.265 125.114C126.124 124.964 126.018 124.783 125.956 124.586C125.894 124.389 125.877 124.181 125.906 123.977V120.676C125.878 120.469 125.895 120.259 125.957 120.06C126.019 119.862 126.124 119.679 126.265 119.525C126.405 119.371 126.578 119.25 126.77 119.171C126.963 119.091 127.171 119.055 127.379 119.065C128.336 119.065 128.857 119.613 128.857 120.623V123.924C128.875 124.289 128.781 124.651 128.587 124.96C128.653 125.086 128.772 125.106 128.95 125.099H129.102V126.01H128.844C128.661 126.029 128.478 125.979 128.329 125.871C128.18 125.762 128.077 125.603 128.039 125.423ZM127.9 124.016V120.583C127.9 120.134 127.702 119.963 127.392 119.969C127.081 119.976 126.89 120.154 126.89 120.629V124.03C126.89 124.478 127.088 124.644 127.392 124.644C127.695 124.644 127.9 124.465 127.9 124.03V124.016Z" fill="#263238"/>
<path d="M129.511 124.743C129.503 124.32 129.586 123.901 129.755 123.514C129.923 123.126 130.173 122.78 130.488 122.498C131.228 121.692 131.439 121.177 131.439 120.616C131.439 120.055 131.247 119.897 130.937 119.903C130.627 119.91 130.429 120.088 130.429 120.563V121.224H129.511V120.61C129.511 119.599 130.006 119.012 130.964 118.999C131.921 118.985 132.416 119.547 132.416 120.557C132.416 121.309 132.112 121.983 131.208 122.973C130.627 123.633 130.475 123.93 130.475 124.366V124.505H132.324V125.409L129.511 125.442V124.743Z" fill="#263238"/>
<path d="M169.388 124.934C169.178 125.017 168.954 125.06 168.728 125.059C167.771 125.059 167.249 124.472 167.249 123.415V119.943C167.249 118.886 167.771 118.272 168.728 118.253C169.685 118.233 170.207 118.834 170.207 119.89V123.369C170.221 123.752 170.125 124.13 169.929 124.459C170.002 124.591 170.114 124.61 170.293 124.604H170.444V125.548H170.187C170.001 125.564 169.816 125.51 169.668 125.396C169.52 125.283 169.42 125.118 169.388 124.934ZM169.243 123.455V119.844C169.243 119.368 169.051 119.184 168.741 119.184C168.431 119.184 168.239 119.375 168.239 119.844V123.455C168.239 123.924 168.431 124.115 168.741 124.115C169.051 124.115 169.216 123.924 169.216 123.455H169.243Z" fill="#263238"/>
<path d="M170.807 123.369V122.828H171.725V123.415C171.725 123.884 171.917 124.076 172.227 124.076C172.537 124.076 172.735 123.904 172.735 123.316V122.775C172.735 122.161 172.537 121.937 172.075 121.943H171.752V120.992H172.102C172.465 120.992 172.689 120.814 172.689 120.279V119.798C172.689 119.322 172.484 119.137 172.201 119.137C171.917 119.137 171.732 119.329 171.732 119.764V120.2H170.814V119.85C170.814 118.787 171.309 118.187 172.234 118.173C173.158 118.16 173.66 118.721 173.66 119.784V120.068C173.66 120.781 173.448 121.224 172.999 121.422C173.521 121.62 173.712 122.082 173.712 122.775V123.369C173.712 124.432 173.217 125.02 172.26 125.026C171.303 125.033 170.807 124.445 170.807 123.369Z" fill="#263238"/>
<path d="M104.595 87.4073C104.595 87.4073 94.7639 78.9632 101.293 73.3844C101.293 73.3844 104.443 63.4811 114.788 64.8742C125.134 66.2672 119.951 60.4111 119.951 60.4111C119.951 60.4111 125.814 63.4811 123.12 65.8513C123.93 65.8895 124.734 65.7008 125.442 65.3066C126.15 64.9123 126.734 64.3281 127.128 63.6198C127.128 63.6198 128.93 66.8284 125.563 68.2413C125.563 68.2413 129.967 69.357 128.791 71.8725C128.791 71.8725 125.662 70.2087 124.83 76.494C123.998 82.7792 114.042 81.8615 114.042 81.8615L104.595 87.4073Z" fill="#263238" stroke="#263238" stroke-linecap="round" stroke-linejoin="round"/>
<path d="M105.222 89.5002C105.222 89.1767 102.885 96.3004 107.328 95.6996C109.434 95.4157 106.437 89.5002 106.437 89.5002H105.222Z" fill="#263238" stroke="#263238" stroke-linecap="round" stroke-linejoin="round"/>
<path d="M126.897 70.2483C126.897 70.2483 124.256 69.8258 123.734 72.8892" stroke="#7F7F7F" stroke-linecap="round" stroke-linejoin="round"/>
<path d="M120.644 69.5155C119.601 70.8755 119.951 72.8958 119.951 72.8958" stroke="#7F7F7F" stroke-linecap="round" stroke-linejoin="round"/>
<path d="M126.151 65.8513C125.184 67.1725 123.781 68.1082 122.189 68.4922" stroke="#7F7F7F" stroke-linecap="round" stroke-linejoin="round"/>
<path d="M114.022 69.3768C114.022 69.3768 118.261 68.5384 117.7 72.8958" stroke="#7F7F7F" stroke-linecap="round" stroke-linejoin="round"/>
<path d="M134.806 174.708C134.806 174.708 138.325 193.075 134.806 211.072C131.287 229.07 129.115 286.865 129.115 286.865H107.216V171.836L133.703 170.905L134.806 174.708Z" fill="#999999"/>
<path opacity="0.2" d="M121.793 199.353C121.793 199.353 120.843 205.705 125.589 204.1C130.336 202.496 133.631 203.051 129.67 206.642C125.708 210.234 120.215 215.674 119.337 235.348C118.459 255.023 117.099 286.845 117.099 286.845H107.559L105.578 213.773L114.247 201.011L118.281 199.334L121.793 199.353Z" fill="black"/>
<path d="M134.806 174.708C134.806 174.708 138.325 193.075 134.806 211.072C131.287 229.07 129.115 286.865 129.115 286.865H107.216V171.836L133.703 170.905L134.806 174.708Z" stroke="#263238" stroke-linecap="round" stroke-linejoin="round"/>
<path d="M132.165 204.166C132.165 204.166 127.26 203.123 121.793 209.191" stroke="#263238" stroke-linecap="round" stroke-linejoin="round"/>
<path d="M124.909 176.774C124.909 176.774 124.685 197.241 122.044 205.005C119.403 212.769 115.442 249.2 115.884 286.872H93.2455C93.2455 286.872 91.9251 218.823 91.0338 208.775C90.1425 198.726 85.5342 200.41 91.9119 171.842H125.84L124.909 176.774Z" fill="#999999" stroke="#263238" stroke-linecap="round" stroke-linejoin="round"/>
<path d="M120.618 181.158C122.361 181.039 123.952 180.9 125.398 180.755L125.589 184.129C124.084 184.281 122.42 184.426 120.618 184.545V181.158Z" fill="#263238"/>
<path d="M127.861 180.478C130.594 180.154 132.574 179.818 133.644 179.626L134.1 182.96C132.858 183.185 130.732 183.535 127.861 183.878V180.478Z" fill="#263238"/>
<path d="M90.7037 183.805L91.2186 180.504C94.929 180.92 98.481 181.197 101.868 181.356L101.643 184.703C98.1905 184.518 94.5329 184.241 90.7037 183.805Z" fill="#263238"/>
<path d="M104.443 181.468C109.606 181.633 114.267 181.541 118.307 181.323V184.703C115.746 184.835 112.933 184.921 109.909 184.921C108.127 184.921 106.265 184.888 104.337 184.822L104.443 181.468Z" fill="#263238"/>
<path d="M167.361 145.381L172.933 142.02C172.933 142.02 175.277 135.88 178.215 134.21C181.153 132.54 184.078 131.001 184.817 131.417C185.557 131.833 184.672 133.233 182.764 134.626C181.576 135.497 185.035 134.019 189.472 131.985C192.113 130.757 195.163 129.047 195.632 129.787C197.355 132.474 188.541 135.894 188.541 135.894C188.541 135.894 191.565 135.748 190.39 137.98C190.39 137.98 190.832 140.073 189.802 140.773L188.633 142.199C188.153 143.607 187.225 144.819 185.992 145.652C183.334 147.132 180.375 147.992 177.337 148.167L170.009 153.297L167.361 145.381Z" fill="white" stroke="#263238" stroke-linecap="round" stroke-linejoin="round"/>
<path d="M186.719 136.164C186.719 136.164 180.486 137.419 180.816 138.805C181.147 140.192 183.081 139.214 183.081 139.214C183.081 139.214 181.021 139.914 181.246 140.68C181.47 141.446 182.929 141.433 182.929 141.433C182.929 141.433 181.021 141.869 181.246 142.753C181.47 143.638 182.738 143.942 183.787 143.803C184.837 143.664 185.643 143.308 185.94 143.836C186.237 144.364 183.074 143.519 181.246 144.813" stroke="#263238" stroke-linecap="round" stroke-linejoin="round"/>
<path d="M181.761 135.115C181.663 135.889 181.339 136.617 180.83 137.207C180.07 137.907 180.731 140.277 177.944 142.859" stroke="#263238" stroke-linecap="round" stroke-linejoin="round"/>
<path d="M188.092 138.567L184.626 138.983" stroke="#263238" stroke-linecap="round" stroke-linejoin="round"/>
<path d="M187.815 141.182L184.626 141.446" stroke="#263238" stroke-linecap="round" stroke-linejoin="round"/>
<path d="M154.164 148.926C159.003 147.606 164.852 143.994 167.665 142.126C167.827 142.014 168.015 141.946 168.21 141.926C168.406 141.906 168.604 141.936 168.785 142.013C168.966 142.09 169.125 142.212 169.246 142.367C169.368 142.521 169.448 142.704 169.48 142.898C169.797 145.453 170.801 149.804 174.181 150.986C179.021 152.689 174.399 155.317 171.322 156.202C168.246 157.086 146.234 167.756 139.632 166.296C133.03 164.837 130.832 163.781 127.748 157.403C124.665 151.026 126.203 120.26 126.203 120.26L135.446 117.956C135.446 117.956 137.863 120.121 139.038 134.626C140.213 149.131 142.148 150.946 142.148 150.946C142.148 150.946 148.017 146.609 146.479 150.801C146.465 150.801 152.5 149.375 154.164 148.926Z" fill="#7E8AF5" stroke="#263238" stroke-linecap="round" stroke-linejoin="round"/>
<path d="M143.382 153.29C143.382 153.29 140.999 161.252 139.203 160.645C137.407 160.038 137.883 157.866 140.854 153.29" stroke="#263238" stroke-linecap="round" stroke-linejoin="round"/>
<path d="M135.466 117.956C131.181 113.882 124.903 109.795 111.93 108.957C98.9564 108.118 80.8995 111.261 80.2393 116.285C79.579 121.309 87.0593 148.24 87.0593 172.364C87.0593 175.922 87.5016 179.897 94.9819 179.897C102.462 179.897 136.78 182.406 137.236 174.245C137.691 166.085 135.479 157.925 136.14 146.206C136.8 134.487 138.767 121.098 135.466 117.956Z" fill="#7E8AF5" stroke="#263238" stroke-linecap="round" stroke-linejoin="round"/>
<path d="M83.8836 112.806C83.8836 112.806 78.4962 114.41 77.3211 122.504C76.1459 130.599 71.016 148.867 72.924 149.289C74.832 149.712 68.3751 152.914 70.7189 157.661C73.0627 162.408 83.6261 177.745 89.7859 176.074C95.9457 174.404 95.6486 164.91 93.7472 163.24C91.8458 161.569 85.3691 158.064 85.3691 158.064C85.3691 158.064 87.2705 156.948 84.9267 154.855C82.583 152.762 86.6235 155.911 87.8581 148.854C89.3238 140.489 94.4602 128.486 91.377 121.237" fill="#7E8AF5"/>
<path d="M83.8836 112.806C83.8836 112.806 78.4962 114.41 77.3211 122.504C76.1459 130.599 71.016 148.867 72.924 149.289C74.832 149.712 68.3751 152.914 70.7189 157.661C73.0627 162.408 83.6261 177.745 89.7859 176.074C95.9457 174.404 95.6486 164.91 93.7472 163.24C91.8458 161.569 85.3691 158.064 85.3691 158.064C85.3691 158.064 87.2705 156.948 84.9267 154.855C82.583 152.762 86.6235 155.911 87.8581 148.854C89.3238 140.489 94.4602 128.486 91.377 121.237" stroke="#263238" stroke-linecap="round" stroke-linejoin="round"/>
<path d="M84.2137 150.531C84.2137 150.531 75.8554 148.55 73.6503 151.924C71.4452 155.297 77.123 151.23 82.5698 152.623" stroke="#263238" stroke-linecap="round" stroke-linejoin="round"/>
<path d="M96.3089 166.435C94.9885 165.491 91.8393 163.854 89.786 165.775C87.7327 167.696 82.8207 168.838 83.1112 170.304C83.4017 171.77 85.2371 172.192 88.5382 170.588C91.8393 168.984 89.1126 171.004 89.7068 174.212C90.301 177.421 90.7829 180.339 93.3644 179.791C93.3644 179.791 93.5954 181.184 95.9458 180.557C95.9458 180.557 97.702 181.996 100.488 180.722C100.488 180.722 102.033 182.3 104.304 179.58C106.575 176.86 105.176 176.186 105.176 176.186C105.176 176.186 104.152 173.037 101.875 176.186C101.875 176.186 102.271 172.291 99.9731 169.848C98.8342 168.625 97.6098 167.484 96.3089 166.435Z" fill="white" stroke="#263238" stroke-linecap="round" stroke-linejoin="round"/>
<path d="M94.3546 178.827C94.3546 178.827 98.0717 176.457 97.2662 175.064C96.4607 173.671 93.4501 176.596 93.4501 176.596C93.4501 176.596 93.8925 175.843 93.0144 174.688" stroke="#263238" stroke-linecap="round" stroke-linejoin="round"/>
<path d="M97.0417 179.613C97.0417 179.613 102.66 177.863 101.373 176.186C100.231 174.708 97.8141 176.404 97.8141 176.404" stroke="#263238" stroke-linecap="round" stroke-linejoin="round"/>
<path d="M104.515 176.774C104.515 176.774 103.921 178.451 101.287 180.075" stroke="#263238" stroke-linecap="round" stroke-linejoin="round"/>
<path d="M95.1931 171.836C95.9882 173.061 97.0958 174.053 98.4018 174.708" stroke="#263238" stroke-linecap="round" stroke-linejoin="round"/>
<path d="M84.2137 157.403C84.2137 157.403 79.4866 155.099 75.8554 156.875" stroke="#263238" stroke-linecap="round" stroke-linejoin="round"/>
<path d="M119.958 113.248L116.181 111.888L111.93 113.248C111.93 113.248 114.788 117.54 115.944 117.744C115.944 117.744 120.083 149.884 121.39 164.89C122.698 179.897 122.268 181.283 122.268 181.283L127.986 185.964L132.165 180.062C132.165 180.062 129.967 156.459 127.108 142.43C125.336 133.852 122.605 125.501 118.967 117.533C118.967 117.533 120.651 115.374 119.958 113.248Z" fill="#7E8AF5"/>
<path opacity="0.3" d="M119.958 113.248L116.181 111.888L111.93 113.248C111.93 113.248 114.788 117.54 115.944 117.744C115.944 117.744 120.083 149.884 121.39 164.89C122.698 179.897 122.268 181.283 122.268 181.283L127.986 185.964L132.165 180.062C132.165 180.062 129.967 156.459 127.108 142.43C125.336 133.852 122.605 125.501 118.967 117.533C118.967 117.533 120.651 115.374 119.958 113.248Z" fill="black"/>
<path d="M119.958 113.248L116.181 111.888L111.93 113.248C111.93 113.248 114.788 117.54 115.944 117.744C115.944 117.744 120.083 149.884 121.39 164.89C122.698 179.897 122.268 181.283 122.268 181.283L127.986 185.964L132.165 180.062C132.165 180.062 129.967 156.459 127.108 142.43C125.336 133.852 122.605 125.501 118.967 117.533C118.967 117.533 120.651 115.374 119.958 113.248Z" stroke="#263238" stroke-linecap="round" stroke-linejoin="round"/>
<path d="M120.407 102.242C120.407 102.242 119.661 107.069 121.516 110.376C121.516 110.376 117.502 112.132 115.779 112.357C114.055 112.581 105.215 107.313 105.215 107.313C106.37 101.767 106.783 96.0923 106.443 90.4377C105.875 81.1287 116.432 96.2542 116.432 96.2542L121.509 100.876L120.407 102.242Z" fill="white"/>
<path d="M122.044 102.685C122.044 102.685 122.15 105.821 117.7 105.715C113.25 105.609 108.827 98.9941 108.081 97.3436C107.334 95.693 106.45 87.9289 106.45 87.9289L117.673 91.0847L123.12 102.242L122.044 102.685Z" fill="#263238" stroke="#263238" stroke-linecap="round" stroke-linejoin="round"/>
<path d="M120.407 102.242C120.407 102.242 119.661 107.069 121.516 110.376C121.516 110.376 117.502 112.132 115.779 112.357C114.055 112.581 105.215 107.313 105.215 107.313C106.37 101.767 106.783 96.0923 106.443 90.4377C105.875 81.1287 116.432 96.2542 116.432 96.2542L121.509 100.876L120.407 102.242Z" stroke="#263238" stroke-linecap="round" stroke-linejoin="round"/>
<path d="M120.875 107.98C120.875 107.98 118.677 111.749 116.181 111.888C113.686 112.027 105.327 103.966 103.571 105.194C102.477 106.02 101.678 107.178 101.293 108.495L108.767 117.348C108.767 117.348 114.24 112.674 116.439 112.812C118.637 112.951 123.364 117.348 123.364 117.348V110.937C123.364 110.937 121.912 106.521 120.875 107.98Z" fill="#7E8AF5" stroke="#263238" stroke-linecap="round" stroke-linejoin="round"/>
<path d="M124.064 74.1304C124.064 74.1304 127.141 83.1556 126.534 85.4531C126.534 85.4531 129.399 102.559 122.572 103.939C117.185 105.009 111.857 99.8326 109.824 97.5615C109.27 96.9403 108.846 96.2154 108.576 95.429L107.255 91.5601C107.255 91.5601 104.568 91.7582 102.931 88.1534C101.294 84.5486 104.628 81.0495 107.209 86.5095C107.209 86.5095 109.229 80.9901 109.077 78.7717C108.926 76.5534 111.837 77.0948 112.438 74.9029C112.438 74.8897 119.344 76.0054 124.064 74.1304Z" fill="white"/>
<path d="M124.064 74.1304C124.064 74.1304 127.141 83.1556 126.534 85.4531C126.534 85.4531 129.399 102.559 122.572 103.939C117.185 105.009 111.857 99.8326 109.824 97.5615C109.27 96.9403 108.846 96.2154 108.576 95.429L107.255 91.5601C107.255 91.5601 104.568 91.7582 102.931 88.1534C101.294 84.5486 104.628 81.0495 107.209 86.5095C107.209 86.5095 109.229 80.9901 109.077 78.7717C108.926 76.5534 111.837 77.0948 112.438 74.9029C112.438 74.8897 119.344 76.0054 124.064 74.1304Z" stroke="#263238" stroke-linecap="round" stroke-linejoin="round"/>
<path d="M123.734 87.0112L127.379 91.5997C127.464 91.7093 127.521 91.8379 127.546 91.9745C127.571 92.1111 127.563 92.2518 127.522 92.3845C127.482 92.5173 127.409 92.6383 127.312 92.7372C127.215 92.8362 127.095 92.9102 126.963 92.9531L124.375 93.8642" fill="white"/>
<path d="M123.734 87.0112L127.379 91.5997C127.464 91.7093 127.521 91.8379 127.546 91.9745C127.571 92.1111 127.563 92.2518 127.522 92.3845C127.482 92.5173 127.409 92.6383 127.312 92.7372C127.215 92.8362 127.095 92.9102 126.963 92.9531L124.375 93.8642" stroke="#263238" stroke-linecap="round" stroke-linejoin="round"/>
<path d="M118.433 95.6996C118.433 95.6996 119.562 98.0236 123.338 95.9703" stroke="#263238" stroke-linecap="round" stroke-linejoin="round"/>
<path d="M123.114 86.8264C123.226 89.1107 122.103 91.0121 120.611 91.0782C119.119 91.1442 117.819 89.3484 117.706 87.0707C117.594 84.7929 118.717 84.1327 120.209 84.0667C121.701 84.0007 123.001 84.542 123.114 86.8264Z" stroke="#263238" stroke-linecap="round" stroke-linejoin="round"/>
<path d="M129.986 86.3114C130.099 88.5957 129.201 90.4905 128.006 90.5434C126.811 90.5962 125.708 88.7938 125.596 86.5094C125.484 84.2251 126.395 83.5847 127.616 83.5253C128.838 83.4659 129.874 84.027 129.986 86.3114Z" fill="white" stroke="#263238" stroke-linecap="round" stroke-linejoin="round"/>
<path d="M117.72 83.5055C117.72 83.5055 119.344 81.1287 122.222 82.9443" stroke="#263238" stroke-linecap="round" stroke-linejoin="round"/>
<path d="M125.642 82.9376C126.154 82.3502 126.854 81.9583 127.623 81.8285" stroke="#263238" stroke-linecap="round" stroke-linejoin="round"/>
<path d="M117.72 87.0574C116.767 87.3239 115.789 87.492 114.801 87.5592C112.563 87.3413 106.463 84.377 106.463 84.377" stroke="#263238" stroke-linecap="round" stroke-linejoin="round"/>
<path d="M125.563 86.1331L123.226 86.5358" stroke="#263238" stroke-linecap="round" stroke-linejoin="round"/>
<path d="M121.8 87.1036C121.734 87.81 121.311 88.3448 120.849 88.3052C120.387 88.2656 120.077 87.645 120.136 86.9848C120.196 86.3245 120.631 85.7436 121.087 85.7832C121.542 85.8228 121.866 86.3972 121.8 87.1036Z" fill="#263238"/>
<path d="M127.491 86.3312C127.425 86.9914 127.108 87.5526 126.778 87.5196C126.448 87.4866 126.236 86.9188 126.302 86.2322C126.368 85.5456 126.679 85.0174 127.009 85.0438C127.339 85.0702 127.55 85.6512 127.491 86.3312Z" fill="#263238"/>
<path d="M101.406 165.854C102.561 162.87 110.319 163.365 110.319 163.365" stroke="#263238" stroke-linecap="round" stroke-linejoin="round"/>
<path d="M119.912 167.359C111.692 169.34 102.746 170.759 101.564 167.967" stroke="#263238" stroke-linecap="round" stroke-linejoin="round"/>
<path d="M134.1 163.365C134.1 163.365 133.241 163.642 131.809 164.085" stroke="#263238" stroke-linecap="round" stroke-linejoin="round"/>
<path d="M302.976 286.865H12.9963V248.256C12.9963 248.256 69.1872 226.468 141.738 226.468C230.187 226.501 302.976 286.865 302.976 286.865Z" fill="#7E8AF5" stroke="#263238" stroke-linecap="round" stroke-linejoin="round"/>
<path opacity="0.2" d="M183.497 237.27L149.265 232.655L114.445 238.537L148.677 243.159L183.497 237.27Z" fill="black"/>
<path d="M179.305 236.946L147.495 232.655L115.138 238.121L146.947 242.413L179.305 236.946Z" fill="white" stroke="#263238" stroke-linecap="round" stroke-linejoin="round"/>
<path d="M183.497 235.659L151.688 231.367L119.331 236.834L151.14 241.125L183.497 235.659Z" fill="white" stroke="#263238" stroke-linecap="round" stroke-linejoin="round"/>
<path opacity="0.2" d="M118.142 259.42C124.177 259.42 129.069 258.421 129.069 257.188C129.069 255.956 124.177 254.957 118.142 254.957C112.108 254.957 107.216 255.956 107.216 257.188C107.216 258.421 112.108 259.42 118.142 259.42Z" fill="black"/>
<path d="M124.46 256.581C124.46 257.201 120.935 257.703 116.578 257.703C112.22 257.703 108.701 257.201 108.701 256.581V241.792C108.701 241.171 112.227 240.67 116.578 240.67C120.928 240.67 124.46 241.171 124.46 241.792V256.581Z" fill="white" stroke="#263238" stroke-linecap="round" stroke-linejoin="round"/>
<path d="M124.46 241.792C124.46 242.413 120.935 242.914 116.578 242.914C112.22 242.914 108.701 242.413 108.701 241.792C108.701 241.171 112.227 240.67 116.578 240.67C120.928 240.67 124.46 241.171 124.46 241.792Z" fill="white" stroke="#263238" stroke-linecap="round" stroke-linejoin="round"/>
<path d="M123.51 255.181C123.301 255.185 123.098 255.114 122.938 254.981C122.778 254.847 122.672 254.661 122.638 254.455C122.624 254.343 122.631 254.229 122.662 254.12C122.692 254.011 122.743 253.909 122.814 253.82C122.884 253.732 122.971 253.658 123.07 253.604C123.169 253.549 123.278 253.516 123.391 253.504C123.589 253.504 128.369 252.765 128.369 248.46C128.369 247.377 128.078 246.645 127.511 246.275C126.448 245.615 124.46 246.13 123.846 246.374C123.631 246.459 123.392 246.459 123.177 246.373C122.962 246.287 122.788 246.122 122.691 245.912C122.649 245.808 122.628 245.697 122.629 245.586C122.63 245.474 122.654 245.364 122.699 245.261C122.744 245.159 122.809 245.067 122.891 244.99C122.972 244.914 123.068 244.854 123.173 244.816C123.51 244.684 126.474 243.588 128.494 244.882C129.584 245.582 130.138 246.783 130.138 248.46C130.138 253.082 125.886 254.871 123.635 255.175L123.51 255.181Z" fill="white" stroke="#263238" stroke-linecap="round" stroke-linejoin="round"/>
<path d="M134.832 245.555C134.311 246.057 133.954 246.532 134.047 246.625C134.139 246.717 134.641 246.374 135.169 245.872C135.697 245.37 136.047 244.895 135.955 244.809C135.862 244.723 135.361 245.06 134.832 245.555Z" fill="#263238" stroke="#263238" stroke-linecap="round" stroke-linejoin="round"/>
<path d="M137.671 241.02C135.512 243.073 134.271 245.219 134.898 245.813C135.526 246.407 137.79 245.232 139.949 243.172L153.86 229.935C156.019 227.881 157.26 225.729 156.633 225.135C156.006 224.541 153.748 225.716 151.589 227.776L137.671 241.02Z" fill="#7E8AF5" stroke="#263238" stroke-linecap="round" stroke-linejoin="round"/>
<path d="M151.82 231.882L151.245 232.43C150.843 232.107 150.447 231.77 150.064 231.394C149.681 231.017 149.311 230.648 148.974 230.271L149.549 229.723C149.885 230.1 150.248 230.476 150.638 230.846C151.028 231.215 151.424 231.559 151.82 231.882Z" fill="#263238" stroke="#263238" stroke-linecap="round" stroke-linejoin="round"/>
<path d="M154.923 225.353C154.923 225.353 153.959 224.758 151.754 226.383C149.549 228.007 147.495 230.813 146.472 230.72" stroke="#263238" stroke-linecap="round" stroke-linejoin="round"/>
<path d="M128.131 252.686C128.131 252.686 129.736 248.81 129.736 246.829C129.736 244.849 133.908 238.174 136.998 236.999C140.088 235.824 150.493 230.918 151.252 232.906C152.011 234.893 147.33 237.355 146.347 237.818C145.252 238.504 144.223 239.289 143.27 240.161C143.27 240.161 148.03 239.211 148.552 237.705C149.073 236.2 150.532 234.193 151.325 235.48C152.117 236.768 151.754 240.042 150.519 242.558V244.255C150.519 244.255 151.873 246.235 150.4 247.879L149.265 249.048C149.265 249.048 151.245 251.028 148.552 252.679C148.552 252.679 149.786 254.435 147.568 256.185C147.568 256.185 142.894 258.41 139.942 259.109C136.991 259.809 134.41 264.028 134.41 264.028L128.131 252.686Z" fill="white" stroke="#263238" stroke-linecap="round" stroke-linejoin="round"/>
<path d="M37.7279 185.575L45.4392 168.363L40.4744 153.944L39.9793 137.405L53.5665 129.786L65.5626 127.766L70.4548 130.599L72.4883 135.312C72.4883 135.312 78.5886 147.645 77.6445 150.015C76.7004 152.386 76.0006 154.637 76.0006 154.637C76.0006 154.637 78.8791 161.041 80.5825 163.075C82.2858 165.108 77.0041 163.873 76.3835 167.538C75.7629 171.202 76.5024 180.927 71.9733 181.369C67.4442 181.811 64.7109 180.405 64.295 184.228C63.879 188.05 59.2311 197.756 59.2311 197.756L37.7279 185.575Z" fill="white" stroke="#263238" stroke-linecap="round" stroke-linejoin="round"/>
<path d="M75.5583 116.767C74.898 114.549 68.5402 117.632 67.88 122.385C67.88 122.385 67.0679 115.123 64.9684 114.43C63.133 113.829 60.5978 117.124 61.5155 121.032C61.5155 121.032 54.6558 117.427 52.4441 118.266C50.8068 118.886 50.2324 122.082 53.7646 124.868C53.7646 124.868 32.3208 120.101 33.5752 138.779C33.5752 138.779 21.7837 147.566 43.5972 172.529C43.5972 172.529 48.7733 171.38 50.1994 170.548C51.0247 170.066 57.9239 164.606 57.9239 164.606C55.9433 163.9 52.4969 161.88 51.5594 159.443C50.3711 156.36 51.9622 152.676 54.8605 152.181C56.5969 151.884 57.5806 152.656 58.8218 154.043C58.8218 154.043 55.9631 150.431 56.1413 149.032C56.3658 147.282 60.6836 145.427 61.0005 143.691C61.1458 142.872 59.2245 141.261 59.7329 140.581C62.3209 137.128 74.6868 141.129 73.4192 129.681C72.1516 118.233 76.4826 119.877 75.5583 116.767Z" fill="#263238" stroke="#263238" stroke-linecap="round" stroke-linejoin="round"/>
<path d="M75.1027 153.739C75.1027 154.644 74.9245 155.383 74.634 155.39C74.3435 155.396 74.0992 154.67 74.0728 153.766C74.0464 152.861 74.251 152.122 74.5349 152.115C74.8188 152.108 75.0763 152.848 75.1027 153.739Z" fill="#263238"/>
<path d="M72.9373 150.491C72.9373 150.491 73.6899 148.173 75.2018 148.022" stroke="#263238" stroke-linecap="round" stroke-linejoin="round"/>
<path d="M56.7355 132.658C64.1431 133.246 58.0164 122.372 58.0164 122.372" stroke="#7F7F7F" stroke-linecap="round" stroke-linejoin="round"/>
<path d="M37.9458 137.749C37.9458 137.749 43.7755 129.272 54.5106 132.236" stroke="#7F7F7F" stroke-linecap="round" stroke-linejoin="round"/>
<path d="M66.883 127.799C67.6092 131.562 66.883 136.593 58.2342 137.201" stroke="#7F7F7F" stroke-linecap="round" stroke-linejoin="round"/>
<path d="M65.4042 123.62C65.7041 124.191 65.9644 124.783 66.1832 125.389" stroke="#7F7F7F" stroke-linecap="round" stroke-linejoin="round"/>
<path d="M73.406 286.865C73.406 286.865 80.0873 218.057 72.1648 205.071C64.2422 192.084 40.5603 176.847 32.0897 183.449C2.69694 206.464 2.5979 226.118 0.729492 286.852L73.406 286.865Z" fill="#263238" stroke="#263238" stroke-linecap="round" stroke-linejoin="round"/>
<path d="M66.9557 202.595C66.9557 202.595 76.2978 205.051 81.4805 219.1C86.2538 231.994 94.929 248.995 100.719 257.465C101.177 258.115 101.809 258.622 102.543 258.928C103.276 259.234 104.081 259.327 104.865 259.195C107.414 258.793 112.273 258.482 116.927 255.954C121.239 253.61 125.048 251.042 129.841 251.741C134.634 252.441 137.638 256.898 136.866 263.335C136.126 269.475 108.523 285.445 92.2222 285.445C78.9254 285.445 66.7709 248.949 62.7105 238.068C58.6502 227.188 54.4116 203.315 66.9557 202.595Z" fill="#263238" stroke="#263238" stroke-linecap="round" stroke-linejoin="round"/>
<path d="M62.037 204.061C63.2528 203.162 64.7118 202.651 66.2228 202.595" stroke="#7F7F7F" stroke-linecap="round" stroke-linejoin="round"/>
<path d="M58.7822 209.197C59.0367 208.326 59.3842 207.485 59.8187 206.688" stroke="#7F7F7F" stroke-linecap="round" stroke-linejoin="round"/>
<path d="M72.4355 261.09C68.4876 253.632 64.9952 245.942 61.9777 238.062C59.4491 231.281 56.8478 219.464 58.2805 211.349" stroke="#7F7F7F" stroke-linecap="round" stroke-linejoin="round"/>
<path d="M66.6454 200.159C66.6454 200.159 70.336 194.778 66.6454 190.328C62.9548 185.878 46.1127 176.266 39.8143 178.636C39.3392 178.792 38.9007 179.042 38.525 179.372C38.1493 179.702 37.8443 180.105 37.6284 180.556C37.4125 181.006 37.2901 181.496 37.2687 181.996C37.2472 182.496 37.3271 182.994 37.5035 183.462C37.5035 183.462 50.1665 184.017 66.6454 200.159Z" fill="#263238" stroke="#263238" stroke-linecap="round" stroke-linejoin="round"/>
<path d="M64.5987 198.634C65.1203 199.122 65.6485 199.624 66.1766 200.146" stroke="#7F7F7F" stroke-linecap="round" stroke-linejoin="round"/>
<path d="M41.8279 184.452C46.2051 185.773 53.2826 188.882 61.7004 196.059" stroke="#7F7F7F" stroke-linecap="round" stroke-linejoin="round"/>
<path d="M37.0546 183.449C37.7967 183.505 38.5337 183.615 39.2597 183.779" stroke="#7F7F7F" stroke-linecap="round" stroke-linejoin="round"/>
<path d="M104.397 268.24C104.397 268.24 104.397 264.385 102.37 263.328C100.343 262.272 102 268.24 99.9731 273.159" stroke="#7F7F7F" stroke-linecap="round" stroke-linejoin="round"/>
<path d="M82.9989 226.132C82.9989 226.132 84.6627 226.303 86.135 242.446" stroke="#7F7F7F" stroke-linecap="round" stroke-linejoin="round"/>
<path d="M57.8909 164.567L59.3038 164.831C59.3505 166.817 59.821 168.771 60.6837 170.561C62.0041 173.017 63.8791 173.486 68.2827 178.266C72.3893 182.716 74.2775 179.818 74.5152 179.402C74.2932 179.926 73.9394 180.384 73.4882 180.731C73.0371 181.078 72.5039 181.302 71.9403 181.382C67.4179 181.825 64.678 180.418 64.262 184.241C63.5358 181.283 61.1722 177.725 59.3038 173.275C58.1686 170.52 57.6851 167.539 57.8909 164.567Z" fill="#263238" stroke="#263238" stroke-linecap="round" stroke-linejoin="round"/>
<path opacity="0.3" d="M59.8187 161.787C60.3403 158.744 57.1778 152.544 58.835 153.983C60.4921 155.423 62.651 160.731 65.2325 162.751C67.8139 164.771 67.5696 169.505 71.2602 167.518C72.8687 166.622 74.7624 166.385 76.542 166.858C76.4583 167.07 76.3985 167.292 76.3637 167.518C75.7497 171.202 76.4825 180.907 71.9535 181.349C70.6486 181.446 69.3396 181.475 68.0318 181.435C65.4702 178.755 61.8126 174.774 60.4129 172.463C58.1484 168.759 59.3037 164.831 59.8187 161.787Z" fill="#263238"/>
<path d="M75.5253 170.588C75.5253 170.588 73.2079 169.578 73.2541 168.125" stroke="#263238" stroke-linecap="round" stroke-linejoin="round"/>
</svg>
