<svg width="689" height="608" viewBox="0 0 689 608" fill="none" xmlns="http://www.w3.org/2000/svg">
<path d="M292.233 162.907C313.853 140.894 313.642 104.364 285.56 91.5793C273.963 86.2998 261.717 82.3973 249.067 79.9992C217.975 74.1054 185.834 77.5636 156.709 89.9365C127.583 102.309 102.78 123.041 85.4365 149.511C68.0933 175.98 58.9885 206.997 59.2736 238.641C59.5587 270.285 69.2208 301.133 87.0382 327.286C104.856 353.438 130.028 373.72 159.372 385.566C188.716 397.412 220.914 400.291 251.894 393.838C264.499 391.212 276.673 387.089 288.173 381.602C316.02 368.314 315.573 331.786 293.559 310.165L273.982 290.938C262.781 279.936 244.48 281.247 229.109 284.448C219.764 286.395 210.052 285.526 201.2 281.953C192.349 278.38 184.756 272.262 179.381 264.373C174.007 256.485 171.092 247.18 171.006 237.634C170.92 228.089 173.667 218.733 178.898 210.749C184.13 202.765 191.611 196.511 200.397 192.779C209.182 189.047 218.877 188.004 228.256 189.781C243.682 192.706 262.004 193.686 273.005 182.484L292.233 162.907Z" fill="url(#paint0_linear_21_2)" fill-opacity="0.57"/>
<g clip-path="url(#clip0_21_2)">
<g clip-path="url(#clip1_21_2)">
<path d="M426.684 -10.2976L287.562 230.669C286.531 232.441 285.861 234.4 285.588 236.432C285.316 238.464 285.448 240.53 285.976 242.512C286.504 244.493 287.418 246.351 288.665 247.979C289.912 249.607 291.469 250.972 293.245 251.998L331.341 273.993C334.919 276.059 339.172 276.619 343.162 275.55C347.153 274.481 350.556 271.871 352.621 268.293L380.58 219.866" stroke="#7C80BD" stroke-width="8" stroke-linecap="round" stroke-linejoin="round"/>
<path d="M441.696 175.117L428.728 167.63C425.15 165.564 420.897 165.003 416.905 166.072C412.913 167.14 409.51 169.749 407.442 173.327L380.585 219.845L361.542 208.851C359.771 207.828 358.218 206.467 356.972 204.844C355.726 203.221 354.813 201.368 354.283 199.392C353.753 197.416 353.618 195.355 353.885 193.327C354.152 191.299 354.815 189.344 355.838 187.572L409.55 94.5406C411.616 90.963 415.018 88.3526 419.009 87.2837C423 86.2148 427.252 86.775 430.831 88.841L498.006 127.625" stroke="#7C80BD" stroke-width="8" stroke-linecap="round" stroke-linejoin="round"/>
<path d="M437.839 181.798C441.526 183.926 446.24 182.664 448.368 178.977C450.497 175.291 449.233 170.577 445.546 168.448C441.859 166.319 437.144 167.582 435.016 171.268C432.888 174.955 434.151 179.669 437.839 181.798Z" fill="white" stroke="#37388E" stroke-width="8" stroke-linecap="round" stroke-linejoin="round"/>
<path d="M492.402 133.289C496.089 135.417 500.803 134.155 502.932 130.468C505.06 126.782 503.796 122.068 500.109 119.939C496.422 117.811 491.708 119.073 489.579 122.76C487.451 126.446 488.715 131.16 492.402 133.289Z" fill="white" stroke="#37388E" stroke-width="8" stroke-linecap="round" stroke-linejoin="round"/>
<path d="M410.492 383.139L456.157 304.046C458.222 300.469 461.625 297.858 465.615 296.789C469.606 295.721 473.859 296.281 477.437 298.347L478.482 298.95C482.062 301.015 486.316 301.574 490.308 300.505C494.3 299.436 497.704 296.825 499.771 293.248L536.405 229.797" stroke="#7C80BD" stroke-width="8" stroke-linecap="round" stroke-linejoin="round"/>
<path d="M308.891 306.151L314.547 296.355C316.615 292.778 320.018 290.167 324.01 289.098C328.003 288.029 332.256 288.588 335.836 290.653L369.159 309.892C372.737 311.96 375.347 315.364 376.416 319.355C377.485 323.346 376.925 327.599 374.86 331.177L356.632 362.748C354.567 366.325 351.164 368.936 347.173 370.004C343.183 371.073 338.93 370.513 335.352 368.447L316.053 357.305M604.924 189.354L584.539 177.585C580.961 175.519 576.708 174.958 572.718 176.027C568.727 177.096 565.324 179.707 563.259 183.284L549.404 207.282L593.073 232.494C596.651 234.56 599.263 237.963 600.332 241.953C601.402 245.944 600.843 250.196 598.777 253.773L584.343 278.774M278.732 288.739L230.295 260.774C226.719 258.715 222.472 258.159 218.487 259.228C214.502 260.296 211.104 262.901 209.038 266.472L138.174 389.213C136.108 392.791 135.549 397.042 136.619 401.033C137.688 405.024 140.3 408.426 143.878 410.492L196.482 440.863M715.385 128.192L661.292 221.883L516.565 138.324L371.615 389.384M179.049 471.017L254.757 339.886C256.831 336.313 260.238 333.708 264.231 332.644C268.224 331.58 272.476 332.144 276.054 334.212L434.093 425.456C437.668 427.516 441.915 428.074 445.9 427.007C449.885 425.94 453.285 423.337 455.352 419.767L540.866 271.651C542.939 268.076 546.346 265.47 550.34 264.406C554.333 263.342 558.586 263.907 562.164 265.977L677.228 332.409C679.001 333.433 680.959 334.097 682.989 334.363C685.019 334.629 687.082 334.492 689.059 333.96C691.036 333.428 692.888 332.511 694.51 331.261C696.132 330.012 697.491 328.455 698.51 326.679L788.676 170.507M274.885 295.402C276.206 296.165 277.723 296.518 279.245 296.418C280.767 296.318 282.225 295.769 283.434 294.841C284.644 293.912 285.551 292.645 286.04 291.201C286.529 289.756 286.579 288.199 286.182 286.727C285.786 285.254 284.962 283.932 283.814 282.927C282.666 281.923 281.246 281.282 279.734 281.084C278.221 280.887 276.685 281.143 275.318 281.819C273.951 282.496 272.816 283.563 272.056 284.885C271.038 286.655 270.764 288.756 271.294 290.728C271.825 292.7 273.116 294.381 274.885 295.402ZM545.55 213.956C546.872 214.72 548.39 215.074 549.913 214.974C551.436 214.874 552.895 214.325 554.106 213.396C555.316 212.466 556.224 211.199 556.714 209.754C557.204 208.309 557.254 206.751 556.858 205.277C556.463 203.803 555.639 202.479 554.49 201.474C553.342 200.468 551.922 199.825 550.408 199.627C548.895 199.429 547.357 199.683 545.989 200.359C544.621 201.035 543.484 202.102 542.722 203.424C542.215 204.301 541.887 205.269 541.755 206.273C541.623 207.277 541.691 208.298 541.953 209.276C542.216 210.254 542.669 211.171 543.286 211.974C543.903 212.777 544.673 213.451 545.55 213.956Z" stroke="url(#paint1_linear_21_2)" stroke-width="8" stroke-linecap="round" stroke-linejoin="round"/>
<path d="M305.044 312.815C308.731 314.943 313.446 313.681 315.574 309.994C317.702 306.308 316.439 301.594 312.751 299.465C309.064 297.336 304.35 298.599 302.222 302.285C300.093 305.972 301.357 310.686 305.044 312.815Z" fill="white" stroke="#37388E" stroke-width="8" stroke-linecap="round" stroke-linejoin="round"/>
<path d="M532.548 236.478C536.235 238.606 540.949 237.344 543.077 233.657C545.206 229.971 543.942 225.257 540.255 223.128C536.568 221 531.853 222.262 529.725 225.949C527.597 229.635 528.86 234.349 532.548 236.478Z" fill="white" stroke="#37388E" stroke-width="8" stroke-linecap="round" stroke-linejoin="round"/>
<path d="M406.639 389.814C410.326 391.943 415.04 390.68 417.168 386.994C419.297 383.307 418.033 378.593 414.346 376.465C410.659 374.336 405.944 375.598 403.816 379.285C401.688 382.971 402.952 387.685 406.639 389.814Z" fill="white" stroke="#37388E" stroke-width="8" stroke-linecap="round" stroke-linejoin="round"/>
<path d="M512.675 144.994C516.362 147.122 521.077 145.86 523.205 142.173C525.333 138.487 524.07 133.773 520.383 131.644C516.695 129.516 511.981 130.778 509.853 134.464C507.725 138.151 508.988 142.865 512.675 144.994Z" fill="white" stroke="#37388E" stroke-width="8" stroke-linecap="round" stroke-linejoin="round"/>
<path d="M545.55 213.956C549.237 216.085 553.952 214.823 556.08 211.136C558.208 207.45 556.945 202.736 553.257 200.607C549.57 198.478 544.856 199.741 542.728 203.427C540.599 207.114 541.863 211.828 545.55 213.956Z" fill="white" stroke="#37388E" stroke-width="8" stroke-linecap="round" stroke-linejoin="round"/>
<path d="M274.885 295.402C278.572 297.531 283.286 296.268 285.415 292.582C287.543 288.895 286.279 284.181 282.592 282.053C278.905 279.924 274.191 281.186 272.062 284.873C269.934 288.559 271.198 293.273 274.885 295.402Z" fill="white" stroke="#37388E" stroke-width="8" stroke-linecap="round" stroke-linejoin="round"/>
<path d="M805.146 176.468L713.44 335.307C711.286 339.044 708.417 342.319 704.996 344.946C701.575 347.573 697.67 349.5 693.504 350.618C689.337 351.735 684.992 352.02 680.715 351.458C676.438 350.895 672.313 349.495 668.577 347.338L563.072 286.425C560.919 285.182 558.361 284.845 555.96 285.488C553.559 286.131 551.512 287.701 550.269 289.854L470.286 428.389C465.934 435.916 458.77 441.407 450.37 443.654C441.97 445.901 433.021 444.72 425.489 440.372L276.992 354.637C274.838 353.396 272.281 353.06 269.88 353.703C267.48 354.346 265.433 355.915 264.189 358.066L180.571 502.897" stroke="#7C80BD" stroke-width="8" stroke-linecap="round" stroke-linejoin="round"/>
<path opacity="0.7" d="M822.881 186.707L731.175 345.547C729.022 349.282 726.153 352.557 722.733 355.183C719.314 357.81 715.41 359.737 711.245 360.855C707.08 361.973 702.736 362.259 698.46 361.698C694.184 361.137 690.06 359.739 686.324 357.584L580.807 296.664C578.654 295.421 576.096 295.084 573.695 295.727C571.294 296.37 569.247 297.94 568.004 300.093L488.021 438.628C483.67 446.156 476.507 451.648 468.106 453.895C459.705 456.143 450.755 454.961 443.224 450.611L294.733 364.88C292.58 363.637 290.021 363.3 287.62 363.943C285.219 364.586 283.172 366.156 281.929 368.309L198.311 513.139" stroke="#7C80BD" stroke-width="8" stroke-linecap="round" stroke-linejoin="round"/>
<path opacity="0.3" d="M833.292 192.718L741.586 351.557C732.522 367.258 712.712 372.796 697.352 363.928L594.129 304.332C593.068 303.734 591.899 303.352 590.69 303.206C589.481 303.06 588.256 303.154 587.083 303.481C585.91 303.809 584.814 304.365 583.856 305.116C582.898 305.868 582.098 306.801 581.501 307.862L501.507 446.414C492.449 462.104 472.667 467.634 457.319 458.772L312.061 374.907C309.918 373.703 307.384 373.399 305.017 374.061C302.65 374.724 300.644 376.299 299.438 378.441L215.82 523.272" stroke="#7C80BD" stroke-width="8" stroke-linecap="round" stroke-linejoin="round"/>
<path d="M165.615 494.286L254.757 339.886C256.821 336.313 260.219 333.705 264.205 332.637C268.191 331.568 272.438 332.126 276.014 334.188L434.093 425.456C437.668 427.519 441.915 428.079 445.901 427.012C449.888 425.946 453.287 423.339 455.352 419.767L540.873 271.64C542.938 268.067 546.337 265.461 550.324 264.394C554.31 263.327 558.558 263.887 562.132 265.951L677.231 332.403C680.806 334.468 685.055 335.027 689.042 333.959C693.03 332.891 696.429 330.283 698.493 326.709L790.212 167.846" stroke="url(#paint2_linear_21_2)" stroke-width="8" stroke-linecap="round" stroke-linejoin="round"/>
</g>
</g>
<defs>
<linearGradient id="paint0_linear_21_2" x1="138.105" y1="99.3131" x2="300.429" y2="375.086" gradientUnits="userSpaceOnUse">
<stop stop-color="#76BDFF"/>
<stop offset="1" stop-color="#FF94EE"/>
</linearGradient>
<linearGradient id="paint1_linear_21_2" x1="127.495" y1="377.4" x2="798.693" y2="197.475" gradientUnits="userSpaceOnUse">
<stop stop-color="#CD2485"/>
<stop offset="1" stop-color="#3055A3"/>
</linearGradient>
<linearGradient id="paint2_linear_21_2" x1="144.088" y1="424.375" x2="813.656" y2="244.887" gradientUnits="userSpaceOnUse">
<stop stop-color="#CD2485"/>
<stop offset="1" stop-color="#3055A3"/>
</linearGradient>
<clipPath id="clip0_21_2">
<rect width="400.593" height="472.425" fill="white" transform="translate(337.486 0.883179) rotate(28.7296)"/>
</clipPath>
<clipPath id="clip1_21_2">
<rect width="509.134" height="600.393" fill="white" transform="translate(396.051 -62.8347) rotate(30)"/>
</clipPath>
</defs>
</svg>
