<svg width="375" height="277" viewBox="0 0 375 277" fill="none" xmlns="http://www.w3.org/2000/svg">
<path d="M337.057 257.817H312.282V258.004H337.057V257.817Z" fill="#EBEBEB"/>
<path d="M248.278 259.852H241.778V260.039H248.278V259.852Z" fill="#EBEBEB"/>
<path d="M311.533 250.876H297.178V251.063H311.533V250.876Z" fill="#EBEBEB"/>
<path d="M72.0599 252.132H39.7516V252.319H72.0599V252.132Z" fill="#EBEBEB"/>
<path d="M83.4602 252.132H78.725V252.319H83.4602V252.132Z" fill="#EBEBEB"/>
<path d="M168.932 255.289H98.855V255.476H168.932V255.289Z" fill="#EBEBEB"/>
<path d="M177.797 212.418H33.3632C32.2304 212.418 31.1439 211.968 30.3429 211.167C29.5418 210.366 29.0918 209.28 29.0918 208.147V5.10337C29.1017 3.97702 29.5561 2.90017 30.356 2.1072C31.156 1.31424 32.2368 0.869357 33.3632 0.8694H177.797C178.93 0.8694 180.016 1.31942 180.817 2.12046C181.618 2.92149 182.068 4.00793 182.068 5.14077V208.147C182.068 209.28 181.618 210.366 180.817 211.167C180.016 211.968 178.93 212.418 177.797 212.418ZM33.3632 1.01901C32.2806 1.02099 31.2428 1.45194 30.4773 2.21747C29.7118 2.98301 29.2808 4.02074 29.2788 5.10337V208.147C29.2808 209.229 29.7118 210.267 30.4773 211.033C31.2428 211.798 32.2806 212.229 33.3632 212.231H177.797C178.88 212.229 179.917 211.798 180.683 211.033C181.448 210.267 181.879 209.229 181.881 208.147V5.10337C181.879 4.02074 181.448 2.98301 180.683 2.21747C179.917 1.45194 178.88 1.02099 177.797 1.01901H33.3632Z" fill="#EBEBEB"/>
<path d="M339.608 212.418H195.159C194.027 212.416 192.942 211.966 192.141 211.165C191.34 210.364 190.89 209.279 190.888 208.147V5.10337C190.9 3.97764 191.355 2.90191 192.154 2.10936C192.954 1.31682 194.033 0.871306 195.159 0.8694H339.608C340.732 0.873293 341.809 1.31991 342.605 2.11246C343.402 2.905 343.854 3.97961 343.864 5.10337V208.147C343.864 209.277 343.416 210.361 342.618 211.162C341.821 211.962 340.738 212.414 339.608 212.418ZM195.159 1.01901C194.077 1.02099 193.039 1.45194 192.273 2.21747C191.508 2.98301 191.077 4.02074 191.075 5.10337V208.147C191.077 209.229 191.508 210.267 192.273 211.033C193.039 211.798 194.077 212.229 195.159 212.231H339.608C340.69 212.229 341.728 211.798 342.494 211.033C343.259 210.267 343.69 209.229 343.692 208.147V5.10337C343.69 4.02074 343.259 2.98301 342.494 2.21747C341.728 1.45194 340.69 1.02099 339.608 1.01901H195.159Z" fill="#EBEBEB"/>
<path d="M374.534 245.781H0.508789V245.968H374.534V245.781Z" fill="#EBEBEB"/>
<path d="M312.259 30.5446H218.91V129.953H312.259V30.5446Z" fill="#EBEBEB"/>
<path d="M306.649 36.155H224.52V124.343H306.649V36.155Z" fill="#F5F5F5"/>
<path d="M256.754 124.343H281.439L304.614 36.155H279.928L256.754 124.343Z" fill="#FAFAFA"/>
<path d="M268.461 36.155L245.286 124.343H251.27L274.445 36.155H268.461Z" fill="#FAFAFA"/>
<path d="M313.433 35.2199H217.728L215.708 30.5072H315.453L313.433 35.2199Z" fill="#F5F5F5"/>
<path d="M313.433 37.9503H217.728L215.708 33.2376H315.453L313.433 37.9503Z" fill="#F0F0F0"/>
<path d="M313.433 40.6807H217.728L215.708 35.9679H315.453L313.433 40.6807Z" fill="#E6E6E6"/>
<path d="M313.433 43.4111H217.728L215.708 38.6983H315.453L313.433 43.4111Z" fill="#E0E0E0"/>
<path d="M318.939 24.6051H212.23V30.8887H318.939V24.6051Z" fill="#E0E0E0"/>
<path d="M213.322 87.8602C213.034 87.8602 212.758 87.746 212.555 87.5425C212.351 87.3391 212.237 87.0632 212.237 86.7756V50.1211C212.237 49.8334 212.351 49.5575 212.555 49.3541C212.758 49.1507 213.034 49.0364 213.322 49.0364C213.609 49.0364 213.885 49.1507 214.089 49.3541C214.292 49.5575 214.406 49.8334 214.406 50.1211V86.7756C214.406 87.0632 214.292 87.3391 214.089 87.5425C213.885 87.746 213.609 87.8602 213.322 87.8602Z" fill="#E0E0E0"/>
<path d="M213.711 29.632H212.925V51.4002H213.711V29.632Z" fill="#E0E0E0"/>
<path d="M68.2224 28.6221H66.8759V133.626H68.2224V28.6221Z" fill="#E0E0E0"/>
<path d="M152.042 28.6221H150.695V133.626H152.042V28.6221Z" fill="#E0E0E0"/>
<path d="M157.323 35.2199H61.6021L59.5824 30.5072H159.335L157.323 35.2199Z" fill="#F5F5F5"/>
<path d="M157.323 41.6905H61.6021L59.5824 36.9778H159.335L157.323 41.6905Z" fill="#F5F5F5"/>
<path d="M157.323 48.1612H61.6021L59.5824 43.4485H159.335L157.323 48.1612Z" fill="#F5F5F5"/>
<path d="M157.323 54.6318H61.6021L59.5824 49.9191H159.335L157.323 54.6318Z" fill="#F5F5F5"/>
<path d="M157.323 61.1025H61.6021L59.5824 56.3898H159.335L157.323 61.1025Z" fill="#F5F5F5"/>
<path d="M157.323 67.5731H61.6021L59.5824 62.8604H159.335L157.323 67.5731Z" fill="#F5F5F5"/>
<path d="M157.323 74.0437H61.6021L59.5824 69.331H159.335L157.323 74.0437Z" fill="#F5F5F5"/>
<path d="M157.323 80.5144H61.6021L59.5824 75.8016H159.335L157.323 80.5144Z" fill="#F5F5F5"/>
<path d="M157.323 86.985H61.6021L59.5824 82.2723H159.335L157.323 86.985Z" fill="#F5F5F5"/>
<path d="M157.323 93.4557H61.6021L59.5824 88.743H159.335L157.323 93.4557Z" fill="#F5F5F5"/>
<path d="M157.323 99.9263H61.6021L59.5824 95.2136H159.335L157.323 99.9263Z" fill="#F5F5F5"/>
<path d="M157.323 106.389H61.6021L59.5824 101.677H159.335L157.323 106.389Z" fill="#F5F5F5"/>
<path d="M157.323 112.868H61.6021L59.5824 108.147H159.335L157.323 112.868Z" fill="#F5F5F5"/>
<path d="M157.323 119.331H61.6021L59.5824 114.618H159.335L157.323 119.331Z" fill="#F5F5F5"/>
<path d="M157.323 125.801H61.6021L59.5824 121.089H159.335L157.323 125.801Z" fill="#F5F5F5"/>
<path d="M157.323 132.272H61.6021L59.5824 127.559H159.335L157.323 132.272Z" fill="#F5F5F5"/>
<path d="M159.335 132.272H59.5824V134.965H159.335V132.272Z" fill="#E0E0E0"/>
<path d="M162.813 24.6051H56.1039V30.8887H162.813V24.6051Z" fill="#E0E0E0"/>
<path d="M57.2036 87.8602C56.9159 87.8602 56.64 87.746 56.4366 87.5425C56.2332 87.3391 56.1189 87.0632 56.1189 86.7756V50.1211C56.1189 49.8334 56.2332 49.5575 56.4366 49.3541C56.64 49.1507 56.9159 49.0364 57.2036 49.0364C57.4912 49.0364 57.7671 49.1507 57.9706 49.3541C58.174 49.5575 58.2882 49.8334 58.2882 50.1211V86.7756C58.2882 87.0632 58.174 87.3391 57.9706 87.5425C57.7671 87.746 57.4912 87.8602 57.2036 87.8602Z" fill="#E0E0E0"/>
<path d="M57.5925 29.632H56.8071V51.4002H57.5925V29.632Z" fill="#E0E0E0"/>
<path d="M67.3247 200.883C67.2349 200.981 67.7361 201.684 65.6865 201.377C60.6371 200.629 51.8475 198.572 49.4014 193.38C45.908 185.967 56.7398 188.675 56.3658 184.882C55.9917 181.09 43.6489 181.748 42.3548 176.19C41.0606 170.632 49.4089 173.28 49.5211 170.572C49.6333 167.864 39.9984 169.54 38.0834 163.541C36.1684 157.541 43.4544 161.962 42.6166 159.464C41.7788 156.965 33.64 145.692 38.061 144.383C42.4819 143.074 49.9699 154.646 52.8724 156.284C55.7748 157.923 58.3182 148.475 61.7592 152.469C65.2002 156.464 59.7395 170.423 64.123 173.123C67.392 175.143 66.4719 169.585 70.7807 170.625C76.608 172.031 74.6406 192.7 67.3247 200.883Z" fill="#EBEBEB"/>
<path d="M51.7428 170.602C53.2285 170.712 54.6941 171.011 56.1039 171.492C55.1692 170.088 54.1315 168.756 52.9995 167.505C52.9387 167.433 52.9073 167.341 52.9116 167.247C52.9159 167.153 52.9556 167.064 53.0227 166.998C53.0898 166.931 53.1794 166.893 53.2735 166.89C53.3677 166.887 53.4595 166.92 53.5306 166.982C55.9706 169.718 58.0589 172.749 59.747 176.003C61.3403 166.436 57.3308 158.05 57.2859 157.99C57.262 157.924 57.2634 157.851 57.2898 157.786C57.3163 157.721 57.3659 157.668 57.4291 157.638C57.4923 157.607 57.5646 157.601 57.6321 157.62C57.6996 157.64 57.7574 157.684 57.7945 157.743C57.8394 157.833 62.1108 166.757 60.1733 176.796C60.6895 177.776 61.2131 178.831 61.7218 179.96C63.5319 183.987 64.9619 188.175 65.9932 192.468C67.8615 188.943 68.8858 185.033 68.9854 181.045C68.9864 181.009 68.9945 180.973 69.0093 180.94C69.0241 180.906 69.0453 180.876 69.0717 180.851C69.0981 180.826 69.1292 180.807 69.1631 180.794C69.1971 180.781 69.2333 180.775 69.2696 180.776C69.307 180.777 69.3438 180.785 69.3779 180.8C69.412 180.815 69.4428 180.837 69.4685 180.864C69.4942 180.891 69.5143 180.923 69.5277 180.958C69.541 180.993 69.5474 181.03 69.5464 181.067C69.4566 185.343 68.3078 189.53 66.2026 193.253C68.1115 201.701 68.7493 210.387 68.0952 219.024C68.0923 219.073 68.0798 219.121 68.0583 219.165C68.0368 219.209 68.0068 219.249 67.97 219.282C67.9331 219.314 67.8902 219.339 67.8437 219.355C67.7971 219.371 67.7479 219.378 67.6987 219.375H67.6539C67.5633 219.359 67.4823 219.309 67.4269 219.235C67.3714 219.162 67.3456 219.07 67.3546 218.979C68.2747 205.514 66.27 194.734 63.4872 186.551C61.943 184.762 59.8296 183.56 57.5028 183.147C57.4307 183.132 57.3668 183.091 57.3238 183.032C57.2808 182.972 57.2619 182.898 57.2709 182.825C57.2755 182.789 57.2873 182.754 57.3057 182.722C57.324 182.69 57.3485 182.662 57.3778 182.64C57.407 182.617 57.4404 182.601 57.476 182.592C57.5116 182.583 57.5487 182.581 57.5851 182.586C59.6256 182.938 61.5186 183.879 63.0309 185.294C61.4143 180.741 59.2756 176.391 56.6575 172.33C55.0798 171.671 53.4041 171.277 51.6979 171.163C51.6238 171.157 51.5549 171.123 51.506 171.067C51.4571 171.011 51.432 170.938 51.4361 170.864C51.4379 170.826 51.4474 170.789 51.4641 170.755C51.4807 170.721 51.5041 170.691 51.5329 170.667C51.5616 170.642 51.595 170.624 51.6312 170.613C51.6673 170.602 51.7053 170.598 51.7428 170.602Z" fill="#F5F5F5"/>
<path d="M73.8178 203.748C78.0144 203.823 85.1807 199.926 88.0308 196.141C90.8809 192.356 82.8543 194.645 83.6771 191.652C84.5 188.66 94.4042 190.867 96.2294 186.536C98.0547 182.205 90.9183 183.207 91.2025 180.993C91.4868 178.778 98.885 179.235 101.256 174.634C103.628 170.034 97.1271 172.614 98.1444 170.707C99.1618 168.799 107.323 160.78 103.912 159.112C100.501 157.444 92.8482 165.792 90.2899 166.727C87.7316 167.662 87.1256 161.887 83.7893 164.648C80.453 167.408 82.9515 179.467 79.0317 181.06C76.1069 182.249 77.3486 176.721 73.9824 178.12C68.0279 180.566 72.0898 203.711 73.8178 203.748Z" fill="#E0E0E0"/>
<g opacity="0.3">
<path opacity="0.3" d="M73.8178 203.748C78.0144 203.823 85.1807 199.926 88.0308 196.141C90.8809 192.356 82.8543 194.645 83.6771 191.652C84.5 188.66 94.4042 190.867 96.2294 186.536C98.0547 182.205 90.9183 183.207 91.2025 180.993C91.4868 178.778 98.885 179.235 101.256 174.634C103.628 170.034 97.1271 172.614 98.1444 170.707C99.1618 168.799 107.323 160.78 103.912 159.112C100.501 157.444 92.8482 165.792 90.2899 166.727C87.7316 167.662 87.1256 161.887 83.7893 164.648C80.453 167.408 82.9515 179.467 79.0317 181.06C76.1069 182.249 77.3486 176.721 73.9824 178.12C68.0279 180.566 72.0898 203.711 73.8178 203.748Z" fill="#E0E0E0"/>
</g>
<path d="M75.1792 198.714C75.1159 198.691 75.0628 198.646 75.0296 198.587C73.4303 195.076 72.7802 191.207 73.1445 187.366C73.142 187.325 73.1483 187.285 73.1629 187.247C73.1775 187.209 73.2 187.174 73.2291 187.146C73.2581 187.117 73.293 187.095 73.3313 187.081C73.3695 187.067 73.4103 187.062 73.4509 187.065C73.4915 187.068 73.5309 187.08 73.5665 187.1C73.6021 187.12 73.633 187.147 73.6572 187.18C73.6813 187.213 73.6981 187.25 73.7065 187.29C73.7148 187.33 73.7145 187.371 73.7056 187.411C73.3922 191.057 73.9752 194.724 75.4037 198.093C77.1382 193.413 79.2757 188.893 81.792 184.583C81.044 175.607 85.6669 168.201 85.7118 168.126C85.7515 168.064 85.8144 168.019 85.8866 168.003C85.9589 167.987 86.0346 168 86.0971 168.04C86.1595 168.08 86.2037 168.143 86.2199 168.215C86.236 168.287 86.2228 168.363 86.1831 168.425C83.5094 173.069 82.1661 178.359 82.3007 183.716C85.3168 178.541 88.916 173.73 93.0277 169.375C93.0616 169.337 93.1031 169.305 93.1496 169.283C93.1962 169.261 93.2468 169.249 93.2983 169.247C93.3498 169.245 93.4011 169.254 93.449 169.274C93.4968 169.293 93.5402 169.321 93.5764 169.358C93.6126 169.395 93.6408 169.439 93.6592 169.487C93.6777 169.535 93.686 169.586 93.6837 169.638C93.6813 169.689 93.6684 169.74 93.6456 169.786C93.6228 169.832 93.5908 169.873 93.5514 169.907C90.5136 173.103 87.772 176.568 85.3602 180.26C87.8872 179.308 90.5669 178.826 93.2671 178.838C93.3412 178.842 93.4108 178.875 93.4611 178.929C93.5115 178.984 93.5385 179.056 93.5364 179.13C93.5345 179.202 93.5045 179.271 93.4528 179.321C93.4011 179.371 93.3318 179.399 93.2596 179.399C90.3569 179.375 87.4792 179.937 84.7992 181.052C83.1468 183.59 81.6238 186.209 80.2361 188.9C81.363 188.118 82.6463 187.59 83.9972 187.352C85.3481 187.114 86.7345 187.173 88.0607 187.523C88.1328 187.542 88.1944 187.589 88.2322 187.654C88.27 187.718 88.2809 187.795 88.2627 187.867C88.2532 187.903 88.2367 187.936 88.2141 187.965C88.1916 187.994 88.1635 188.019 88.1315 188.037C88.0994 188.055 88.0641 188.066 88.0275 188.071C87.991 188.075 87.9539 188.072 87.9186 188.062C86.4809 187.692 84.9742 187.681 83.5314 188.031C82.0887 188.38 80.754 189.079 79.6451 190.066C74.822 199.628 72.0716 210.099 71.5736 220.796C71.5698 220.893 71.5287 220.984 71.4589 221.051C71.3892 221.118 71.2963 221.156 71.1996 221.155C71.103 221.156 71.01 221.118 70.9403 221.051C70.8706 220.984 70.8295 220.893 70.8256 220.796C71.1395 213.256 72.6078 205.809 75.1792 198.714Z" fill="#F5F5F5"/>
<path d="M61.9911 244.734C57.989 237.209 55.3559 226.332 55.3559 221.544C55.3753 219.593 55.8235 217.669 56.669 215.91C57.5144 214.15 58.7363 212.598 60.2482 211.364H80.7522C82.2641 212.598 83.486 214.15 84.3314 215.91C85.1768 217.669 85.6251 219.593 85.6445 221.544C85.6445 226.317 83.0113 237.194 79.0093 244.734H61.9911Z" fill="#F0F0F0"/>
<path d="M183.916 276.683C264.019 276.683 328.956 272.892 328.956 268.215C328.956 263.539 264.019 259.747 183.916 259.747C103.813 259.747 38.8763 263.539 38.8763 268.215C38.8763 272.892 103.813 276.683 183.916 276.683Z" fill="#F5F5F5"/>
<path d="M219.426 49.2234H201.473C200.888 49.2359 200.324 49.4437 199.871 49.8138C199.419 50.184 199.103 50.6951 198.974 51.2656L198.854 51.8266C198.544 53.2185 197.775 54.4658 196.671 55.3679C195.567 56.2701 194.191 56.7749 192.765 56.8012H175.71C174.357 56.8314 173.047 56.3253 172.066 55.3933C171.085 54.4613 170.513 53.1792 170.473 51.8266V51.2656C170.46 50.7114 170.227 50.1852 169.826 49.8024C169.425 49.4196 168.888 49.2114 168.334 49.2234H150.381C147.432 49.2759 144.605 50.407 142.434 52.403C140.263 54.399 138.899 57.1213 138.599 60.0552L124.192 225.03C124.039 226.41 124.183 227.806 124.612 229.125C125.042 230.445 125.748 231.658 126.683 232.683C127.617 233.709 128.76 234.524 130.035 235.073C131.309 235.622 132.686 235.894 134.073 235.87H203.096C206.045 235.815 208.873 234.683 211.043 232.685C213.214 230.688 214.578 227.965 214.878 225.03L229.315 60.0552C229.466 58.6758 229.322 57.28 228.891 55.9607C228.461 54.6415 227.754 53.4291 226.819 52.4043C225.883 51.3795 224.74 50.5657 223.465 50.0173C222.19 49.4688 220.813 49.1982 219.426 49.2234Z" fill="#407BFF"/>
<path opacity="0.7" d="M219.426 49.2234H201.473C200.888 49.2359 200.324 49.4437 199.871 49.8138C199.419 50.184 199.103 50.6951 198.974 51.2656L198.854 51.8266C198.544 53.2185 197.775 54.4658 196.671 55.3679C195.567 56.2701 194.191 56.7749 192.765 56.8012H175.71C174.357 56.8314 173.047 56.3253 172.066 55.3933C171.085 54.4613 170.513 53.1792 170.473 51.8266V51.2656C170.46 50.7114 170.227 50.1852 169.826 49.8024C169.425 49.4196 168.888 49.2114 168.334 49.2234H150.381C147.432 49.2759 144.605 50.407 142.434 52.403C140.263 54.399 138.899 57.1213 138.599 60.0552L124.192 225.03C124.039 226.41 124.183 227.806 124.612 229.125C125.042 230.445 125.748 231.658 126.683 232.683C127.617 233.709 128.76 234.524 130.035 235.073C131.309 235.622 132.686 235.894 134.073 235.87H203.096C206.045 235.815 208.873 234.683 211.043 232.685C213.214 230.688 214.578 227.965 214.878 225.03L229.315 60.0552C229.466 58.6758 229.322 57.28 228.891 55.9607C228.461 54.6415 227.754 53.4291 226.819 52.4043C225.883 51.3795 224.74 50.5657 223.465 50.0173C222.19 49.4688 220.813 49.1982 219.426 49.2234Z" fill="white"/>
<path d="M212.432 125.106H175.777C175.469 125.111 175.163 125.05 174.88 124.928C174.597 124.806 174.343 124.625 174.135 124.397C173.927 124.169 173.77 123.9 173.674 123.607C173.578 123.314 173.545 123.004 173.578 122.697L176.338 91.1367C176.404 90.4843 176.707 89.8787 177.19 89.4348C177.672 88.9908 178.301 88.7393 178.956 88.728H215.611C215.92 88.7218 216.226 88.7817 216.51 88.9035C216.793 89.0252 217.048 89.2062 217.256 89.4342C217.464 89.6622 217.621 89.932 217.717 90.2256C217.812 90.5192 217.844 90.8299 217.81 91.1367L215.05 122.697C214.982 123.349 214.679 123.953 214.197 124.397C213.715 124.841 213.087 125.093 212.432 125.106Z" fill="white"/>
<path d="M200.238 223.789H138.898C138.132 223.803 137.371 223.653 136.667 223.35C135.963 223.047 135.331 222.598 134.814 222.031C134.298 221.465 133.907 220.795 133.67 220.066C133.433 219.337 133.353 218.566 133.437 217.804C133.604 216.184 134.357 214.68 135.556 213.578C136.755 212.475 138.317 211.85 139.945 211.82H201.286C202.052 211.806 202.813 211.955 203.517 212.258C204.221 212.561 204.853 213.01 205.37 213.577C205.886 214.143 206.276 214.813 206.514 215.542C206.751 216.271 206.831 217.042 206.746 217.804C206.582 219.425 205.829 220.93 204.629 222.033C203.43 223.135 201.868 223.76 200.238 223.789Z" fill="white"/>
<path d="M205.123 80.0506H148.847C148.416 80.0636 147.987 79.9831 147.589 79.8146C147.192 79.6462 146.836 79.3938 146.545 79.0747C146.255 78.7557 146.036 78.3775 145.906 77.9662C145.775 77.5549 145.735 77.1202 145.788 76.6918L146.244 71.4555C146.339 70.5477 146.762 69.7058 147.435 69.0886C148.107 68.4713 148.982 68.1212 149.895 68.1042H206.17C206.6 68.0965 207.026 68.1802 207.421 68.3498C207.816 68.5194 208.17 68.771 208.46 69.088C208.75 69.4049 208.969 69.7799 209.103 70.1881C209.237 70.5963 209.283 71.0283 209.237 71.4555L208.774 76.6918C208.681 77.601 208.258 78.4447 207.585 79.0635C206.913 79.6823 206.037 80.0334 205.123 80.0506Z" fill="white"/>
<path d="M216.568 71.2759C216.543 71.5294 216.425 71.7646 216.237 71.9369C216.05 72.1093 215.806 72.2068 215.551 72.211C215.431 72.2127 215.313 72.1891 215.203 72.1416C215.093 72.094 214.995 72.0238 214.914 71.9354C214.834 71.847 214.773 71.7425 214.735 71.6288C214.698 71.5152 214.685 71.3949 214.698 71.2759C214.724 71.0232 214.842 70.7889 215.03 70.6178C215.217 70.4467 215.462 70.3507 215.716 70.3484C215.835 70.3455 215.953 70.3682 216.063 70.4149C216.173 70.4615 216.271 70.5311 216.352 70.6189C216.433 70.7067 216.494 70.8108 216.531 70.9241C216.569 71.0374 216.581 71.1573 216.568 71.2759Z" fill="white"/>
<path d="M216.322 74.0736C216.298 74.3264 216.181 74.5615 215.995 74.734C215.809 74.9065 215.565 75.0043 215.312 75.0087C215.192 75.0104 215.073 74.9868 214.964 74.9393C214.854 74.8918 214.755 74.8215 214.675 74.7331C214.594 74.6447 214.533 74.5402 214.496 74.4266C214.459 74.3129 214.446 74.1926 214.459 74.0736C214.483 73.8209 214.599 73.5858 214.785 73.4133C214.972 73.2408 215.215 73.143 215.469 73.1386C215.588 73.1368 215.707 73.1605 215.817 73.208C215.927 73.2555 216.025 73.3258 216.106 73.4142C216.186 73.5026 216.247 73.6071 216.284 73.7207C216.322 73.8344 216.334 73.9547 216.322 74.0736Z" fill="white"/>
<path d="M216.082 76.8639C216.057 77.1173 215.939 77.3525 215.751 77.5248C215.564 77.6972 215.319 77.7947 215.065 77.7989C214.945 77.8007 214.827 77.777 214.717 77.7295C214.607 77.682 214.509 77.6117 214.428 77.5233C214.347 77.435 214.286 77.3305 214.249 77.2168C214.212 77.1031 214.199 76.9828 214.212 76.8639C214.238 76.6105 214.355 76.3753 214.543 76.2029C214.73 76.0306 214.975 75.933 215.229 75.9288C215.349 75.9271 215.468 75.9508 215.577 75.9983C215.687 76.0458 215.786 76.116 215.866 76.2044C215.947 76.2928 216.008 76.3973 216.045 76.511C216.082 76.6247 216.095 76.7449 216.082 76.8639Z" fill="white"/>
<path d="M207.876 177.17H139.407C139.098 177.176 138.792 177.116 138.508 176.995C138.224 176.873 137.97 176.692 137.762 176.464C137.553 176.236 137.396 175.966 137.301 175.672C137.205 175.379 137.174 175.068 137.208 174.761L140.394 138.743C140.46 138.09 140.763 137.485 141.246 137.041C141.728 136.597 142.357 136.345 143.013 136.334H211.459C211.767 136.329 212.073 136.389 212.356 136.512C212.638 136.634 212.892 136.815 213.099 137.043C213.307 137.271 213.463 137.54 213.558 137.833C213.653 138.126 213.685 138.436 213.651 138.743L210.502 174.761C210.436 175.415 210.132 176.022 209.648 176.466C209.163 176.91 208.533 177.16 207.876 177.17Z" fill="white"/>
<path d="M158.243 184.695H136.923C136.849 184.697 136.774 184.683 136.706 184.653C136.637 184.624 136.576 184.58 136.525 184.524C136.475 184.469 136.437 184.404 136.414 184.333C136.391 184.261 136.384 184.186 136.392 184.112C136.407 183.952 136.48 183.804 136.597 183.695C136.715 183.586 136.868 183.524 137.028 183.521H158.348C158.423 183.519 158.498 183.534 158.567 183.564C158.636 183.594 158.698 183.638 158.749 183.694C158.799 183.751 158.837 183.817 158.859 183.889C158.882 183.961 158.888 184.037 158.879 184.112C158.862 184.27 158.788 184.417 158.671 184.524C158.554 184.632 158.402 184.693 158.243 184.695Z" fill="white"/>
<path d="M184.888 184.695H162.006C161.93 184.698 161.855 184.684 161.786 184.655C161.716 184.626 161.653 184.583 161.602 184.527C161.551 184.472 161.513 184.406 161.489 184.334C161.466 184.263 161.458 184.187 161.467 184.112C161.482 183.952 161.555 183.804 161.672 183.695C161.789 183.586 161.943 183.524 162.103 183.521H184.993C185.069 183.519 185.143 183.534 185.213 183.564C185.282 183.594 185.344 183.638 185.394 183.694C185.445 183.751 185.483 183.817 185.505 183.889C185.527 183.961 185.534 184.037 185.524 184.112C185.508 184.27 185.434 184.417 185.317 184.524C185.2 184.632 185.047 184.693 184.888 184.695Z" fill="white"/>
<path d="M150.867 189.894H136.475C136.399 189.896 136.324 189.881 136.254 189.851C136.185 189.822 136.122 189.777 136.071 189.721C136.02 189.665 135.982 189.599 135.958 189.527C135.935 189.455 135.927 189.379 135.936 189.303C135.952 189.145 136.026 188.997 136.143 188.888C136.26 188.78 136.412 188.717 136.572 188.712H150.994C151.07 188.712 151.144 188.728 151.213 188.758C151.282 188.788 151.344 188.833 151.395 188.888C151.446 188.944 151.484 189.01 151.508 189.081C151.532 189.153 151.54 189.228 151.533 189.303C151.516 189.467 151.438 189.619 151.315 189.729C151.192 189.838 151.032 189.897 150.867 189.894Z" fill="white"/>
<path d="M178.276 189.894H154.652C154.576 189.896 154.501 189.881 154.432 189.851C154.362 189.822 154.3 189.777 154.249 189.721C154.198 189.665 154.159 189.599 154.136 189.527C154.113 189.455 154.105 189.379 154.114 189.303C154.13 189.143 154.205 188.995 154.323 188.886C154.442 188.777 154.596 188.715 154.757 188.712H178.373C178.449 188.711 178.524 188.726 178.593 188.755C178.663 188.785 178.725 188.83 178.776 188.886C178.827 188.942 178.866 189.008 178.889 189.08C178.912 189.152 178.92 189.228 178.911 189.303C178.897 189.463 178.824 189.611 178.706 189.72C178.589 189.829 178.436 189.891 178.276 189.894Z" fill="white"/>
<path d="M174.461 195.086H136.018C135.943 195.089 135.868 195.075 135.798 195.046C135.729 195.017 135.666 194.973 135.615 194.918C135.564 194.862 135.525 194.797 135.502 194.725C135.479 194.653 135.471 194.577 135.48 194.502C135.496 194.342 135.571 194.194 135.689 194.085C135.808 193.976 135.962 193.914 136.123 193.911H174.565C174.641 193.911 174.715 193.927 174.784 193.957C174.853 193.987 174.915 194.032 174.966 194.087C175.017 194.143 175.055 194.209 175.079 194.28C175.103 194.352 175.111 194.427 175.104 194.502C175.086 194.661 175.01 194.808 174.892 194.915C174.774 195.023 174.62 195.083 174.461 195.086Z" fill="white"/>
<path d="M180.789 195.086H178.253C178.178 195.089 178.103 195.075 178.033 195.046C177.964 195.017 177.901 194.973 177.85 194.918C177.799 194.862 177.76 194.797 177.737 194.725C177.714 194.653 177.706 194.577 177.715 194.502C177.729 194.343 177.802 194.194 177.92 194.085C178.037 193.976 178.19 193.914 178.35 193.911H180.894C180.969 193.91 181.044 193.924 181.113 193.954C181.183 193.984 181.245 194.029 181.295 194.085C181.346 194.141 181.383 194.207 181.406 194.279C181.428 194.352 181.435 194.428 181.425 194.502C181.409 194.661 181.335 194.807 181.218 194.915C181.1 195.022 180.948 195.083 180.789 195.086Z" fill="white"/>
<path d="M153.508 200.285H135.554C135.479 200.285 135.405 200.27 135.335 200.239C135.266 200.209 135.205 200.165 135.154 200.109C135.103 200.053 135.065 199.988 135.041 199.916C135.017 199.845 135.009 199.769 135.016 199.694C135.032 199.534 135.107 199.385 135.225 199.276C135.344 199.167 135.498 199.106 135.659 199.103H153.612C153.688 199.101 153.763 199.116 153.833 199.146C153.902 199.176 153.965 199.22 154.016 199.276C154.067 199.332 154.105 199.398 154.129 199.47C154.152 199.542 154.16 199.619 154.151 199.694C154.135 199.854 154.06 200.003 153.941 200.111C153.823 200.22 153.669 200.282 153.508 200.285Z" fill="white"/>
<path d="M179.622 200.285H157.27C157.195 200.285 157.12 200.27 157.051 200.239C156.982 200.209 156.921 200.165 156.87 200.109C156.819 200.053 156.78 199.988 156.757 199.916C156.733 199.845 156.724 199.769 156.732 199.694C156.748 199.534 156.823 199.385 156.941 199.276C157.06 199.167 157.214 199.106 157.375 199.103H179.719C179.795 199.101 179.87 199.116 179.94 199.146C180.009 199.176 180.072 199.22 180.123 199.276C180.174 199.332 180.212 199.398 180.236 199.47C180.259 199.542 180.267 199.619 180.258 199.694C180.242 199.853 180.168 200 180.051 200.109C179.934 200.218 179.782 200.28 179.622 200.285Z" fill="white"/>
<path d="M157.211 205.476H135.106C135.03 205.478 134.955 205.463 134.886 205.433C134.817 205.404 134.755 205.359 134.704 205.303C134.654 205.247 134.616 205.18 134.594 205.108C134.571 205.036 134.565 204.96 134.574 204.885C134.591 204.727 134.665 204.581 134.782 204.473C134.899 204.366 135.051 204.305 135.21 204.302H157.308C157.383 204.299 157.458 204.313 157.528 204.342C157.597 204.371 157.66 204.415 157.711 204.47C157.762 204.525 157.801 204.591 157.824 204.663C157.847 204.735 157.855 204.81 157.846 204.885C157.832 205.045 157.759 205.193 157.641 205.302C157.524 205.411 157.371 205.473 157.211 205.476Z" fill="white"/>
<path d="M178.769 205.476H160.966C160.89 205.478 160.815 205.463 160.746 205.433C160.677 205.404 160.615 205.359 160.564 205.303C160.514 205.247 160.476 205.18 160.454 205.108C160.431 205.036 160.425 204.96 160.435 204.885C160.451 204.727 160.525 204.581 160.642 204.473C160.759 204.366 160.912 204.305 161.07 204.302H178.874C178.949 204.299 179.024 204.313 179.094 204.342C179.164 204.371 179.226 204.415 179.277 204.47C179.328 204.525 179.367 204.591 179.39 204.663C179.414 204.735 179.421 204.81 179.413 204.885C179.396 205.046 179.322 205.194 179.203 205.303C179.085 205.412 178.93 205.474 178.769 205.476Z" fill="white"/>
<path d="M211.564 122.113C211.499 122.188 211.42 122.249 211.331 122.293C211.242 122.337 211.146 122.363 211.047 122.369C210.948 122.375 210.849 122.362 210.755 122.33C210.662 122.297 210.576 122.247 210.502 122.181L179.884 92.9619C179.745 92.8218 179.666 92.6322 179.666 92.4346C179.666 92.2369 179.745 92.0473 179.884 91.9072C179.949 91.8325 180.028 91.7714 180.117 91.7276C180.206 91.6837 180.302 91.6579 180.401 91.6516C180.5 91.6454 180.599 91.6588 180.692 91.6911C180.786 91.7234 180.872 91.774 180.946 91.8399L211.564 121.059C211.703 121.199 211.781 121.388 211.781 121.586C211.781 121.784 211.703 121.973 211.564 122.113Z" fill="#407BFF"/>
<path d="M177.176 122.106C177.115 122.027 177.071 121.936 177.046 121.839C177.021 121.742 177.015 121.641 177.03 121.542C177.044 121.443 177.079 121.348 177.131 121.262C177.183 121.176 177.252 121.102 177.333 121.044L192.952 108.275C193.101 108.146 193.294 108.081 193.49 108.094C193.686 108.106 193.869 108.196 194 108.342C194.059 108.421 194.103 108.512 194.127 108.608C194.152 108.704 194.157 108.804 194.142 108.902C194.127 109 194.093 109.095 194.042 109.18C193.991 109.264 193.923 109.338 193.843 109.397L178.223 122.173C178.075 122.302 177.882 122.367 177.686 122.354C177.49 122.342 177.307 122.252 177.176 122.106Z" fill="#407BFF"/>
<path d="M197.358 105.597C197.299 105.517 197.255 105.427 197.231 105.331C197.206 105.235 197.201 105.134 197.216 105.036C197.231 104.938 197.265 104.844 197.316 104.759C197.367 104.674 197.435 104.6 197.515 104.542L213.165 91.7501C213.313 91.6217 213.506 91.5567 213.702 91.5693C213.898 91.5819 214.081 91.671 214.212 91.8174C214.272 91.8967 214.315 91.9871 214.34 92.0833C214.364 92.1795 214.369 92.2796 214.354 92.3777C214.34 92.4759 214.306 92.5702 214.254 92.6551C214.203 92.7399 214.135 92.8138 214.055 92.8722L198.406 105.664C198.257 105.792 198.064 105.857 197.868 105.845C197.672 105.832 197.489 105.743 197.358 105.597Z" fill="#407BFF"/>
<g opacity="0.7">
<path opacity="0.7" d="M211.564 122.113C211.499 122.188 211.42 122.249 211.331 122.293C211.242 122.337 211.146 122.363 211.047 122.369C210.948 122.375 210.849 122.362 210.755 122.33C210.662 122.297 210.576 122.247 210.502 122.181L179.884 92.9619C179.745 92.8218 179.666 92.6322 179.666 92.4346C179.666 92.2369 179.745 92.0473 179.884 91.9072C179.949 91.8325 180.028 91.7714 180.117 91.7276C180.206 91.6837 180.302 91.6579 180.401 91.6516C180.5 91.6454 180.599 91.6588 180.692 91.6911C180.786 91.7234 180.872 91.774 180.946 91.8399L211.564 121.059C211.703 121.199 211.781 121.388 211.781 121.586C211.781 121.784 211.703 121.973 211.564 122.113Z" fill="white"/>
</g>
<g opacity="0.7">
<path opacity="0.7" d="M177.176 122.106C177.115 122.027 177.071 121.936 177.046 121.839C177.021 121.742 177.015 121.641 177.03 121.542C177.044 121.443 177.079 121.348 177.131 121.262C177.183 121.176 177.252 121.102 177.333 121.044L192.952 108.275C193.101 108.146 193.294 108.081 193.49 108.094C193.686 108.106 193.869 108.196 194 108.342C194.059 108.421 194.103 108.512 194.127 108.608C194.152 108.704 194.157 108.804 194.142 108.902C194.127 109 194.093 109.095 194.042 109.18C193.991 109.264 193.923 109.338 193.843 109.397L178.223 122.173C178.075 122.302 177.882 122.367 177.686 122.354C177.49 122.342 177.307 122.252 177.176 122.106Z" fill="white"/>
</g>
<g opacity="0.7">
<path opacity="0.7" d="M197.358 105.597C197.299 105.517 197.255 105.427 197.231 105.331C197.206 105.235 197.201 105.134 197.216 105.036C197.231 104.938 197.265 104.844 197.316 104.759C197.367 104.674 197.435 104.6 197.515 104.542L213.165 91.7501C213.313 91.6217 213.506 91.5567 213.702 91.5693C213.898 91.5819 214.081 91.671 214.212 91.8174C214.272 91.8967 214.315 91.9871 214.34 92.0833C214.364 92.1795 214.369 92.2796 214.354 92.3777C214.34 92.4759 214.306 92.5702 214.254 92.6551C214.203 92.7399 214.135 92.8138 214.055 92.8722L198.406 105.664C198.257 105.792 198.064 105.857 197.868 105.845C197.672 105.832 197.489 105.743 197.358 105.597Z" fill="white"/>
</g>
<path d="M124.491 45.6328H114.766C113.824 45.6367 112.922 46.0136 112.258 46.681C111.593 47.3483 111.22 48.2517 111.22 49.1935V58.9182C111.22 59.8625 111.595 60.7682 112.263 61.436C112.931 62.1037 113.837 62.4789 114.781 62.4789H124.506C125.45 62.4789 126.356 62.1037 127.024 61.436C127.691 60.7682 128.066 59.8625 128.066 58.9182V49.1935C128.066 48.7246 127.974 48.2604 127.794 47.8274C127.614 47.3944 127.35 47.0012 127.018 46.6704C126.686 46.3395 126.292 46.0776 125.858 45.8995C125.424 45.7214 124.96 45.6308 124.491 45.6328ZM119.651 49.0738C121.11 49.0738 121.895 50.2632 121.895 51.7219C121.895 53.1806 121.11 54.37 119.651 54.37C118.192 54.37 117.407 53.1881 117.407 51.7219C117.407 50.2557 118.185 49.0738 119.651 49.0738ZM125.493 59.0004H113.801C113.754 59.0006 113.707 58.9914 113.664 58.9734C113.62 58.9554 113.58 58.929 113.547 58.8957L114.295 56.8535C114.528 56.2095 114.954 55.653 115.515 55.2595C116.076 54.866 116.744 54.6547 117.429 54.6543H121.85C122.536 54.6543 123.206 54.8653 123.768 55.2587C124.33 55.6521 124.757 56.2089 124.992 56.8535L125.74 58.8957C125.708 58.9288 125.67 58.9551 125.627 58.9731C125.585 58.9911 125.539 59.0004 125.493 59.0004Z" fill="#407BFF"/>
<path opacity="0.7" d="M124.491 45.6328H114.766C113.824 45.6367 112.922 46.0136 112.258 46.681C111.593 47.3483 111.22 48.2517 111.22 49.1935V58.9182C111.22 59.8625 111.595 60.7682 112.263 61.436C112.931 62.1037 113.837 62.4789 114.781 62.4789H124.506C125.45 62.4789 126.356 62.1037 127.024 61.436C127.691 60.7682 128.066 59.8625 128.066 58.9182V49.1935C128.066 48.7246 127.974 48.2604 127.794 47.8274C127.614 47.3944 127.35 47.0012 127.018 46.6704C126.686 46.3395 126.292 46.0776 125.858 45.8995C125.424 45.7214 124.96 45.6308 124.491 45.6328ZM119.651 49.0738C121.11 49.0738 121.895 50.2632 121.895 51.7219C121.895 53.1806 121.11 54.37 119.651 54.37C118.192 54.37 117.407 53.1881 117.407 51.7219C117.407 50.2557 118.185 49.0738 119.651 49.0738ZM125.493 59.0004H113.801C113.754 59.0006 113.707 58.9914 113.664 58.9734C113.62 58.9554 113.58 58.929 113.547 58.8957L114.295 56.8535C114.528 56.2095 114.954 55.653 115.515 55.2595C116.076 54.866 116.744 54.6547 117.429 54.6543H121.85C122.536 54.6543 123.206 54.8653 123.768 55.2587C124.33 55.6521 124.757 56.2089 124.992 56.8535L125.74 58.8957C125.708 58.9288 125.67 58.9551 125.627 58.9731C125.585 58.9911 125.539 59.0004 125.493 59.0004Z" fill="white"/>
<path d="M90.0206 85.4889H82.6598C82.0304 85.488 81.4071 85.6111 80.8253 85.8512C80.2436 86.0914 79.715 86.4439 79.2696 86.8885C78.8243 87.3332 78.4709 87.8613 78.2299 88.4426C77.9888 89.024 77.8647 89.6471 77.8647 90.2765V97.6373C77.8647 98.909 78.3699 100.129 79.2692 101.028C80.1684 101.927 81.388 102.432 82.6598 102.432H90.0206C90.6499 102.432 91.2731 102.308 91.8544 102.067C92.4357 101.826 92.9639 101.473 93.4085 101.027C93.8532 100.582 94.2057 100.053 94.4458 99.4717C94.686 98.89 94.8091 98.2666 94.8081 97.6373V90.2765C94.8091 89.6475 94.6859 89.0245 94.4457 88.4432C94.2054 87.8619 93.8528 87.3337 93.4081 86.889C92.9633 86.4442 92.4351 86.0916 91.8538 85.8514C91.2726 85.6111 90.6496 85.488 90.0206 85.4889ZM86.3402 97.9739C86.3402 97.9739 83.348 94.69 83.348 93.0143C83.348 92.2118 83.6668 91.4422 84.2342 90.8747C84.8017 90.3073 85.5713 89.9885 86.3738 89.9885C87.1763 89.9885 87.946 90.3073 88.5134 90.8747C89.0809 91.4422 89.3997 92.2118 89.3997 93.0143C89.3623 94.69 86.3402 97.9739 86.3402 97.9739Z" fill="#407BFF"/>
<path d="M86.3402 91.6379C86.0658 91.6365 85.7972 91.7165 85.5685 91.868C85.3398 92.0195 85.1613 92.2356 85.0556 92.4888C84.9499 92.7419 84.9219 93.0208 84.9751 93.29C85.0282 93.5591 85.1602 93.8064 85.3542 94.0004C85.5481 94.1944 85.7954 94.3263 86.0646 94.3795C86.3337 94.4326 86.6126 94.4046 86.8658 94.2989C87.1189 94.1933 87.335 94.0147 87.4865 93.786C87.638 93.5573 87.7181 93.2887 87.7166 93.0143C87.7166 92.6493 87.5716 92.2992 87.3134 92.0411C87.0553 91.7829 86.7052 91.6379 86.3402 91.6379Z" fill="#407BFF"/>
<g opacity="0.7">
<path opacity="0.7" d="M90.0206 85.4889H82.6598C82.0304 85.488 81.4071 85.6111 80.8253 85.8512C80.2436 86.0914 79.715 86.4439 79.2696 86.8885C78.8243 87.3332 78.4709 87.8613 78.2299 88.4426C77.9888 89.024 77.8647 89.6471 77.8647 90.2765V97.6373C77.8647 98.909 78.3699 100.129 79.2692 101.028C80.1684 101.927 81.388 102.432 82.6598 102.432H90.0206C90.6499 102.432 91.2731 102.308 91.8544 102.067C92.4357 101.826 92.9639 101.473 93.4085 101.027C93.8532 100.582 94.2057 100.053 94.4458 99.4717C94.686 98.89 94.8091 98.2666 94.8081 97.6373V90.2765C94.8091 89.6475 94.6859 89.0245 94.4457 88.4432C94.2054 87.8619 93.8528 87.3337 93.4081 86.889C92.9633 86.4442 92.4351 86.0916 91.8538 85.8514C91.2726 85.6111 90.6496 85.488 90.0206 85.4889ZM86.3402 97.9739C86.3402 97.9739 83.348 94.69 83.348 93.0143C83.348 92.2118 83.6668 91.4422 84.2342 90.8747C84.8017 90.3073 85.5713 89.9885 86.3738 89.9885C87.1763 89.9885 87.946 90.3073 88.5134 90.8747C89.0809 91.4422 89.3997 92.2118 89.3997 93.0143C89.3623 94.69 86.3402 97.9739 86.3402 97.9739Z" fill="white"/>
<path opacity="0.7" d="M86.3402 91.6379C86.0658 91.6365 85.7972 91.7166 85.5685 91.8681C85.3398 92.0196 85.1613 92.2356 85.0556 92.4888C84.9499 92.742 84.9219 93.0208 84.9751 93.29C85.0282 93.5591 85.1602 93.8064 85.3542 94.0004C85.5481 94.1944 85.7954 94.3263 86.0646 94.3795C86.3337 94.4326 86.6126 94.4046 86.8658 94.2989C87.1189 94.1933 87.335 94.0147 87.4865 93.786C87.638 93.5573 87.7181 93.2887 87.7166 93.0144C87.7166 92.6493 87.5716 92.2992 87.3134 92.0411C87.0553 91.783 86.7052 91.6379 86.3402 91.6379Z" fill="white"/>
</g>
<path d="M251.63 64.6258L256.559 61.4391L251.63 58.2449V64.6258Z" fill="#407BFF"/>
<path d="M257.98 52.7392H248.585C247.524 52.7392 246.506 53.1609 245.755 53.9114C245.005 54.662 244.583 55.6799 244.583 56.7413V66.1368C244.585 67.1977 245.007 68.2145 245.757 68.9646C246.507 69.7147 247.524 70.1369 248.585 70.1389H257.98C259.042 70.1389 260.06 69.7173 260.81 68.9667C261.561 68.2162 261.983 67.1983 261.983 66.1368V56.7413C261.984 56.2155 261.881 55.6946 261.68 55.2086C261.479 54.7226 261.184 54.2811 260.813 53.9092C260.441 53.5374 259.999 53.2427 259.513 53.0419C259.027 52.8411 258.506 52.7383 257.98 52.7392ZM253.283 67.7003C252.044 67.7003 250.833 67.3329 249.803 66.6445C248.774 65.9562 247.971 64.9779 247.497 63.8334C247.024 62.6889 246.9 61.4296 247.142 60.2148C247.385 59.0001 247.982 57.8845 248.858 57.0091C249.734 56.1338 250.851 55.538 252.066 55.2973C253.281 55.0566 254.54 55.1816 255.684 55.6567C256.828 56.1317 257.805 56.9354 258.492 57.966C259.179 58.9966 259.545 60.2079 259.544 61.4466C259.543 62.2678 259.38 63.0808 259.065 63.8392C258.75 64.5975 258.288 65.2864 257.707 65.8664C257.126 66.4464 256.436 66.9063 255.676 67.2196C254.917 67.533 254.104 67.6938 253.283 67.6928V67.7003Z" fill="#407BFF"/>
<g opacity="0.7">
<path opacity="0.7" d="M251.63 64.6257L256.559 61.439L251.63 58.2448V64.6257Z" fill="white"/>
<path opacity="0.7" d="M257.98 52.7392H248.585C247.524 52.7392 246.506 53.1609 245.755 53.9114C245.005 54.662 244.583 55.6799 244.583 56.7413V66.1368C244.585 67.1977 245.007 68.2145 245.757 68.9646C246.507 69.7147 247.524 70.1369 248.585 70.1389H257.98C259.042 70.1389 260.06 69.7173 260.81 68.9667C261.561 68.2162 261.983 67.1983 261.983 66.1368V56.7413C261.984 56.2155 261.881 55.6946 261.68 55.2086C261.479 54.7226 261.184 54.2811 260.813 53.9092C260.441 53.5374 259.999 53.2427 259.513 53.0419C259.027 52.8411 258.506 52.7383 257.98 52.7392ZM253.283 67.7003C252.044 67.7003 250.833 67.3329 249.803 66.6445C248.774 65.9562 247.971 64.9779 247.497 63.8334C247.024 62.6889 246.9 61.4296 247.142 60.2148C247.385 59.0001 247.982 57.8845 248.858 57.0091C249.734 56.1338 250.851 55.538 252.066 55.2973C253.281 55.0566 254.54 55.1816 255.684 55.6567C256.828 56.1317 257.805 56.9354 258.492 57.966C259.179 58.9966 259.545 60.2079 259.544 61.4466C259.543 62.2678 259.38 63.0808 259.065 63.8392C258.75 64.5975 258.288 65.2864 257.707 65.8664C257.126 66.4464 256.436 66.9063 255.676 67.2196C254.917 67.533 254.104 67.6938 253.283 67.6928V67.7003Z" fill="white"/>
</g>
<path d="M267.204 88.7728C267.204 88.5783 267.204 88.3839 267.204 88.1968L268.334 87.5685C268.251 87.0336 268.111 86.5094 267.915 86.005H266.628C266.464 85.6539 266.269 85.3184 266.044 85.0027L266.71 83.903C266.369 83.4809 265.986 83.0949 265.566 82.751L264.459 83.4168C264.144 83.1963 263.811 83.0035 263.464 82.8408V81.5467C262.958 81.3555 262.434 81.2151 261.9 81.1277L261.272 82.2573C261.085 82.2573 260.89 82.2573 260.696 82.2573C260.501 82.2573 260.314 82.2573 260.12 82.2573L259.492 81.1277C258.958 81.217 258.435 81.3573 257.928 81.5467V82.8408C257.58 83.0019 257.246 83.1947 256.933 83.4168L255.826 82.751C255.402 83.0928 255.016 83.479 254.674 83.903L255.34 85.0027C255.12 85.3203 254.928 85.6555 254.764 86.005H253.477C253.282 86.5102 253.139 87.0341 253.051 87.5685L254.18 88.1968C254.18 88.3839 254.18 88.5783 254.18 88.7728C254.18 88.9673 254.18 89.1618 254.18 89.3488L253.051 89.9772C253.138 90.5118 253.281 91.0357 253.477 91.5406H254.764C254.928 91.8901 255.12 92.2254 255.34 92.543L254.674 93.6501C255.018 94.07 255.404 94.4535 255.826 94.7946L256.933 94.1289C257.245 94.3537 257.578 94.5467 257.928 94.7049V95.999C258.434 96.1918 258.957 96.3322 259.492 96.4179L260.12 95.2884C260.314 95.2884 260.501 95.2884 260.696 95.2884C260.89 95.2884 261.085 95.2884 261.272 95.2884L261.9 96.4179C262.435 96.3341 262.959 96.1937 263.464 95.999V94.7049C263.813 94.545 264.146 94.3521 264.459 94.1289L265.566 94.7946C265.984 94.4515 266.367 94.0681 266.71 93.6501L266.044 92.543C266.269 92.2273 266.464 91.8918 266.628 91.5406H267.915C268.112 91.0366 268.252 90.5122 268.334 89.9772L267.204 89.3488C267.189 89.1394 267.204 88.9673 267.204 88.7728ZM260.681 93.2013C259.805 93.2013 258.949 92.9416 258.221 92.455C257.492 91.9684 256.925 91.2767 256.59 90.4675C256.254 89.6583 256.167 88.7679 256.338 87.9089C256.508 87.0498 256.93 86.2608 257.55 85.6414C258.169 85.0221 258.958 84.6003 259.817 84.4295C260.676 84.2586 261.566 84.3463 262.376 84.6815C263.185 85.0166 263.876 85.5843 264.363 86.3125C264.85 87.0408 265.109 87.897 265.109 88.7728C265.109 89.9473 264.643 91.0737 263.812 91.9042C262.982 92.7347 261.855 93.2013 260.681 93.2013Z" fill="#407BFF"/>
<path opacity="0.7" d="M267.204 88.7728C267.204 88.5783 267.204 88.3839 267.204 88.1968L268.334 87.5685C268.251 87.0336 268.111 86.5094 267.915 86.005H266.628C266.464 85.6539 266.269 85.3184 266.044 85.0027L266.71 83.903C266.369 83.4809 265.986 83.0949 265.566 82.751L264.459 83.4168C264.144 83.1963 263.811 83.0035 263.464 82.8408V81.5467C262.958 81.3555 262.434 81.2151 261.9 81.1277L261.272 82.2573C261.085 82.2573 260.89 82.2573 260.696 82.2573C260.501 82.2573 260.314 82.2573 260.12 82.2573L259.492 81.1277C258.958 81.217 258.435 81.3573 257.928 81.5467V82.8408C257.58 83.0019 257.246 83.1947 256.933 83.4168L255.826 82.751C255.402 83.0928 255.016 83.479 254.674 83.903L255.34 85.0027C255.12 85.3203 254.928 85.6555 254.764 86.005H253.477C253.282 86.5102 253.139 87.0341 253.051 87.5685L254.18 88.1968C254.18 88.3839 254.18 88.5783 254.18 88.7728C254.18 88.9673 254.18 89.1618 254.18 89.3488L253.051 89.9772C253.138 90.5118 253.281 91.0357 253.477 91.5406H254.764C254.928 91.8901 255.12 92.2254 255.34 92.543L254.674 93.6501C255.018 94.07 255.404 94.4535 255.826 94.7946L256.933 94.1289C257.245 94.3537 257.578 94.5467 257.928 94.7049V95.999C258.434 96.1918 258.957 96.3322 259.492 96.4179L260.12 95.2884C260.314 95.2884 260.501 95.2884 260.696 95.2884C260.89 95.2884 261.085 95.2884 261.272 95.2884L261.9 96.4179C262.435 96.3341 262.959 96.1937 263.464 95.999V94.7049C263.813 94.545 264.146 94.3521 264.459 94.1289L265.566 94.7946C265.984 94.4515 266.367 94.0681 266.71 93.6501L266.044 92.543C266.269 92.2273 266.464 91.8918 266.628 91.5406H267.915C268.112 91.0366 268.252 90.5122 268.334 89.9772L267.204 89.3488C267.189 89.1394 267.204 88.9673 267.204 88.7728ZM260.681 93.2013C259.805 93.2013 258.949 92.9416 258.221 92.455C257.492 91.9684 256.925 91.2767 256.59 90.4675C256.254 89.6583 256.167 88.7679 256.338 87.9089C256.508 87.0498 256.93 86.2608 257.55 85.6414C258.169 85.0221 258.958 84.6003 259.817 84.4295C260.676 84.2586 261.566 84.3463 262.376 84.6815C263.185 85.0166 263.876 85.5843 264.363 86.3125C264.85 87.0408 265.109 87.897 265.109 88.7728C265.109 89.9473 264.643 91.0737 263.812 91.9042C262.982 92.7347 261.855 93.2013 260.681 93.2013Z" fill="white"/>
<path d="M250.156 111.012C250.156 110.721 250.156 110.436 250.118 110.152L251.809 109.217C251.682 108.414 251.471 107.627 251.181 106.868L249.251 106.906C249.007 106.382 248.717 105.881 248.383 105.409L249.378 103.756C248.868 103.127 248.294 102.553 247.665 102.043L246.012 103.031C245.538 102.702 245.038 102.414 244.516 102.17V100.24C243.759 99.9489 242.975 99.7383 242.174 99.6121L241.239 101.303C240.955 101.303 240.671 101.303 240.379 101.303C240.087 101.303 239.803 101.303 239.519 101.303L238.606 99.6121C237.806 99.7402 237.021 99.9508 236.265 100.24V102.17C235.742 102.414 235.242 102.702 234.768 103.031L233.153 102.043C232.521 102.553 231.944 103.127 231.432 103.756L232.427 105.409C232.096 105.881 231.808 106.382 231.567 106.906L229.637 106.868C229.343 107.626 229.132 108.414 229.008 109.217L230.699 110.152C230.639 110.724 230.639 111.301 230.699 111.873L229.008 112.815C229.133 113.616 229.344 114.401 229.637 115.157L231.567 115.119C231.806 115.644 232.094 116.144 232.427 116.615L231.432 118.268C231.944 118.898 232.521 119.472 233.153 119.981L234.806 118.994C235.277 119.326 235.778 119.614 236.302 119.854V121.784C237.058 122.077 237.843 122.288 238.643 122.413L239.586 120.722C240.158 120.782 240.734 120.782 241.306 120.722L242.241 122.413C243.043 122.29 243.828 122.079 244.583 121.784V119.854C245.106 119.613 245.607 119.325 246.079 118.994L247.732 119.981C248.361 119.472 248.936 118.898 249.445 118.268L248.45 116.615C248.785 116.145 249.076 115.644 249.318 115.119L251.248 115.157C251.538 114.4 251.748 113.615 251.876 112.815L250.186 111.873C250.141 111.581 250.156 111.304 250.156 111.012ZM240.431 114.857C239.671 114.857 238.927 114.632 238.295 114.209C237.663 113.787 237.17 113.186 236.879 112.484C236.588 111.781 236.512 111.008 236.66 110.262C236.808 109.516 237.175 108.831 237.712 108.294C238.25 107.756 238.935 107.39 239.681 107.241C240.427 107.093 241.2 107.169 241.903 107.46C242.605 107.751 243.206 108.244 243.628 108.876C244.051 109.509 244.276 110.252 244.276 111.012C244.276 111.519 244.176 112.021 243.981 112.489C243.787 112.957 243.502 113.382 243.142 113.739C242.783 114.096 242.356 114.379 241.887 114.571C241.418 114.763 240.916 114.86 240.409 114.857H240.431Z" fill="#407BFF"/>
<path opacity="0.7" d="M250.156 111.012C250.156 110.721 250.156 110.436 250.118 110.152L251.809 109.217C251.682 108.414 251.471 107.627 251.181 106.868L249.251 106.906C249.007 106.382 248.717 105.881 248.383 105.409L249.378 103.756C248.868 103.127 248.294 102.553 247.665 102.043L246.012 103.031C245.538 102.702 245.038 102.414 244.516 102.17V100.24C243.759 99.9489 242.975 99.7383 242.174 99.6121L241.239 101.303C240.955 101.303 240.671 101.303 240.379 101.303C240.087 101.303 239.803 101.303 239.519 101.303L238.606 99.6121C237.806 99.7402 237.021 99.9508 236.265 100.24V102.17C235.742 102.414 235.242 102.702 234.768 103.031L233.153 102.043C232.521 102.553 231.944 103.127 231.432 103.756L232.427 105.409C232.096 105.881 231.808 106.382 231.567 106.906L229.637 106.868C229.343 107.626 229.132 108.414 229.008 109.217L230.699 110.152C230.639 110.724 230.639 111.301 230.699 111.873L229.008 112.815C229.133 113.616 229.344 114.401 229.637 115.157L231.567 115.119C231.806 115.644 232.094 116.144 232.427 116.615L231.432 118.268C231.944 118.898 232.521 119.472 233.153 119.981L234.806 118.994C235.277 119.326 235.778 119.614 236.302 119.854V121.784C237.058 122.077 237.843 122.288 238.643 122.413L239.586 120.722C240.158 120.782 240.734 120.782 241.306 120.722L242.241 122.413C243.043 122.29 243.828 122.079 244.583 121.784V119.854C245.106 119.613 245.607 119.325 246.079 118.994L247.732 119.981C248.361 119.472 248.936 118.898 249.445 118.268L248.45 116.615C248.785 116.145 249.076 115.644 249.318 115.119L251.248 115.157C251.538 114.4 251.748 113.615 251.876 112.815L250.186 111.873C250.141 111.581 250.156 111.304 250.156 111.012ZM240.431 114.857C239.671 114.857 238.927 114.632 238.295 114.209C237.663 113.787 237.17 113.186 236.879 112.484C236.588 111.781 236.512 111.008 236.66 110.262C236.808 109.516 237.175 108.831 237.712 108.294C238.25 107.756 238.935 107.39 239.681 107.241C240.427 107.093 241.2 107.169 241.903 107.46C242.605 107.751 243.206 108.244 243.628 108.876C244.051 109.509 244.276 110.252 244.276 111.012C244.276 111.519 244.176 112.021 243.981 112.489C243.787 112.957 243.502 113.382 243.142 113.739C242.783 114.096 242.356 114.379 241.887 114.571C241.418 114.763 240.916 114.86 240.409 114.857H240.431Z" fill="white"/>
<path d="M222.68 67.6404V71.5602L218.94 73.5276C218.794 73.6056 218.673 73.7216 218.588 73.8632C218.503 74.0048 218.459 74.1667 218.459 74.3317C218.459 74.4967 218.503 74.6587 218.588 74.8003C218.673 74.9419 218.794 75.0578 218.94 75.1359L222.68 77.1033V81.023C222.68 81.4416 222.846 81.8431 223.142 82.1391C223.438 82.4351 223.84 82.6014 224.258 82.6014H237.641C238.06 82.6014 238.463 82.4354 238.76 82.1396C239.057 81.8438 239.225 81.4423 239.227 81.023V67.6404C239.227 67.2198 239.06 66.8164 238.762 66.519C238.465 66.2216 238.062 66.0545 237.641 66.0545H224.236C223.82 66.0604 223.423 66.2304 223.132 66.5274C222.84 66.8243 222.678 67.2244 222.68 67.6404Z" fill="#407BFF"/>
<g opacity="0.9">
<path opacity="0.9" d="M227.258 71.7248H234.866C235.114 71.7248 235.352 71.6263 235.527 71.4509C235.702 71.2756 235.801 71.0377 235.801 70.7897C235.801 70.5417 235.702 70.3039 235.527 70.1285C235.352 69.9532 235.114 69.8547 234.866 69.8547H227.258C227.01 69.8547 226.772 69.9532 226.597 70.1285C226.421 70.3039 226.323 70.5417 226.323 70.7897C226.323 71.0377 226.421 71.2756 226.597 71.4509C226.772 71.6263 227.01 71.7248 227.258 71.7248Z" fill="white"/>
<path opacity="0.9" d="M234.866 73.4303H227.258C227.01 73.4303 226.772 73.5288 226.597 73.7042C226.421 73.8795 226.323 74.1174 226.323 74.3654C226.323 74.6134 226.421 74.8512 226.597 75.0265C226.772 75.2019 227.01 75.3004 227.258 75.3004H234.866C235.114 75.3004 235.352 75.2019 235.527 75.0265C235.702 74.8512 235.801 74.6134 235.801 74.3654C235.801 74.1174 235.702 73.8795 235.527 73.7042C235.352 73.5288 235.114 73.4303 234.866 73.4303Z" fill="white"/>
<path opacity="0.9" d="M234.866 76.9386H227.258C227.01 76.9386 226.772 77.0372 226.597 77.2125C226.421 77.3879 226.323 77.6257 226.323 77.8737C226.323 78.1217 226.421 78.3595 226.597 78.5349C226.772 78.7103 227.01 78.8088 227.258 78.8088H234.866C235.114 78.8088 235.352 78.7103 235.527 78.5349C235.702 78.3595 235.801 78.1217 235.801 77.8737C235.801 77.6257 235.702 77.3879 235.527 77.2125C235.352 77.0372 235.114 76.9386 234.866 76.9386Z" fill="white"/>
</g>
<path d="M147.052 61.4615H150.246L151.892 64.5809C152 64.7843 152.162 64.9544 152.36 65.0729C152.557 65.1915 152.783 65.2542 153.014 65.2542C153.244 65.2542 153.471 65.1915 153.668 65.0729C153.866 64.9544 154.028 64.7843 154.136 64.5809L155.782 61.4615H158.976C159.279 61.4615 159.579 61.4017 159.859 61.2855C160.139 61.1692 160.394 60.9988 160.608 60.7841C160.822 60.5693 160.991 60.3145 161.107 60.0341C161.222 59.7537 161.281 59.4533 161.28 59.1501V47.2486C161.28 46.6375 161.037 46.0515 160.605 45.6194C160.173 45.1873 159.587 44.9446 158.976 44.9446H147.052C146.749 44.9436 146.449 45.0025 146.169 45.1179C145.889 45.2334 145.635 45.4031 145.421 45.6172C145.206 45.8313 145.037 46.0857 144.921 46.3657C144.806 46.6457 144.747 46.9457 144.748 47.2486V59.2174C144.764 59.818 145.013 60.3888 145.444 60.808C145.874 61.2272 146.451 61.4617 147.052 61.4615Z" fill="#407BFF"/>
<path opacity="0.9" d="M153.021 48.5128L149.341 50.6672V56.9657H152.079V52.7393H153.971V56.9657H156.709V50.6672L153.021 48.5128Z" fill="white"/>
<path d="M182.884 232.608H180.041L178.208 229.122C178.117 228.953 177.982 228.812 177.818 228.714C177.653 228.616 177.465 228.564 177.273 228.564C177.082 228.564 176.893 228.616 176.729 228.714C176.564 228.812 176.429 228.953 176.338 229.122L174.505 232.608H171.588C170.892 232.608 170.224 232.885 169.731 233.377C169.239 233.87 168.962 234.537 168.962 235.234V246.529C168.962 247.226 169.239 247.894 169.731 248.386C170.224 248.878 170.892 249.155 171.588 249.155H182.884C183.58 249.155 184.248 248.878 184.74 248.386C185.233 247.894 185.509 247.226 185.509 246.529V235.234C185.509 234.537 185.233 233.87 184.74 233.377C184.248 232.885 183.58 232.608 182.884 232.608Z" fill="#407BFF"/>
<path opacity="0.9" d="M178.837 236.924C178.288 236.376 177.595 235.994 176.837 235.825C176.08 235.656 175.29 235.707 174.56 235.97C173.83 236.234 173.191 236.7 172.716 237.314C172.242 237.928 171.952 238.664 171.881 239.437C171.81 240.21 171.96 240.987 172.314 241.677C172.669 242.367 173.213 242.943 173.882 243.335C174.551 243.728 175.319 243.921 176.094 243.893C176.87 243.866 177.621 243.618 178.261 243.178C178.292 243.364 178.378 243.536 178.508 243.672L181.051 246.208C181.223 246.379 181.455 246.476 181.698 246.476C181.941 246.476 182.173 246.379 182.345 246.208C182.517 246.036 182.613 245.803 182.613 245.561C182.613 245.318 182.517 245.085 182.345 244.914L179.809 242.378C179.673 242.243 179.497 242.154 179.308 242.123C179.846 241.337 180.093 240.388 180.007 239.439C179.921 238.49 179.507 237.601 178.837 236.924ZM177.969 241.839C177.568 242.239 177.058 242.512 176.502 242.622C175.946 242.732 175.37 242.675 174.847 242.458C174.324 242.242 173.877 241.874 173.562 241.403C173.247 240.932 173.079 240.378 173.079 239.812C173.079 239.245 173.247 238.692 173.562 238.221C173.877 237.749 174.324 237.382 174.847 237.165C175.37 236.948 175.946 236.891 176.502 237.002C177.058 237.112 177.568 237.384 177.969 237.785C178.235 238.051 178.447 238.367 178.591 238.715C178.735 239.062 178.809 239.435 178.809 239.812C178.809 240.188 178.735 240.561 178.591 240.909C178.447 241.257 178.235 241.573 177.969 241.839Z" fill="white"/>
<path d="M303.686 157.384C303.686 157.384 297.59 172.495 291.62 174.126C285.651 175.756 276.659 174.432 276.659 174.432L273.877 175.18L271.146 174.776H271.049L267.974 174.702C267.864 174.711 267.752 174.688 267.654 174.636C267.555 174.584 267.474 174.505 267.419 174.409C267.364 174.312 267.338 174.202 267.343 174.09C267.349 173.979 267.386 173.872 267.451 173.781L268.55 172.285C268.643 172.162 268.771 172.071 268.917 172.023L271.849 171.081C271.965 171.055 272.085 171.055 272.201 171.081L276.689 171.792C276.689 171.792 289.144 169.749 290.416 168.597C291.688 167.445 295.435 155.364 295.435 155.364L303.686 157.384Z" fill="#EEC1BB"/>
<path opacity="0.1" d="M276.966 171.694L276.674 171.739L272.186 171.029C272.07 171.003 271.95 171.003 271.834 171.029L268.902 171.971C268.756 172.019 268.628 172.11 268.535 172.233L267.436 173.729C267.371 173.82 267.334 173.927 267.328 174.038C267.323 174.149 267.349 174.26 267.404 174.356C267.459 174.453 267.54 174.532 267.639 174.584C267.737 174.636 267.849 174.658 267.959 174.649L271.034 174.724H271.131L272.964 174.993C274.527 174.206 275.895 173.078 276.966 171.694Z" fill="black"/>
<path d="M307.367 142.416C302.938 140.964 296.707 144.293 294.321 158.237L303.514 160.952C303.514 160.952 313.695 144.495 307.367 142.416Z" fill="#407BFF"/>
<path d="M281.604 124.193C281.604 124.657 281.851 125.023 282.15 125.023C282.449 125.023 282.711 124.627 282.689 124.178C282.666 123.729 282.442 123.355 282.143 123.363C281.843 123.37 281.604 123.737 281.604 124.193Z" fill="#263238"/>
<path d="M283.414 124.649L281.237 128.248C281.237 128.248 281.985 129.1 283.624 128.472L283.414 124.649Z" fill="#D4827D"/>
<path d="M283.826 121.306C283.799 121.336 283.765 121.359 283.727 121.372C283.689 121.385 283.648 121.388 283.609 121.38C283.314 121.33 283.012 121.35 282.727 121.44C282.442 121.53 282.183 121.686 281.97 121.897C281.925 121.939 281.865 121.963 281.802 121.963C281.74 121.963 281.68 121.939 281.634 121.897C281.591 121.85 281.567 121.788 281.567 121.725C281.567 121.661 281.591 121.599 281.634 121.552C281.898 121.282 282.224 121.08 282.584 120.964C282.944 120.848 283.326 120.822 283.698 120.887C283.73 120.89 283.76 120.9 283.788 120.916C283.816 120.931 283.84 120.952 283.86 120.977C283.879 121.003 283.893 121.031 283.902 121.062C283.91 121.093 283.912 121.125 283.908 121.156C283.896 121.213 283.868 121.265 283.826 121.306Z" fill="#263238"/>
<path d="M299.206 120.932C299.542 127.013 299.819 129.587 297.133 133.043C292.847 136.745 285.546 137.336 283.392 131.479C281.454 126.243 281.23 117.169 286.855 114.035C287.809 113.503 288.859 113.164 289.944 113.039C291.029 112.913 292.128 113.002 293.179 113.302C294.229 113.601 295.21 114.105 296.066 114.784C296.922 115.463 297.635 116.304 298.166 117.259C298.788 118.388 299.144 119.644 299.206 120.932Z" fill="#EEC1BB"/>
<path d="M290.73 134.239L292.271 143.253L299.782 141.518L297.156 132.317L290.73 134.239Z" fill="#EEC1BB"/>
<path d="M285.322 121.38C285.703 117.431 284.342 121.994 282.517 116.78C280.691 111.566 289.316 107.332 290.693 108.304C292.069 109.277 291.284 110.766 295.847 111.611C297.092 111.809 298.222 112.453 299.026 113.424C299.83 114.394 300.253 115.625 300.215 116.885C300.215 116.885 302.841 118.096 301.906 123.737C301.22 127.351 299.681 130.749 297.418 133.648C297.418 133.648 295.69 131.868 292.929 133.506C291.852 132.803 290.941 131.874 290.259 130.783C289.032 128.943 288.651 127.193 286.967 127.043C283.452 126.721 285.195 122.682 285.322 121.38Z" fill="#263238"/>
<path d="M299.729 117.565C299.729 117.565 303.469 115.276 301.809 112.875C300.148 110.474 300.949 115.523 299.729 117.565Z" fill="#263238"/>
<path d="M286.391 123.677C285.562 124.604 285.134 125.823 285.202 127.066C285.307 128.711 286.923 129.003 288.194 128.105C289.466 127.208 290.67 125.457 289.937 124.014C289.775 123.699 289.535 123.429 289.242 123.231C288.948 123.032 288.609 122.911 288.256 122.877C287.903 122.844 287.548 122.899 287.222 123.039C286.896 123.179 286.61 123.398 286.391 123.677Z" fill="#FFC3BD"/>
<path opacity="0.1" d="M290.872 135.092L291.486 138.668C291.432 137.782 291.553 136.895 291.844 136.057C292.134 135.218 292.587 134.446 293.176 133.783C292.718 133.812 292.273 133.946 291.874 134.172C291.474 134.399 291.132 134.714 290.872 135.092Z" fill="black"/>
<path d="M238.067 158.342H235.92V171.006H238.067V158.342Z" fill="#407BFF"/>
<path opacity="0.7" d="M238.067 158.342H235.92V171.006H238.067V158.342Z" fill="white"/>
<path d="M223.316 133.192H217.967C217.005 133.192 216.082 133.574 215.402 134.255C214.721 134.935 214.339 135.858 214.339 136.82V161.603C214.339 162.08 214.433 162.551 214.615 162.991C214.798 163.432 215.065 163.832 215.402 164.169C215.739 164.505 216.139 164.773 216.579 164.955C217.019 165.137 217.491 165.231 217.967 165.231H223.316V133.192Z" fill="#407BFF"/>
<path d="M256.028 133.192H219.837C217.834 133.192 216.209 134.816 216.209 136.82V161.596C216.209 163.599 217.834 165.224 219.837 165.224H256.028C258.032 165.224 259.656 163.599 259.656 161.596V136.82C259.656 134.816 258.032 133.192 256.028 133.192Z" fill="#407BFF"/>
<path opacity="0.5" d="M256.028 133.192H219.837C217.834 133.192 216.209 134.816 216.209 136.82V161.596C216.209 163.599 217.834 165.224 219.837 165.224H256.028C258.032 165.224 259.656 163.599 259.656 161.596V136.82C259.656 134.816 258.032 133.192 256.028 133.192Z" fill="white"/>
<path d="M256.028 134.688H219.837C218.66 134.688 217.705 135.643 217.705 136.82V161.596C217.705 162.773 218.66 163.728 219.837 163.728H256.028C257.205 163.728 258.16 162.773 258.16 161.596V136.82C258.16 135.643 257.205 134.688 256.028 134.688Z" fill="#263238"/>
<path d="M229.181 176.317C229.243 174.287 230.094 172.361 231.553 170.947C233.011 169.533 234.963 168.742 236.994 168.742C239.025 168.742 240.977 169.533 242.435 170.947C243.894 172.361 244.744 174.287 244.807 176.317H229.181Z" fill="#407BFF"/>
<path d="M247.62 173.654H231.993V176.19H263.247V175.15L247.62 173.654Z" fill="#407BFF"/>
<path opacity="0.8" d="M247.62 173.654H231.993V176.19H263.247V175.15L247.62 173.654Z" fill="white"/>
<path d="M247.62 176.19H231.993V173.654L247.62 175.15V176.19Z" fill="#407BFF"/>
<path opacity="0.6" d="M247.62 176.19H231.993V173.654L247.62 175.15V176.19Z" fill="white"/>
<path d="M282.075 263.495H249.842C249.199 263.496 248.562 263.37 247.967 263.125C247.373 262.879 246.833 262.519 246.377 262.065C245.922 261.61 245.561 261.071 245.315 260.477C245.069 259.883 244.942 259.246 244.942 258.603V184.486C244.942 183.843 245.069 183.206 245.315 182.612C245.561 182.018 245.922 181.478 246.377 181.024C246.833 180.57 247.373 180.209 247.967 179.964C248.562 179.719 249.199 179.593 249.842 179.594H282.075C282.422 179.594 282.755 179.732 283.001 179.977C283.246 180.223 283.384 180.556 283.384 180.903C283.384 181.25 283.246 181.583 283.001 181.828C282.755 182.074 282.422 182.212 282.075 182.212H249.842C249.544 182.207 249.248 182.261 248.971 182.372C248.695 182.482 248.443 182.647 248.231 182.856C248.018 183.065 247.85 183.314 247.734 183.589C247.619 183.863 247.56 184.158 247.56 184.456V258.573C247.56 258.871 247.619 259.166 247.734 259.44C247.85 259.715 248.018 259.964 248.231 260.173C248.443 260.382 248.695 260.547 248.971 260.657C249.248 260.768 249.544 260.822 249.842 260.817H282.075C282.422 260.817 282.755 260.955 283.001 261.201C283.246 261.446 283.384 261.779 283.384 262.126C283.392 262.303 283.365 262.48 283.302 262.646C283.24 262.811 283.145 262.963 283.023 263.091C282.9 263.219 282.753 263.321 282.59 263.39C282.428 263.46 282.252 263.495 282.075 263.495Z" fill="#263238"/>
<g opacity="0.5">
<path opacity="0.5" d="M282.075 263.495H249.842C249.199 263.496 248.562 263.37 247.967 263.125C247.373 262.879 246.833 262.519 246.377 262.065C245.922 261.61 245.561 261.071 245.315 260.477C245.069 259.883 244.942 259.246 244.942 258.603V184.486C244.942 183.843 245.069 183.206 245.315 182.612C245.561 182.018 245.922 181.478 246.377 181.024C246.833 180.57 247.373 180.209 247.967 179.964C248.562 179.719 249.199 179.593 249.842 179.594H282.075C282.422 179.594 282.755 179.732 283.001 179.977C283.246 180.223 283.384 180.556 283.384 180.903C283.384 181.25 283.246 181.583 283.001 181.828C282.755 182.074 282.422 182.212 282.075 182.212H249.842C249.544 182.207 249.248 182.261 248.971 182.372C248.695 182.482 248.443 182.647 248.231 182.856C248.018 183.065 247.85 183.314 247.734 183.589C247.619 183.863 247.56 184.158 247.56 184.456V258.573C247.56 258.871 247.619 259.166 247.734 259.44C247.85 259.715 248.018 259.964 248.231 260.173C248.443 260.382 248.695 260.547 248.971 260.657C249.248 260.768 249.544 260.822 249.842 260.817H282.075C282.422 260.817 282.755 260.955 283.001 261.201C283.246 261.446 283.384 261.779 283.384 262.126C283.392 262.303 283.365 262.48 283.302 262.646C283.24 262.811 283.145 262.963 283.023 263.091C282.9 263.219 282.753 263.321 282.59 263.39C282.428 263.46 282.252 263.495 282.075 263.495Z" fill="white"/>
</g>
<path d="M249.715 176.19H203.941V180.028H249.715V176.19Z" fill="#407BFF"/>
<path opacity="0.2" d="M249.715 176.19H203.941V180.028H249.715V176.19Z" fill="white"/>
<path d="M286.661 176.19H247.62V180.028H286.661V176.19Z" fill="#407BFF"/>
<path opacity="0.5" d="M286.661 176.19H247.62V180.028H286.661V176.19Z" fill="white"/>
<path d="M272.971 236.304L275.133 258.162H269.957L264.773 236.872L272.971 236.304Z" fill="#EEC1BB"/>
<path d="M269.471 256.703L276.076 256.815C276.196 256.818 276.313 256.862 276.405 256.939C276.497 257.017 276.561 257.123 276.585 257.241L277.692 262.635C277.738 262.864 277.693 263.102 277.566 263.298C277.438 263.494 277.239 263.632 277.011 263.682H276.824C274.438 263.6 272.336 263.435 269.343 263.383C265.85 263.323 266.725 263.757 262.611 263.75C260.135 263.75 259.731 260.914 260.778 260.795C265.603 260.271 266.127 258.827 268.012 257.137C268.428 256.818 268.948 256.664 269.471 256.703Z" fill="#263238"/>
<path opacity="0.1" d="M274.572 252.454L272.971 236.304L264.773 236.872L268.565 252.454H274.572Z" fill="black"/>
<path d="M308.414 185.907L287.184 186.655C287.184 186.655 258.586 196.657 257.838 204.339C257.016 212.254 266.62 248.616 266.62 248.616H275.156C275.156 248.616 272.799 221.933 271.902 213.765C271.004 205.596 301.667 208.296 306.993 201.332C311.863 194.944 308.414 185.907 308.414 185.907Z" fill="#263238"/>
<path opacity="0.2" d="M308.414 185.907L287.184 186.655C287.184 186.655 258.586 196.657 257.838 204.339C257.016 212.254 266.62 248.616 266.62 248.616H275.156C275.156 248.616 272.799 221.933 271.902 213.765C271.004 205.596 301.667 208.296 306.993 201.332C311.863 194.944 308.414 185.907 308.414 185.907Z" fill="black"/>
<path d="M276.577 247.419L276.764 250.434H266.217L265.184 247.419H276.577Z" fill="#407BFF"/>
<path d="M253.215 237.343L253.784 258.162H248.697L245.682 237.343H253.215Z" fill="#EEC1BB"/>
<path d="M247.994 256.703L254.599 256.815C254.72 256.818 254.836 256.861 254.928 256.939C255.021 257.016 255.084 257.123 255.108 257.241L256.215 262.635C256.262 262.864 256.217 263.102 256.089 263.298C255.962 263.494 255.763 263.632 255.534 263.682H255.347C252.961 263.6 250.859 263.435 247.867 263.383C244.366 263.323 245.249 263.757 241.134 263.749C238.658 263.749 238.254 260.914 239.302 260.795C244.127 260.271 244.65 258.827 246.535 257.137C246.951 256.817 247.471 256.662 247.994 256.703Z" fill="#263238"/>
<path opacity="0.1" d="M253.627 252.439L253.215 237.343H245.682L247.874 252.454C249.513 252.461 251.764 252.446 253.627 252.439Z" fill="black"/>
<path d="M299.183 187.665C299.183 187.665 300.949 203.808 284.529 204.564C268.109 205.319 255.287 207.197 254.913 213.039C254.539 218.881 254.913 248.646 254.913 248.646H245.989C245.989 248.646 242.518 229.825 241.164 218.156C239.848 206.823 237.424 198.602 249.071 194.764C261.436 190.68 283.414 186.91 283.414 186.91L299.243 185.907L299.183 187.665Z" fill="#263238"/>
<path d="M256.23 247.419L255.669 250.434H245.87L244.837 247.419H256.23Z" fill="#407BFF"/>
<path d="M302.721 141.353C302.721 141.353 302.721 137.718 295.368 138.137C287.558 138.586 289.032 142.071 289.032 142.071L302.721 141.353Z" fill="#407BFF"/>
<path opacity="0.3" d="M302.721 141.353C302.721 141.353 302.721 137.718 295.368 138.137C287.558 138.586 289.032 142.071 289.032 142.071L302.721 141.353Z" fill="black"/>
<path d="M309.574 157.661C309.08 164.85 309.252 186.476 309.252 186.476C309.252 186.476 293.543 187.508 281.215 187.104L279.786 145.505C279.792 144.77 280.019 144.053 280.438 143.448C280.857 142.844 281.448 142.38 282.135 142.116C285.621 140.762 293.805 139.229 306.604 140.912C311.017 141.503 310.157 149.163 309.574 157.661Z" fill="#407BFF"/>
<path d="M282.307 157.384C282.307 157.384 276.203 172.495 270.241 174.126C264.279 175.756 255.28 174.432 255.28 174.432L252.497 175.18L249.774 174.776H249.677L246.595 174.702C246.484 174.711 246.373 174.688 246.275 174.636C246.176 174.584 246.095 174.505 246.04 174.409C245.985 174.312 245.958 174.202 245.964 174.09C245.97 173.979 246.007 173.872 246.071 173.781L247.179 172.285C247.271 172.162 247.399 172.071 247.545 172.023L250.47 171.081C250.588 171.055 250.711 171.055 250.829 171.081L255.317 171.792C255.317 171.792 267.772 169.749 269.037 168.597C270.301 167.445 274.064 155.364 274.064 155.364L282.307 157.384Z" fill="#EEC1BB"/>
<path opacity="0.1" d="M282.15 150.352C282.15 150.352 281.2 151.482 280.048 153.113L280.459 165.156C285.045 163.129 286.863 151.325 286.863 151.325L283.871 149.215L282.15 150.352Z" fill="black"/>
<path d="M285.988 142.416C281.559 140.964 275.32 144.293 272.934 158.237L282.135 160.922C282.135 160.922 292.316 144.495 285.988 142.416Z" fill="#407BFF"/>
<path d="M291.845 212.396H284.925V232.675H291.845V212.396Z" fill="#263238"/>
<path opacity="0.6" d="M291.845 212.396H284.925V232.675H291.845V212.396Z" fill="white"/>
<path d="M292.914 251.048V225.285H283.848V251.048L263.209 253.913V256.778L288.381 254.631L313.553 256.778V253.913L292.914 251.048Z" fill="#263238"/>
<path d="M262.91 263.802C264.418 263.802 265.641 262.579 265.641 261.071C265.641 259.563 264.418 258.341 262.91 258.341C261.402 258.341 260.18 259.563 260.18 261.071C260.18 262.579 261.402 263.802 262.91 263.802Z" fill="#407BFF"/>
<path d="M313.553 263.802C315.061 263.802 316.284 262.579 316.284 261.071C316.284 259.563 315.061 258.341 313.553 258.341C312.045 258.341 310.823 259.563 310.823 261.071C310.823 262.579 312.045 263.802 313.553 263.802Z" fill="#407BFF"/>
<path d="M288.381 263.802C289.889 263.802 291.112 262.579 291.112 261.071C291.112 259.563 289.889 258.341 288.381 258.341C286.873 258.341 285.651 259.563 285.651 261.071C285.651 262.579 286.873 263.802 288.381 263.802Z" fill="#407BFF"/>
<path opacity="0.3" d="M291.845 212.396H284.925V217.408H291.845V212.396Z" fill="black"/>
<path d="M315.737 166.428H293.191C291.419 166.43 289.711 167.092 288.401 168.286C287.091 169.48 286.273 171.119 286.107 172.884L284.207 193.253C283.996 195.498 282.985 197.592 281.357 199.152C279.729 200.713 277.594 201.635 275.343 201.751L253.582 202.843C252.308 202.908 251.109 203.46 250.23 204.384C249.352 205.309 248.862 206.535 248.862 207.81V208.267C248.862 209.36 249.296 210.408 250.069 211.181C250.842 211.954 251.89 212.388 252.983 212.388H319.253L322.822 174.238C322.917 173.249 322.806 172.252 322.493 171.31C322.181 170.367 321.675 169.5 321.008 168.765C320.341 168.029 319.528 167.442 318.62 167.039C317.712 166.637 316.73 166.429 315.737 166.428Z" fill="#407BFF"/>
<path opacity="0.3" d="M315.737 166.428H293.191C291.419 166.43 289.711 167.092 288.401 168.286C287.091 169.48 286.273 171.119 286.107 172.884L284.207 193.253C283.996 195.498 282.985 197.592 281.357 199.152C279.729 200.713 277.594 201.635 275.343 201.751L253.582 202.843C252.308 202.908 251.109 203.46 250.23 204.384C249.352 205.309 248.862 206.535 248.862 207.81V208.267C248.862 209.36 249.296 210.408 250.069 211.181C250.842 211.954 251.89 212.388 252.983 212.388H319.253L322.822 174.238C322.917 173.249 322.806 172.252 322.493 171.31C322.181 170.367 321.675 169.5 321.008 168.765C320.341 168.029 319.528 167.442 318.62 167.039C317.712 166.637 316.73 166.429 315.737 166.428Z" fill="white"/>
<path d="M263.987 189.378H267.092V205.618C267.092 206.015 266.934 206.396 266.654 206.676C266.373 206.957 265.992 207.115 265.596 207.115H265.483C265.087 207.115 264.706 206.957 264.426 206.676C264.145 206.396 263.987 206.015 263.987 205.618V189.378Z" fill="#263238"/>
<path opacity="0.2" d="M263.987 189.378H267.092V205.618C267.092 206.015 266.934 206.396 266.654 206.676C266.373 206.957 265.992 207.115 265.596 207.115H265.483C265.087 207.115 264.706 206.957 264.426 206.676C264.145 206.396 263.987 206.015 263.987 205.618V189.378Z" fill="white"/>
<path d="M278.956 184.718H272.051V190.441H278.971C279.359 190.46 279.747 190.401 280.111 190.266C280.476 190.131 280.809 189.924 281.091 189.656C281.372 189.389 281.597 189.066 281.75 188.709C281.903 188.352 281.982 187.968 281.982 187.579C281.982 187.191 281.903 186.806 281.75 186.449C281.597 186.092 281.372 185.77 281.091 185.502C280.809 185.235 280.476 185.027 280.111 184.892C279.747 184.757 279.359 184.698 278.971 184.718H278.956Z" fill="#407BFF"/>
<path opacity="0.5" d="M278.956 184.718H272.051V190.441H278.971C279.359 190.46 279.747 190.401 280.111 190.266C280.476 190.131 280.809 189.924 281.091 189.656C281.372 189.389 281.597 189.066 281.75 188.709C281.903 188.352 281.982 187.968 281.982 187.579C281.982 187.191 281.903 186.806 281.75 186.449C281.597 186.092 281.372 185.77 281.091 185.502C280.809 185.235 280.476 185.027 280.111 184.892C279.747 184.757 279.359 184.698 278.971 184.718H278.956Z" fill="white"/>
<path d="M276.196 184.718H252.011C250.487 184.718 249.251 185.954 249.251 187.478V187.688C249.251 189.212 250.487 190.448 252.011 190.448H276.196C277.72 190.448 278.956 189.212 278.956 187.688V187.478C278.956 185.954 277.72 184.718 276.196 184.718Z" fill="#407BFF"/>
<path opacity="0.3" d="M276.196 184.718H252.011C250.487 184.718 249.251 185.954 249.251 187.478V187.688C249.251 189.212 250.487 190.448 252.011 190.448H276.196C277.72 190.448 278.956 189.212 278.956 187.688V187.478C278.956 185.954 277.72 184.718 276.196 184.718Z" fill="white"/>
<path d="M320.809 212.396H287.663L291.358 172.921C291.524 171.157 292.342 169.517 293.652 168.323C294.962 167.129 296.67 166.467 298.443 166.465H320.989C321.979 166.466 322.958 166.674 323.863 167.074C324.769 167.475 325.581 168.06 326.247 168.792C326.914 169.524 327.421 170.387 327.735 171.326C328.049 172.265 328.164 173.259 328.073 174.245L324.849 208.76C324.743 209.758 324.272 210.682 323.527 211.353C322.781 212.024 321.813 212.396 320.809 212.396Z" fill="#407BFF"/>
<path opacity="0.5" d="M320.809 212.396H287.663L291.358 172.921C291.524 171.157 292.342 169.517 293.652 168.323C294.962 167.129 296.67 166.467 298.443 166.465H320.989C321.979 166.466 322.958 166.674 323.863 167.074C324.769 167.475 325.581 168.06 326.247 168.792C326.914 169.524 327.421 170.387 327.735 171.326C328.049 172.265 328.164 173.259 328.073 174.245L324.849 208.76C324.743 209.758 324.272 210.682 323.527 211.353C322.781 212.024 321.813 212.396 320.809 212.396Z" fill="white"/>
<path d="M243.379 263.495H211.145C210.502 263.496 209.865 263.37 209.27 263.125C208.676 262.879 208.136 262.519 207.681 262.065C207.226 261.61 206.865 261.071 206.618 260.477C206.372 259.883 206.245 259.246 206.245 258.603V184.486C206.245 183.843 206.372 183.206 206.618 182.612C206.865 182.018 207.226 181.478 207.681 181.024C208.136 180.57 208.676 180.209 209.27 179.964C209.865 179.719 210.502 179.593 211.145 179.594H243.379C243.726 179.594 244.059 179.732 244.304 179.977C244.55 180.223 244.688 180.556 244.688 180.903C244.688 181.25 244.55 181.583 244.304 181.828C244.059 182.074 243.726 182.212 243.379 182.212H211.145C210.847 182.207 210.551 182.261 210.275 182.372C209.998 182.482 209.746 182.647 209.534 182.856C209.322 183.065 209.153 183.314 209.038 183.589C208.923 183.863 208.863 184.158 208.863 184.456V258.573C208.863 258.871 208.923 259.166 209.038 259.44C209.153 259.715 209.322 259.964 209.534 260.173C209.746 260.382 209.998 260.547 210.275 260.657C210.551 260.768 210.847 260.822 211.145 260.817H243.379C243.726 260.817 244.059 260.955 244.304 261.201C244.55 261.446 244.688 261.779 244.688 262.126C244.696 262.303 244.668 262.48 244.606 262.646C244.544 262.811 244.448 262.963 244.326 263.091C244.204 263.219 244.057 263.321 243.894 263.39C243.731 263.46 243.556 263.495 243.379 263.495Z" fill="#263238"/>
<g opacity="0.5">
<path opacity="0.5" d="M243.379 263.495H211.145C210.502 263.496 209.865 263.37 209.27 263.125C208.676 262.879 208.136 262.519 207.681 262.065C207.226 261.61 206.865 261.071 206.618 260.477C206.372 259.883 206.245 259.246 206.245 258.603V184.486C206.245 183.843 206.372 183.206 206.618 182.612C206.865 182.018 207.226 181.478 207.681 181.024C208.136 180.57 208.676 180.209 209.27 179.964C209.865 179.719 210.502 179.593 211.145 179.594H243.379C243.726 179.594 244.059 179.732 244.304 179.977C244.55 180.223 244.688 180.556 244.688 180.903C244.688 181.25 244.55 181.583 244.304 181.828C244.059 182.074 243.726 182.212 243.379 182.212H211.145C210.847 182.207 210.551 182.261 210.275 182.372C209.998 182.482 209.746 182.647 209.534 182.856C209.322 183.065 209.153 183.314 209.038 183.589C208.923 183.863 208.863 184.158 208.863 184.456V258.573C208.863 258.871 208.923 259.166 209.038 259.44C209.153 259.715 209.322 259.964 209.534 260.173C209.746 260.382 209.998 260.547 210.275 260.657C210.551 260.768 210.847 260.822 211.145 260.817H243.379C243.726 260.817 244.059 260.955 244.304 261.201C244.55 261.446 244.688 261.779 244.688 262.126C244.696 262.303 244.668 262.48 244.606 262.646C244.544 262.811 244.448 262.963 244.326 263.091C244.204 263.219 244.057 263.321 243.894 263.39C243.731 263.46 243.556 263.495 243.379 263.495Z" fill="white"/>
</g>
<path d="M222.074 140.598L219.83 139.102C219.773 139.065 219.726 139.015 219.693 138.955C219.661 138.896 219.643 138.829 219.643 138.761C219.643 138.694 219.661 138.627 219.693 138.567C219.726 138.508 219.773 138.458 219.83 138.421L222.074 136.925C222.156 136.871 222.257 136.851 222.354 136.871C222.45 136.891 222.535 136.948 222.59 137.03C222.642 137.111 222.66 137.21 222.64 137.305C222.621 137.4 222.565 137.484 222.485 137.538L220.623 138.773L222.485 140.007C222.565 140.062 222.621 140.145 222.64 140.24C222.66 140.335 222.642 140.434 222.59 140.516C222.531 140.592 222.444 140.644 222.348 140.659C222.252 140.674 222.154 140.652 222.074 140.598Z" fill="white"/>
<path d="M227.041 140.493C226.996 140.411 226.985 140.315 227.008 140.225C227.032 140.134 227.089 140.056 227.168 140.007L229.031 138.773L227.168 137.516C227.088 137.461 227.033 137.377 227.014 137.282C226.996 137.186 227.017 137.088 227.071 137.007C227.097 136.967 227.132 136.932 227.172 136.905C227.211 136.878 227.256 136.859 227.304 136.849C227.351 136.839 227.4 136.839 227.447 136.848C227.494 136.857 227.539 136.876 227.58 136.902L229.824 138.399C229.881 138.435 229.928 138.485 229.961 138.545C229.993 138.604 230.01 138.671 230.01 138.739C230.01 138.807 229.993 138.873 229.961 138.933C229.928 138.992 229.881 139.043 229.824 139.079L227.58 140.575C227.539 140.607 227.493 140.63 227.444 140.643C227.395 140.656 227.343 140.658 227.293 140.651C227.242 140.643 227.194 140.625 227.151 140.598C227.107 140.571 227.07 140.535 227.041 140.493Z" fill="white"/>
<path d="M223.967 141.503C223.92 141.489 223.877 141.465 223.84 141.434C223.803 141.403 223.772 141.364 223.75 141.321C223.728 141.278 223.714 141.231 223.71 141.182C223.706 141.134 223.712 141.085 223.727 141.039L225.276 136.147C225.289 136.101 225.312 136.058 225.343 136.021C225.373 135.984 225.411 135.953 225.453 135.931C225.496 135.908 225.542 135.895 225.59 135.891C225.638 135.887 225.686 135.893 225.732 135.908C225.778 135.921 225.821 135.944 225.858 135.974C225.895 136.005 225.926 136.043 225.948 136.085C225.97 136.128 225.984 136.174 225.988 136.222C225.992 136.27 225.986 136.318 225.971 136.364L224.43 141.264C224.416 141.31 224.392 141.353 224.361 141.39C224.33 141.427 224.292 141.458 224.249 141.48C224.205 141.503 224.158 141.516 224.11 141.52C224.061 141.524 224.013 141.518 223.967 141.503Z" fill="white"/>
<path d="M236.669 145.243H220.009C219.959 145.243 219.908 145.233 219.862 145.214C219.815 145.194 219.772 145.165 219.737 145.129C219.701 145.093 219.673 145.05 219.655 145.003C219.636 144.955 219.627 144.905 219.628 144.854C219.627 144.804 219.636 144.753 219.655 144.706C219.673 144.659 219.701 144.616 219.737 144.58C219.772 144.543 219.815 144.515 219.862 144.495C219.908 144.475 219.959 144.465 220.009 144.465H236.669C236.772 144.465 236.871 144.506 236.944 144.579C237.017 144.652 237.057 144.751 237.057 144.854C237.057 144.905 237.047 144.956 237.028 145.003C237.008 145.05 236.98 145.093 236.944 145.129C236.907 145.165 236.865 145.194 236.817 145.214C236.77 145.233 236.72 145.243 236.669 145.243Z" fill="white"/>
<path d="M255.804 145.243H239.137C239.086 145.243 239.035 145.233 238.988 145.214C238.941 145.194 238.898 145.165 238.862 145.129C238.826 145.093 238.797 145.05 238.778 145.003C238.758 144.956 238.748 144.905 238.748 144.854C238.756 144.756 238.8 144.665 238.872 144.598C238.944 144.532 239.039 144.495 239.137 144.495H255.789C255.892 144.495 255.991 144.536 256.064 144.609C256.137 144.682 256.178 144.781 256.178 144.884C256.17 144.98 256.128 145.069 256.059 145.135C255.99 145.201 255.899 145.24 255.804 145.243Z" fill="white"/>
<path d="M229.532 148.669H220.009C219.959 148.669 219.908 148.659 219.862 148.64C219.815 148.62 219.772 148.591 219.737 148.555C219.701 148.519 219.673 148.476 219.655 148.429C219.636 148.381 219.627 148.331 219.628 148.28C219.628 148.179 219.668 148.082 219.74 148.011C219.811 147.939 219.908 147.899 220.009 147.899H229.532C229.634 147.899 229.732 147.939 229.805 148.01C229.877 148.081 229.919 148.178 229.921 148.28C229.921 148.383 229.88 148.482 229.807 148.555C229.734 148.628 229.635 148.669 229.532 148.669Z" fill="white"/>
<path d="M247.605 148.669H232.008C231.957 148.669 231.907 148.659 231.86 148.64C231.814 148.62 231.771 148.591 231.736 148.555C231.7 148.519 231.672 148.476 231.653 148.429C231.635 148.381 231.626 148.331 231.627 148.28C231.627 148.179 231.667 148.082 231.738 148.011C231.81 147.939 231.907 147.899 232.008 147.899H247.605C247.706 147.899 247.803 147.939 247.875 148.011C247.946 148.082 247.987 148.179 247.987 148.28C247.987 148.331 247.978 148.381 247.96 148.429C247.941 148.476 247.913 148.519 247.877 148.555C247.842 148.591 247.8 148.62 247.753 148.64C247.706 148.659 247.656 148.669 247.605 148.669Z" fill="white"/>
<path d="M245.383 152.103H220.009C219.908 152.101 219.811 152.059 219.739 151.986C219.668 151.914 219.628 151.816 219.628 151.714C219.627 151.663 219.636 151.613 219.655 151.566C219.673 151.518 219.701 151.475 219.737 151.439C219.772 151.403 219.815 151.374 219.862 151.355C219.908 151.335 219.959 151.325 220.009 151.325H245.383C245.486 151.325 245.585 151.366 245.658 151.439C245.731 151.512 245.772 151.611 245.772 151.714C245.772 151.817 245.731 151.916 245.658 151.989C245.585 152.062 245.486 152.103 245.383 152.103Z" fill="white"/>
<path d="M253.163 152.103H247.867C247.764 152.103 247.665 152.062 247.592 151.989C247.519 151.916 247.478 151.817 247.478 151.714C247.478 151.611 247.519 151.512 247.592 151.439C247.665 151.366 247.764 151.325 247.867 151.325H253.163C253.266 151.325 253.365 151.366 253.438 151.439C253.511 151.512 253.552 151.611 253.552 151.714C253.552 151.817 253.511 151.916 253.438 151.989C253.365 152.062 253.266 152.103 253.163 152.103Z" fill="white"/>
<path d="M231.859 155.529H220.009C219.959 155.529 219.908 155.519 219.862 155.499C219.815 155.48 219.772 155.451 219.737 155.415C219.701 155.378 219.673 155.335 219.655 155.288C219.636 155.241 219.627 155.191 219.628 155.14C219.627 155.089 219.636 155.039 219.655 154.992C219.673 154.944 219.701 154.902 219.737 154.865C219.772 154.829 219.815 154.8 219.862 154.781C219.908 154.761 219.959 154.751 220.009 154.751H231.859C231.962 154.751 232.061 154.792 232.134 154.865C232.207 154.938 232.248 155.037 232.248 155.14C232.248 155.243 232.207 155.342 232.134 155.415C232.061 155.488 231.962 155.529 231.859 155.529Z" fill="white"/>
<path d="M249.086 155.529H234.342C234.239 155.529 234.14 155.488 234.067 155.415C233.994 155.342 233.953 155.243 233.953 155.14C233.953 155.037 233.994 154.938 234.067 154.865C234.14 154.792 234.239 154.751 234.342 154.751H249.086C249.189 154.751 249.288 154.792 249.361 154.865C249.434 154.938 249.475 155.037 249.475 155.14C249.475 155.243 249.434 155.342 249.361 155.415C249.288 155.488 249.189 155.529 249.086 155.529Z" fill="white"/>
<path d="M236.669 158.955H220.009C219.959 158.955 219.908 158.945 219.862 158.925C219.815 158.906 219.772 158.877 219.737 158.841C219.701 158.804 219.673 158.761 219.655 158.714C219.636 158.667 219.627 158.617 219.628 158.566C219.628 158.465 219.668 158.368 219.74 158.296C219.811 158.225 219.908 158.184 220.009 158.184H236.669C236.719 158.183 236.77 158.193 236.817 158.211C236.864 158.23 236.907 158.258 236.943 158.294C236.979 158.329 237.008 158.371 237.028 158.418C237.047 158.465 237.057 158.515 237.057 158.566C237.057 158.669 237.017 158.768 236.944 158.841C236.871 158.914 236.772 158.955 236.669 158.955Z" fill="white"/>
<path d="M250.904 158.955H239.137C239.034 158.955 238.935 158.914 238.862 158.841C238.789 158.768 238.748 158.669 238.748 158.566C238.748 158.515 238.758 158.465 238.778 158.418C238.797 158.371 238.826 158.329 238.862 158.294C238.899 158.258 238.942 158.23 238.989 158.211C239.036 158.193 239.086 158.183 239.137 158.184H250.889C250.99 158.184 251.087 158.225 251.159 158.296C251.23 158.368 251.27 158.465 251.27 158.566C251.272 158.666 251.235 158.763 251.167 158.835C251.098 158.908 251.004 158.951 250.904 158.955Z" fill="white"/>
<path d="M106.336 91.997C106.642 95.5204 105.879 101.901 103.224 103.966C107.555 105.529 112.148 108.222 115.08 111.775C117.99 107.542 114.684 105.125 114.684 105.125C110.944 103.794 111.34 100.959 112.305 98.348L106.336 91.997Z" fill="#B97964"/>
<path d="M120.496 88.9599C120.451 89.4013 120.661 89.7828 120.952 89.8127C121.244 89.8426 121.506 89.4985 121.551 89.0647C121.596 88.6308 121.386 88.2418 121.095 88.2119C120.803 88.182 120.549 88.5186 120.496 88.9599Z" fill="#263238"/>
<path d="M120.982 88.2194L122.067 88.0099C122.067 88.0099 121.446 88.8103 120.982 88.2194Z" fill="#263238"/>
<path d="M120.646 89.4312C120.951 90.4834 121.397 91.4898 121.97 92.4234C121.727 92.5637 121.457 92.6497 121.178 92.6756C120.899 92.7014 120.618 92.6664 120.354 92.573L120.646 89.4312Z" fill="#A24E3F"/>
<path d="M121.753 86.6335C121.822 86.6225 121.885 86.5882 121.932 86.5362C121.979 86.4864 122.004 86.4209 122.004 86.353C122.004 86.285 121.979 86.2195 121.932 86.1697C121.625 85.8889 121.254 85.6859 120.852 85.5779C120.45 85.4698 120.028 85.4599 119.621 85.5488C119.564 85.5884 119.523 85.648 119.508 85.716C119.493 85.7839 119.504 85.8551 119.539 85.9154C119.562 85.9538 119.595 85.9852 119.634 86.0063C119.674 86.0274 119.718 86.0373 119.763 86.035C120.087 85.9732 120.42 85.9877 120.737 86.0773C121.054 86.1669 121.345 86.3291 121.588 86.5512C121.632 86.5971 121.69 86.6262 121.753 86.6335Z" fill="#263238"/>
<path d="M105.984 86.1473C105.812 91.6155 105.625 93.942 108.064 96.994C111.736 101.58 118.387 100.577 120.167 95.251C121.768 90.456 121.783 82.2873 116.748 79.6392C111.714 76.9911 106.141 80.6641 105.984 86.1473Z" fill="#B97964"/>
<path d="M106.223 96.4778C100.845 95.5577 102.386 92.1691 102.386 92.1691C97.0897 91.0994 101.181 88.5111 101.181 88.5111C96.7755 86.6111 101.181 84.9055 101.181 84.9055C96.9326 81.3822 102.992 80.1629 102.992 80.1629C101.496 74.6647 106.732 76.9238 106.732 76.9238C109.575 72.1961 112.028 76.7069 112.028 76.7069C117.01 69.9744 118.222 75.6521 118.222 75.6521C123.316 74.3131 121.364 79.6691 121.364 79.6691C125.553 80.7912 122.262 82.9157 122.262 82.9157C123.877 84.9579 118.035 85.3094 118.035 85.3094C118.035 85.3094 120.818 89.7978 118.035 91.032L110.959 96.4554C110.959 96.4554 107.69 95.1239 106.223 96.4778Z" fill="#263238"/>
<path d="M111.512 92.0643C111.512 92.0643 115.252 83.0877 112.327 75.4277L114.796 74.5824C114.796 74.5824 118.02 85.7209 111.512 92.0643Z" fill="#407BFF"/>
<path d="M115.245 91.0769C115.858 92.3635 116.098 92.9246 116.98 93.321C117.253 93.4775 117.566 93.5502 117.879 93.5301C118.193 93.5101 118.494 93.3982 118.744 93.2083C118.995 93.0185 119.184 92.7591 119.288 92.4626C119.392 92.166 119.406 91.8454 119.329 91.5407C119.097 90.254 118.11 88.3615 116.741 88.3241C116.421 88.3257 116.107 88.4132 115.832 88.5775C115.557 88.7418 115.332 88.9769 115.179 89.2581C115.026 89.5394 114.952 89.8566 114.963 90.1765C114.975 90.4964 115.072 90.8074 115.245 91.0769Z" fill="#B97964"/>
<path d="M111.377 109.763C111.377 109.763 116.442 113.503 118.499 115L133.153 108.088C133.133 107.275 133.357 106.475 133.797 105.792C134.238 105.109 134.873 104.574 135.622 104.258L136.669 103.824L138.876 102.836C139.287 102.653 139.739 102.581 140.187 102.628C140.635 102.675 141.063 102.84 141.427 103.106C141.854 103.417 142.175 103.853 142.345 104.354C142.515 104.855 142.526 105.396 142.377 105.903C142.069 106.955 141.494 107.909 140.707 108.672C139.92 109.435 138.949 109.981 137.888 110.257L135.749 110.818C135.749 110.818 123.189 120.333 118.701 120.558C114.213 120.782 107.637 116.376 107.637 116.376L111.377 109.763Z" fill="#B97964"/>
<path d="M99.1991 103.457C103.067 103.457 107.39 105.866 114.16 110.279C113.188 113.461 111.379 116.323 108.924 118.568C108.924 118.568 105.184 117.565 100.216 112.89C94.2321 107.227 96.8278 103.465 99.1991 103.457Z" fill="#263238"/>
<path d="M172.658 114.663H136.003C135.695 114.668 135.389 114.607 135.106 114.485C134.823 114.363 134.569 114.182 134.361 113.954C134.153 113.726 133.996 113.457 133.9 113.164C133.804 112.871 133.771 112.561 133.804 112.254L136.564 80.7015C136.63 80.049 136.933 79.4435 137.416 78.9995C137.898 78.5555 138.527 78.3041 139.182 78.2927H175.837C176.145 78.2877 176.451 78.3483 176.733 78.4705C177.016 78.5928 177.27 78.7739 177.477 79.0018C177.685 79.2297 177.841 79.4991 177.936 79.7922C178.031 80.0853 178.063 80.3952 178.029 80.7015L175.268 112.254C175.203 112.905 174.901 113.51 174.42 113.954C173.939 114.398 173.312 114.65 172.658 114.663Z" fill="#407BFF"/>
<path opacity="0.4" d="M172.658 114.663H136.003C135.695 114.668 135.389 114.607 135.106 114.485C134.823 114.363 134.569 114.182 134.361 113.954C134.153 113.726 133.996 113.457 133.9 113.164C133.804 112.871 133.771 112.561 133.804 112.254L136.564 80.7015C136.63 80.049 136.933 79.4435 137.416 78.9995C137.898 78.5555 138.527 78.3041 139.182 78.2927H175.837C176.145 78.2877 176.451 78.3483 176.733 78.4705C177.016 78.5928 177.27 78.7739 177.477 79.0018C177.685 79.2297 177.841 79.4991 177.936 79.7922C178.031 80.0853 178.063 80.3952 178.029 80.7015L175.268 112.254C175.203 112.905 174.901 113.51 174.42 113.954C173.939 114.398 173.312 114.65 172.658 114.663Z" fill="white"/>
<path opacity="0.7" d="M172.792 113.167C173.04 113.162 173.278 113.067 173.46 112.899C173.642 112.73 173.756 112.501 173.78 112.254L176.54 80.7014C176.553 80.5855 176.541 80.4681 176.505 80.3571C176.469 80.2462 176.409 80.1441 176.331 80.0578C176.252 79.9715 176.156 79.9029 176.049 79.8565C175.942 79.8101 175.826 79.7871 175.71 79.7888H139.055C138.807 79.793 138.568 79.8882 138.385 80.0563C138.201 80.2245 138.086 80.454 138.06 80.7014L135.308 112.254C135.295 112.37 135.307 112.488 135.343 112.599C135.379 112.71 135.438 112.812 135.517 112.898C135.595 112.984 135.691 113.053 135.798 113.099C135.906 113.146 136.021 113.169 136.138 113.167H172.792Z" fill="white"/>
<path d="M147.321 94.6152L135.352 111.94V112.254C135.34 112.37 135.352 112.488 135.388 112.599C135.424 112.71 135.483 112.812 135.562 112.898C135.64 112.984 135.736 113.053 135.843 113.099C135.95 113.146 136.066 113.169 136.183 113.167H156.949L147.321 94.6152Z" fill="#407BFF"/>
<path opacity="0.3" d="M147.321 94.6152L135.352 111.94V112.254C135.34 112.37 135.352 112.488 135.388 112.599C135.424 112.71 135.483 112.812 135.562 112.898C135.64 112.984 135.736 113.053 135.843 113.099C135.95 113.146 136.066 113.169 136.183 113.167H156.949L147.321 94.6152Z" fill="white"/>
<path d="M173.885 111.05L163.853 91.997L148.997 113.167H172.792C173.04 113.163 173.278 113.067 173.46 112.899C173.642 112.73 173.756 112.501 173.78 112.254L173.885 111.05Z" fill="#407BFF"/>
<path d="M159.978 88.6308C159.887 89.5426 159.464 90.389 158.789 91.0096C158.115 91.6301 157.237 91.9815 156.32 91.997C155.889 92.0049 155.461 91.9208 155.065 91.7504C154.669 91.58 154.313 91.3271 154.022 91.0086C153.732 90.6902 153.512 90.3134 153.378 89.9034C153.244 89.4934 153.199 89.0596 153.246 88.6308C153.336 87.7177 153.758 86.8694 154.432 86.2474C155.107 85.6253 155.986 85.2729 156.904 85.2571C157.336 85.2491 157.764 85.3334 158.161 85.5042C158.558 85.6751 158.914 85.9287 159.205 86.248C159.496 86.5673 159.715 86.945 159.849 87.3559C159.982 87.7668 160.026 88.2015 159.978 88.6308Z" fill="#407BFF"/>
<path opacity="0.4" d="M159.978 88.6308C159.887 89.5426 159.464 90.389 158.789 91.0096C158.115 91.6301 157.237 91.9815 156.32 91.997C155.889 92.0049 155.461 91.9208 155.065 91.7504C154.669 91.58 154.313 91.3271 154.022 91.0086C153.732 90.6902 153.512 90.3134 153.378 89.9034C153.244 89.4934 153.199 89.0596 153.246 88.6308C153.336 87.7177 153.758 86.8694 154.432 86.2474C155.107 85.6253 155.986 85.2729 156.904 85.2571C157.336 85.2491 157.764 85.3334 158.161 85.5042C158.558 85.6751 158.914 85.9287 159.205 86.248C159.496 86.5673 159.715 86.945 159.849 87.3559C159.982 87.7668 160.026 88.2015 159.978 88.6308Z" fill="white"/>
<path d="M68.5066 242.019L64.7813 253.06L70.489 255.394L74.9548 245.205L68.5066 242.019Z" fill="#B97964"/>
<path d="M72.5386 255.117C72.5093 255.099 72.4855 255.074 72.4697 255.044C72.4538 255.013 72.4466 254.979 72.4488 254.945C72.453 254.912 72.4676 254.881 72.4905 254.857C72.5133 254.833 72.5433 254.816 72.576 254.81C72.6957 254.81 75.3887 254.182 76.3911 254.81C76.5806 254.926 76.7175 255.111 76.7726 255.326C76.8145 255.446 76.8183 255.576 76.7835 255.698C76.7486 255.82 76.6769 255.928 76.5781 256.007C76.1966 256.277 75.3064 256.164 74.491 255.91C73.8187 255.702 73.1655 255.437 72.5386 255.117ZM73.1071 255.065C74.2816 255.588 75.9422 256.089 76.3761 255.76C76.436 255.715 76.5108 255.641 76.4509 255.409C76.4393 255.341 76.4115 255.277 76.3698 255.222C76.3281 255.168 76.2738 255.124 76.2115 255.095C76.1233 255.039 76.0276 254.996 75.9273 254.967C74.9896 254.821 74.0325 254.854 73.1071 255.065Z" fill="#407BFF"/>
<path d="M72.4563 255.08C72.4419 255.055 72.4343 255.026 72.4343 254.997C72.4343 254.968 72.4419 254.94 72.4563 254.915C72.4563 254.84 73.2044 253.12 74.2591 252.671C74.4096 252.608 74.5711 252.576 74.7342 252.576C74.8972 252.576 75.0587 252.608 75.2092 252.671C75.6206 252.843 75.6879 253.105 75.6505 253.284C75.5608 254.07 73.541 255.005 72.6583 255.11C72.6479 255.115 72.6363 255.118 72.6247 255.118C72.613 255.118 72.6014 255.115 72.591 255.11C72.5679 255.116 72.5434 255.117 72.5198 255.112C72.4962 255.107 72.4744 255.096 72.4563 255.08ZM74.9922 252.963C74.7991 252.892 74.587 252.892 74.3938 252.963C73.7279 253.376 73.2055 253.985 72.8977 254.706C73.8627 254.474 75.2391 253.681 75.3363 253.209C75.3363 253.165 75.3363 253.045 75.082 252.94H74.9922V252.963Z" fill="#407BFF"/>
<path d="M72.1496 253.987L64.9833 251.743C64.8521 251.703 64.711 251.708 64.5833 251.759C64.4555 251.809 64.3486 251.901 64.2801 252.02L61.1832 257.451C61.1163 257.565 61.0726 257.692 61.0548 257.823C61.037 257.954 61.0454 258.088 61.0795 258.216C61.1136 258.344 61.1727 258.464 61.2534 258.569C61.3341 258.674 61.4348 258.762 61.5497 258.827C61.6109 258.865 61.6761 258.895 61.7442 258.917C64.34 259.665 66.6814 260.234 69.898 261.236C73.6981 262.403 72.591 262.56 77.0344 264.004C79.7124 264.872 81.1487 261.962 80.0266 261.46C75.0072 259.216 74.9548 257.451 73.5186 254.96C73.1937 254.482 72.7078 254.137 72.1496 253.987Z" fill="#263238"/>
<path opacity="0.2" d="M66.7188 247.315L72.7032 250.337L74.9548 245.205L68.5066 242.019L66.7188 247.315Z" fill="#263238"/>
<path d="M93.8057 139.895C93.8057 139.895 85.7641 146.036 87.4847 165.276C87.6492 167.056 88.2327 168.919 88.2327 170.954C88.2327 172.308 87.8587 173.258 87.4173 176.302C86.774 180.731 85.5921 197.248 84.3428 199.395C83.0936 201.542 82.5849 201.16 79.1065 207.085C75.3662 213.458 70.5039 224.634 66.7412 243.575C69.2536 245.348 72.1233 246.55 75.1493 247.098C75.1493 247.098 95.6983 214.692 100.067 202.626C103.979 191.832 108.64 157.384 108.64 157.384L109.014 142.423L93.8057 139.895Z" fill="#407BFF"/>
<path opacity="0.1" d="M102.603 165.276H96.783C96.783 165.276 94.868 183.588 101.196 198.864C101.855 196.41 102.521 193.47 103.171 190.291L105.692 174.163C105.333 171.44 105.056 169.36 105.012 169.226C104.884 168.799 102.603 165.276 102.603 165.276Z" fill="black"/>
<path d="M101.645 246.462L101.683 258.199L108.303 257.758L109.32 246.462H101.645Z" fill="#B97964"/>
<path d="M109.066 257.556C109.033 257.551 109.002 257.537 108.978 257.514C108.954 257.491 108.937 257.461 108.931 257.428C108.924 257.396 108.927 257.361 108.94 257.33C108.954 257.299 108.977 257.273 109.006 257.256C109.111 257.197 111.452 255.76 112.612 256.015C112.828 256.063 113.018 256.191 113.143 256.374C113.22 256.475 113.265 256.596 113.272 256.723C113.279 256.85 113.247 256.976 113.18 257.084C112.605 257.516 111.893 257.726 111.175 257.675C110.47 257.699 109.764 257.659 109.066 257.556ZM109.59 257.324C110.869 257.436 112.582 257.361 112.903 256.905C112.948 256.845 112.986 256.748 112.859 256.546C112.824 256.487 112.776 256.437 112.719 256.399C112.662 256.362 112.597 256.338 112.529 256.329C112.428 256.314 112.324 256.314 112.223 256.329C111.288 256.485 110.394 256.823 109.59 257.324Z" fill="#407BFF"/>
<path d="M108.976 257.556C108.951 257.54 108.93 257.517 108.916 257.491C108.902 257.465 108.894 257.436 108.894 257.406C108.894 257.324 109.021 255.461 109.866 254.713C109.987 254.602 110.129 254.518 110.283 254.464C110.437 254.41 110.601 254.388 110.764 254.399C111.213 254.399 111.362 254.653 111.385 254.84C111.557 255.588 109.964 257.152 109.141 257.548C109.119 257.556 109.095 257.556 109.073 257.548C109.043 257.562 109.008 257.565 108.976 257.556ZM110.667 254.713C110.461 254.717 110.264 254.797 110.113 254.937C109.62 255.547 109.327 256.294 109.275 257.077C110.106 256.546 111.146 255.341 111.086 254.878C111.086 254.833 111.048 254.713 110.757 254.698H110.667V254.713Z" fill="#407BFF"/>
<path d="M108.333 256.621L100.852 256.89C100.716 256.896 100.585 256.948 100.482 257.038C100.379 257.127 100.309 257.249 100.284 257.384L99.1468 263.533C99.0963 263.794 99.1514 264.064 99.3001 264.284C99.4488 264.504 99.6789 264.656 99.9397 264.707C100.012 264.714 100.085 264.714 100.157 264.707C102.857 264.557 105.251 264.326 108.617 264.213C112.589 264.071 111.609 264.58 116.27 264.483C119.09 264.415 119.486 261.199 118.289 261.086C112.806 260.593 112.178 258.962 110.001 257.084C109.522 256.728 108.927 256.563 108.333 256.621Z" fill="#263238"/>
<path opacity="0.2" d="M101.668 252.536L108.789 252.387L109.32 246.462H101.645L101.668 252.536Z" fill="#263238"/>
<path d="M98.2865 137.763C98.2865 137.763 90.26 148.393 96.207 169.181L102.939 199.544C102.939 199.544 96.5511 213.353 99.9472 249.783C103.239 250.246 106.584 250.17 109.851 249.559C109.851 249.559 117.332 211.087 118.461 198.093C119.711 183.775 118.963 140.62 118.963 140.62L98.2865 137.763Z" fill="#407BFF"/>
<path d="M103.134 103.308C103.134 103.308 101.892 97.9964 109.866 100.315C117.841 102.634 117.167 107.175 117.167 107.175L103.134 103.308Z" fill="#263238"/>
<path opacity="0.4" d="M103.134 103.308C103.134 103.308 101.892 97.9964 109.866 100.315C117.841 102.634 117.167 107.175 117.167 107.175L103.134 103.308Z" fill="black"/>
<path d="M122.912 116.593C122.912 118.456 122.164 121.149 121.416 124.163C121.072 125.592 120.758 127.081 120.549 128.592C119.419 136.82 119.052 145.49 119.052 145.49C114.65 146.45 110.098 146.494 105.678 145.617C101.259 144.741 97.0669 142.963 93.3643 140.396C93.3643 140.396 96.4987 137.74 95.8554 119.346C95.5636 111.057 92.5714 101.206 106.268 102.754C117.833 104.063 121.723 107.654 122.658 113.272C122.658 113.339 122.658 113.414 122.658 113.489L122.725 114.012C122.838 114.868 122.901 115.73 122.912 116.593Z" fill="#263238"/>
<path opacity="0.4" d="M122.912 116.593C122.912 118.456 122.164 121.149 121.416 124.163C118.289 120.423 115.155 113.354 115.155 113.354L117.736 109.554L122.284 111.671C122.441 112.196 122.566 112.731 122.658 113.272C122.658 113.339 122.658 113.414 122.658 113.489L122.725 114.012C122.838 114.868 122.901 115.73 122.912 116.593Z" fill="black"/>
<path d="M127.677 113.346C127.677 113.346 132.166 117.775 133.939 119.555L149.453 114.902C149.555 114.1 149.894 113.347 150.427 112.739C150.961 112.131 151.663 111.697 152.445 111.491L153.538 111.207L155.872 110.564C156.306 110.446 156.764 110.444 157.2 110.558C157.636 110.672 158.034 110.899 158.355 111.214C158.731 111.585 158.983 112.063 159.077 112.583C159.171 113.102 159.102 113.638 158.879 114.117C158.417 115.111 157.706 115.969 156.814 116.607C155.923 117.246 154.882 117.643 153.792 117.76L151.593 117.992C151.593 117.992 137.746 125.555 133.288 125.136C128.829 124.717 122.972 119.353 122.972 119.353L127.677 113.346Z" fill="#B97964"/>
<path d="M116.532 105.29C120.362 105.851 124.274 108.896 130.348 114.267C128.909 117.271 126.69 119.833 123.922 121.687C123.922 121.687 120.384 120.139 116.165 114.775C111.063 108.282 114.213 104.946 116.532 105.29Z" fill="#263238"/>
</svg>
